<svg xmlns="http://www.w3.org/2000/svg" xmlns:xlink="http://www.w3.org/1999/xlink" width="1366" zoomAndPan="magnify" viewBox="0 0 1024.5 576" height="768" preserveAspectRatio="xMidYMid meet" version="1.0"><defs><clipPath id="a96f67a5b6"><path d="M 205 338 L 750 338 L 750 403.398438 L 205 403.398438 Z M 205 338 " clip-rule="nonzero"/></clipPath><clipPath id="6edf658fd6"><path d="M 268 113.148438 L 301 113.148438 L 301 339 L 268 339 Z M 268 113.148438 " clip-rule="nonzero"/></clipPath></defs><g clip-path="url(#a96f67a5b6)"><path fill="#be986d" d="M 205.839844 338.679688 L 749.910156 338.679688 L 749.910156 403.660156 L 205.839844 403.660156 Z M 205.839844 338.679688 " fill-opacity="1" fill-rule="nonzero"/></g><g clip-path="url(#6edf658fd6)"><path fill="#e8c9ab" d="M 268.316406 113.214844 L 300.796875 113.214844 L 300.796875 338.617188 L 268.316406 338.617188 Z M 268.316406 113.214844 " fill-opacity="1" fill-rule="nonzero"/></g><path fill="#a9845a" d="M 302.300781 150.476562 L 334.78125 150.476562 L 334.78125 338.679688 L 302.300781 338.679688 Z M 302.300781 150.476562 " fill-opacity="1" fill-rule="nonzero"/><path fill="#a48971" d="M 334.78125 166.003906 L 364.582031 153.074219 L 439.449219 325.738281 L 409.652344 338.667969 Z M 334.78125 166.003906 " fill-opacity="1" fill-rule="nonzero"/><path fill="#d2a87d" d="M 388.742188 204.746094 L 414.96875 185.582031 L 512.773438 319.503906 L 486.546875 338.667969 Z M 388.742188 204.746094 " fill-opacity="1" fill-rule="nonzero"/></svg>