<svg xmlns="http://www.w3.org/2000/svg" xmlns:xlink="http://www.w3.org/1999/xlink" width="1080" zoomAndPan="magnify" viewBox="0 0 810 809.999993" height="1080" preserveAspectRatio="xMidYMid meet" version="1.0"><defs><clipPath id="6d0b006757"><path d="M 244 372.011719 L 566 372.011719 L 566 438 L 244 438 Z M 244 372.011719 " clip-rule="nonzero"/></clipPath><clipPath id="81bfec6009"><path d="M 259 372.011719 L 556 372.011719 L 556 433 L 259 433 Z M 259 372.011719 " clip-rule="nonzero"/></clipPath></defs><g clip-path="url(#6d0b006757)"><path fill="#cb725b" d="M 502.457031 437.007812 C 501.894531 437.007812 501.332031 436.96875 500.808594 436.910156 C 499.21875 436.714844 497.363281 436.46875 495.566406 435.957031 C 495.1875 435.847656 494.832031 435.722656 494.492188 435.589844 C 494.0625 435.417969 493.660156 435.210938 493.195312 434.917969 C 492.109375 434.257812 491.289062 433.425781 490.667969 432.386719 C 490.3125 431.800781 490.019531 431.128906 489.800781 430.40625 C 489.433594 429.550781 489.1875 428.523438 489.078125 427.375 L 489.054688 427.253906 C 489.019531 426.851562 488.96875 426.449219 488.96875 426.03125 C 488.96875 424.234375 488.933594 422.425781 488.882812 420.628906 C 488.808594 417.207031 488.722656 413.675781 488.933594 410.207031 C 488.980469 409.421875 488.882812 408.675781 488.625 407.96875 C 491.230469 407.773438 491.230469 407.738281 491.203125 407.308594 L 491.191406 406.832031 L 490.714844 406.832031 C 490.691406 406.832031 490.691406 406.832031 487.882812 407.039062 C 486.746094 406.992188 485.546875 406.964844 484.351562 406.964844 C 479.84375 406.964844 475.285156 407.296875 470.886719 407.613281 L 468.726562 407.773438 C 467.808594 407.835938 466.90625 407.894531 465.988281 407.957031 L 460.894531 408.273438 C 455.503906 408.605469 449.921875 408.933594 444.449219 409.386719 C 436.886719 410.007812 429.164062 410.265625 421.699219 410.523438 C 418.597656 410.621094 415.496094 410.730469 412.390625 410.863281 C 407.457031 411.074219 402.261719 411.171875 396.535156 411.171875 C 387.273438 411.171875 377.851562 410.902344 368.75 410.644531 C 364.242188 410.523438 359.722656 410.386719 355.214844 410.289062 C 353.933594 410.265625 352.636719 410.253906 351.355469 410.253906 L 351.171875 410.253906 C 348.3125 410.253906 345.488281 410.316406 342.851562 410.386719 L 340.910156 410.4375 C 337.890625 410.511719 334.875 410.597656 331.867188 410.621094 L 331 410.632812 L 329.789062 410.632812 C 327.3125 410.632812 325.074219 410.582031 322.960938 410.5 L 322.679688 410.484375 L 322.535156 410.71875 C 321.898438 411.695312 321.753906 412.773438 321.605469 413.808594 C 321.542969 414.238281 321.507812 414.566406 321.433594 414.886719 C 321.261719 415.71875 321.105469 416.546875 320.945312 417.378906 C 320.324219 420.65625 319.675781 424.050781 318.453125 427.230469 L 318.355469 427.5 C 317.988281 428.464844 317.648438 429.367188 316.925781 430.054688 C 314.359375 433.449219 310.816406 435.003906 305.710938 435.003906 C 305.050781 435.003906 304.390625 434.976562 303.71875 434.929688 C 301.53125 434.792969 299.148438 434.355469 296.449219 433.585938 C 293.882812 432.863281 292.101562 430.933594 290.816406 427.511719 C 289.035156 422.71875 288.070312 417.683594 287.164062 412.527344 C 287.054688 411.890625 286.824219 411.292969 286.433594 410.597656 C 286.308594 410.414062 286.199219 410.289062 286.101562 410.167969 L 285.980469 410.023438 C 285.929688 409.960938 285.882812 409.898438 285.832031 409.851562 C 285.160156 409.191406 284.390625 408.75 283.488281 408.53125 L 283.425781 408.519531 L 283.367188 408.519531 C 281.570312 408.25 279.699219 407.957031 277.84375 407.675781 C 273.566406 407.027344 269.132812 406.34375 264.769531 405.746094 C 258.957031 404.949219 253.640625 403.753906 248.535156 402.078125 C 244.5625 400.78125 243.464844 398.691406 244.636719 394.648438 L 244.953125 393.644531 C 245.820312 390.625 246.726562 387.496094 248.007812 384.601562 C 250.5 378.96875 253.859375 376.179688 258.90625 375.558594 L 261.800781 375.191406 C 262.960938 375.042969 263.609375 374.957031 263.792969 374.957031 L 265.480469 374.957031 C 266.628906 374.957031 267.789062 374.957031 268.9375 374.96875 L 270.109375 374.984375 C 271.417969 374.996094 272.722656 374.996094 274.019531 374.996094 L 274.335938 374.996094 C 277.035156 374.996094 280.59375 374.96875 284.195312 374.75 C 287.910156 374.519531 291.820312 374.371094 296.890625 374.285156 L 298.699219 374.285156 C 308.335938 373.625 317.941406 373.527344 326.066406 373.527344 C 329.035156 373.527344 332.003906 373.539062 334.984375 373.550781 C 337.953125 373.566406 340.933594 373.578125 343.902344 373.578125 L 349.902344 373.566406 C 352.929688 373.566406 355.972656 373.578125 359.003906 373.589844 C 362.042969 373.601562 365.074219 373.613281 368.117188 373.613281 C 373.554688 373.613281 380.722656 373.589844 387.992188 373.355469 C 400.847656 372.941406 414.675781 372.746094 430.265625 372.746094 C 444.414062 372.746094 458.339844 372.90625 471.289062 373.074219 C 473.671875 373.113281 476.066406 373.125 478.449219 373.148438 C 486.148438 373.210938 494.125 373.273438 501.917969 373.785156 C 504.679688 373.96875 507.488281 373.992188 510.191406 374.03125 C 513.734375 374.066406 517.386719 374.113281 520.953125 374.480469 C 522.980469 374.6875 525.035156 374.761719 527.011719 374.824219 C 528.808594 374.886719 530.652344 374.933594 532.460938 375.105469 L 534.5625 375.300781 C 538.300781 375.644531 542.164062 375.996094 545.925781 376.535156 C 547.539062 376.765625 549.164062 376.914062 550.738281 377.058594 L 551.3125 377.109375 C 551.410156 377.121094 551.496094 377.121094 551.582031 377.121094 C 551.703125 377.121094 551.8125 377.121094 551.886719 377.144531 L 551.972656 377.171875 L 552.277344 377.171875 C 555.945312 377.171875 559.632812 379.003906 562.148438 382.082031 C 564.582031 385.066406 565.582031 388.742188 564.875 392.167969 C 564.691406 393.070312 564.472656 393.960938 564.261719 394.867188 C 563.957031 396.164062 563.640625 397.507812 563.40625 398.839844 C 563.003906 401.257812 561.625 402.957031 559.109375 404.179688 C 553.378906 406.964844 547.28125 407.820312 541.550781 408.324219 C 541 408.371094 540.453125 408.394531 539.902344 408.421875 L 539.132812 408.457031 L 537.910156 408.519531 C 537.042969 408.566406 536.175781 408.617188 535.308594 408.640625 C 534.136719 408.675781 532.976562 408.703125 531.800781 408.703125 C 528.550781 408.703125 525.300781 408.566406 522.554688 408.433594 L 522.503906 409.25 L 522.199219 408.921875 C 522.039062 411.242188 521.148438 413.796875 520.367188 416.046875 L 520 417.109375 C 518.570312 421.316406 516.847656 425.507812 514.757812 429.929688 C 512.277344 435.148438 506.574219 437.007812 502.457031 437.007812 Z M 502.457031 437.007812 " fill-opacity="1" fill-rule="nonzero"/></g><path fill="#fdc18a" d="M 519.035156 409.875 C 520.269531 409.875 521.503906 409.3125 522.6875 408.957031 C 522.503906 411.71875 521.332031 414.726562 520.464844 417.28125 C 518.972656 421.667969 517.191406 425.945312 515.199219 430.152344 C 512.460938 435.917969 505.78125 437.996094 500.757812 437.398438 C 498.976562 437.191406 497.191406 436.933594 495.433594 436.421875 C 495.039062 436.308594 494.660156 436.175781 494.308594 436.042969 C 493.820312 435.847656 493.367188 435.601562 492.9375 435.332031 C 491.828125 434.648438 490.921875 433.769531 490.25 432.632812 C 489.886719 432.007812 489.578125 431.3125 489.335938 430.542969 C 489.394531 430.457031 489.445312 430.359375 489.507812 430.273438 C 489.519531 430.261719 489.605469 430.308594 489.640625 430.347656 C 491.828125 432.742188 493.097656 432.644531 494.90625 429.929688 C 495.066406 429.6875 495.199219 429.429688 495.347656 429.171875 C 498.621094 423.636719 500.722656 417.660156 501.832031 411.339844 C 502.042969 410.191406 502.433594 409.8125 503.628906 409.828125 C 508.75 409.898438 513.890625 409.863281 519.035156 409.875 Z M 264.734375 406.195312 C 259.175781 405.4375 253.738281 404.253906 248.414062 402.503906 C 244.136719 401.113281 242.964844 398.753906 244.199219 394.476562 C 245.1875 391.066406 246.128906 387.632812 247.558594 384.394531 C 249.742188 379.480469 252.945312 375.800781 258.84375 375.066406 C 262.535156 374.617188 263.648438 374.445312 263.867188 374.480469 C 263.609375 374.542969 263.367188 374.605469 263.109375 374.664062 C 262.851562 374.726562 262.609375 374.800781 262.363281 374.886719 C 261.140625 375.335938 259.847656 375.824219 259.726562 377.355469 C 259.589844 378.894531 260.824219 379.457031 261.972656 379.90625 C 265.0625 381.140625 268.203125 382.328125 271.503906 382.816406 C 282.988281 384.503906 294.542969 385.578125 306.125 386.3125 C 314.289062 386.824219 322.449219 387.277344 330.609375 387.71875 C 337.71875 388.097656 344.832031 388.449219 351.953125 388.757812 C 364.035156 389.257812 376.117188 389.78125 388.203125 390.148438 C 395.910156 390.394531 403.632812 390.417969 411.328125 390.46875 C 428.871094 390.578125 446.402344 390.847656 463.949219 390.296875 C 476.691406 389.90625 489.433594 390.40625 502.1875 389.992188 C 508.015625 389.808594 513.855469 389.613281 519.683594 389.464844 C 521.539062 389.417969 523.410156 389.195312 525.242188 388.902344 C 529.617188 388.207031 534 387.582031 538.328125 386.628906 C 543.335938 385.53125 548.355469 384.355469 553 382.046875 C 555.550781 380.777344 555.601562 379.710938 553.390625 378 C 553.074219 377.757812 552.300781 376.949219 552.035156 376.667969 C 560.0625 376.5 566.964844 384.492188 565.375 392.265625 C 564.921875 394.488281 564.300781 396.6875 563.921875 398.925781 C 563.445312 401.722656 561.785156 403.445312 559.351562 404.632812 C 553.757812 407.359375 547.734375 408.285156 541.625 408.824219 C 540.804688 408.898438 539.988281 408.910156 539.179688 408.945312 C 537.910156 409.007812 536.628906 409.09375 535.34375 409.128906 C 526.585938 409.421875 517.851562 408.492188 509.089844 408.371094 C 506.316406 408.335938 503.496094 408.089844 500.710938 407.96875 C 500.183594 407.945312 499.648438 407.90625 499.121094 407.882812 C 495.40625 407.636719 491.691406 407.234375 487.953125 407.515625 C 481.539062 407.234375 475.175781 407.796875 468.796875 408.25 C 467.882812 408.3125 466.976562 408.371094 466.0625 408.433594 C 458.878906 408.886719 451.695312 409.265625 444.535156 409.863281 C 433.855469 410.742188 423.15625 410.890625 412.464844 411.328125 C 393.382812 412.125 374.324219 411.171875 355.25 410.753906 C 353.90625 410.730469 352.5625 410.71875 351.21875 410.71875 C 348.445312 410.71875 345.683594 410.78125 342.914062 410.851562 C 339.246094 410.949219 335.582031 411.046875 331.917969 411.085938 C 331.625 411.085938 331.34375 411.097656 331.050781 411.097656 C 328.363281 411.109375 325.671875 411.085938 322.984375 410.960938 C 319.894531 411.085938 316.839844 410.484375 313.761719 410.316406 C 305.90625 409.875 298.039062 409.691406 290.195312 409.09375 C 289.914062 409.070312 289.621094 409.054688 289.339844 409.054688 C 287.359375 409.03125 285.394531 409.363281 283.425781 408.984375 C 277.183594 408.042969 270.964844 407.050781 264.734375 406.195312 Z M 317.292969 430.382812 C 313.847656 434.953125 308.9375 435.722656 303.730469 435.394531 C 301.25 435.234375 298.757812 434.710938 296.363281 434.035156 C 293.1875 433.144531 291.488281 430.578125 290.414062 427.65625 C 288.59375 422.78125 287.628906 417.683594 286.738281 412.589844 C 286.628906 411.929688 286.371094 411.367188 286.066406 410.804688 C 286.394531 410.644531 286.726562 410.683594 287.078125 410.753906 C 289.828125 411.355469 292.613281 411.597656 295.410156 411.609375 C 300.605469 411.636719 305.808594 411.597656 311 411.585938 C 313.089844 411.574219 313.078125 411.671875 312.917969 413.773438 C 312.613281 417.90625 312.285156 422.070312 313.042969 426.167969 C 313.617188 429.417969 313.503906 430.296875 317.292969 430.382812 Z M 317.292969 430.382812 " fill-opacity="1" fill-rule="nonzero"/><g clip-path="url(#81bfec6009)"><path fill="#cb725b" d="M 263.097656 374.664062 C 262.839844 374.726562 262.597656 374.800781 262.351562 374.886719 C 261.128906 375.335938 259.835938 375.824219 259.714844 377.355469 C 259.578125 378.894531 260.8125 379.457031 261.960938 379.90625 C 265.050781 381.140625 268.191406 382.328125 271.492188 382.816406 C 282.976562 384.503906 294.53125 385.578125 306.113281 386.3125 C 314.273438 386.824219 322.4375 387.277344 330.597656 387.71875 C 337.707031 388.097656 344.816406 388.449219 351.941406 388.757812 C 364.023438 389.257812 376.105469 389.78125 388.1875 390.148438 C 395.898438 390.394531 403.621094 390.417969 411.316406 390.46875 C 428.859375 390.578125 446.390625 390.847656 463.9375 390.296875 C 476.679688 389.90625 489.421875 390.40625 502.175781 389.992188 C 508.003906 389.808594 513.84375 389.613281 519.671875 389.464844 C 521.527344 389.417969 523.398438 389.195312 525.230469 388.902344 C 529.601562 388.207031 533.988281 387.582031 538.3125 386.628906 C 543.324219 385.53125 548.34375 384.355469 552.988281 382.046875 C 555.601562 380.738281 555.269531 379.652344 554.269531 378.710938 C 553.976562 378.441406 552.976562 377.609375 552.695312 377.316406 C 552.242188 376.472656 551.800781 376.644531 551.363281 376.609375 C 549.566406 376.449219 547.78125 376.289062 546 376.035156 C 541.527344 375.386719 537.007812 375.019531 532.511719 374.605469 C 528.6875 374.25 524.851562 374.382812 521.003906 373.980469 C 514.6875 373.320312 508.308594 373.699219 501.945312 373.285156 C 491.753906 372.625 481.503906 372.710938 471.289062 372.574219 C 443.519531 372.207031 415.738281 371.964844 387.96875 372.855469 C 374.175781 373.296875 360.359375 373.039062 346.554688 373.074219 C 330.585938 373.136719 314.628906 372.695312 298.6875 373.796875 C 302.621094 375.714844 306.859375 376.558594 311.125 377.21875 C 326.296875 379.554688 341.582031 378.183594 356.816406 378.699219 C 363.976562 378.941406 371.132812 379.359375 378.292969 379.945312 C 387.785156 380.726562 397.15625 382.242188 406.539062 383.722656 C 415.714844 385.164062 424.902344 386.472656 434.199219 386.300781 C 438.730469 386.214844 443.300781 385.835938 447.6875 384.464844 C 448.980469 384.0625 450.789062 383.90625 450.886719 382.21875 C 450.984375 380.519531 449.203125 380.101562 447.957031 379.625 C 444.230469 378.171875 440.285156 377.683594 436.324219 377.242188 C 431.839844 376.753906 427.359375 377.035156 422.863281 377.21875 C 422.273438 377.242188 421.25 377.5625 421.1875 376.828125 C 421.101562 375.921875 422.238281 376.046875 422.835938 375.984375 C 424.402344 375.824219 425.988281 375.851562 427.566406 375.8125 C 433.355469 375.691406 439.148438 375.691406 444.792969 377.242188 C 446.808594 377.792969 448.882812 378.257812 450.644531 379.503906 C 453.109375 381.265625 452.941406 383.660156 450.191406 384.917969 C 447.285156 386.25 444.144531 386.652344 441.015625 387.03125 C 436.59375 387.570312 432.148438 387.460938 427.710938 387.386719 C 420.871094 387.277344 414.113281 386.25 407.382812 385.175781 C 399.550781 383.929688 391.71875 382.632812 383.839844 381.765625 C 377.339844 381.058594 370.828125 380.679688 364.304688 380.285156 C 357.328125 379.90625 350.375 380.054688 343.425781 380.078125 C 336.460938 380.101562 329.511719 379.871094 322.570312 379.601562 C 314.46875 379.285156 306.382812 378.40625 298.769531 375.226562 C 298 374.910156 297.246094 374.617188 296.867188 373.796875 C 292.625 373.882812 288.386719 374.003906 284.148438 374.261719 C 280.777344 374.46875 277.390625 374.519531 274.007812 374.507812 C 272.308594 374.507812 270.609375 374.492188 268.925781 374.480469 C 267.238281 374.46875 265.539062 374.457031 263.855469 374.46875 C 263.609375 374.542969 263.355469 374.605469 263.097656 374.664062 Z M 522.6875 408.957031 C 522.542969 409.324219 520.269531 409.886719 519.035156 409.875 C 513.890625 409.863281 508.75 409.898438 503.617188 409.8125 C 502.417969 409.800781 502.027344 410.179688 501.820312 411.328125 C 500.710938 417.648438 498.609375 423.625 495.332031 429.160156 C 495.1875 429.417969 495.039062 429.660156 494.894531 429.917969 C 491.949219 434.625 489.066406 432.523438 488.578125 427.414062 C 488.527344 426.949219 488.480469 426.484375 488.480469 426.019531 C 488.480469 420.726562 488.136719 415.449219 488.445312 410.15625 C 488.492188 409.214844 488.320312 408.347656 487.917969 407.515625 C 491.65625 407.234375 495.371094 407.652344 499.097656 407.882812 C 499.621094 407.917969 500.160156 407.945312 500.683594 407.96875 C 503.46875 408.101562 506.292969 408.335938 509.066406 408.371094 C 517.839844 408.519531 522.6875 408.957031 522.6875 408.957031 Z M 322.972656 410.960938 C 322.375 411.867188 322.253906 412.929688 322.105469 413.957031 C 322.058594 414.300781 322.007812 414.640625 321.949219 414.972656 C 321.105469 419.152344 320.480469 423.378906 318.941406 427.402344 C 318.527344 428.476562 318.160156 429.578125 317.292969 430.394531 C 313.503906 430.308594 313.617188 429.417969 313.027344 426.179688 C 312.285156 422.085938 312.601562 417.917969 312.90625 413.785156 C 313.066406 411.683594 313.078125 411.585938 310.988281 411.597656 C 305.796875 411.621094 300.59375 411.648438 295.398438 411.621094 C 292.601562 411.609375 289.816406 411.367188 287.066406 410.765625 C 286.714844 410.695312 286.382812 410.65625 286.054688 410.816406 C 285.945312 410.65625 285.820312 410.523438 285.710938 410.386719 C 285.648438 410.316406 285.589844 410.230469 285.527344 410.15625 C 285.515625 410.144531 285.503906 410.132812 285.492188 410.121094 C 284.929688 409.558594 284.234375 409.167969 283.414062 408.972656 C 285.382812 409.363281 287.347656 409.019531 289.328125 409.042969 C 289.609375 409.042969 289.890625 409.054688 290.183594 409.082031 C 298.027344 409.679688 305.894531 409.863281 313.75 410.304688 C 316.828125 410.484375 319.871094 411.085938 322.972656 410.960938 Z M 322.972656 410.960938 " fill-opacity="1" fill-rule="nonzero"/></g><path fill="#f58159" d="M 298.769531 375.226562 C 306.382812 378.417969 314.46875 379.285156 322.558594 379.601562 C 329.511719 379.871094 336.460938 380.101562 343.425781 380.078125 C 350.375 380.054688 357.328125 379.90625 364.292969 380.3125 C 370.816406 380.691406 377.328125 381.082031 383.828125 381.789062 C 391.71875 382.65625 399.539062 383.941406 407.371094 385.199219 C 414.113281 386.273438 420.859375 387.300781 427.699219 387.410156 C 432.132812 387.484375 436.582031 387.59375 441.003906 387.058594 C 444.132812 386.679688 447.269531 386.273438 450.179688 384.941406 C 452.941406 383.671875 453.109375 381.277344 450.632812 379.527344 C 448.859375 378.269531 446.796875 377.816406 444.777344 377.269531 C 439.136719 375.714844 433.34375 375.714844 427.554688 375.839844 C 425.976562 375.875 424.386719 375.839844 422.824219 376.007812 C 422.238281 376.070312 421.089844 375.949219 421.175781 376.851562 C 421.25 377.585938 422.273438 377.269531 422.847656 377.242188 C 427.332031 377.058594 431.828125 376.765625 436.3125 377.269531 C 440.257812 377.695312 444.203125 378.195312 447.945312 379.652344 C 449.191406 380.140625 450.972656 380.542969 450.875 382.242188 C 450.777344 383.929688 448.957031 384.085938 447.675781 384.492188 C 443.289062 385.859375 438.71875 386.238281 434.1875 386.324219 C 424.890625 386.496094 415.714844 385.1875 406.527344 383.746094 C 397.144531 382.277344 387.773438 380.75 378.28125 379.96875 C 371.121094 379.382812 363.960938 378.96875 356.804688 378.722656 C 341.566406 378.210938 326.285156 379.578125 311.109375 377.242188 C 306.835938 376.582031 302.609375 375.742188 298.671875 373.820312 C 298.0625 373.820312 297.464844 373.820312 296.851562 373.820312 C 297.257812 374.617188 298.015625 374.910156 298.769531 375.226562 Z M 487.464844 379.308594 C 487.0625 379.296875 486.660156 379.199219 486.246094 379.175781 C 481.234375 378.917969 476.226562 378.488281 471.203125 378.636719 C 470.8125 378.648438 470.265625 378.589844 470.226562 379.125 C 470.191406 379.6875 470.742188 379.6875 471.132812 379.675781 C 472.828125 379.640625 474.503906 379.921875 476.191406 380.003906 C 484.058594 380.421875 491.925781 380.898438 499.792969 381.042969 C 509.066406 381.214844 518.363281 381.386719 527.574219 379.710938 C 531.65625 378.96875 535.589844 377.78125 539.390625 376.09375 C 537.996094 375.714844 536.703125 375.863281 535.394531 376.316406 C 529.222656 378.453125 522.824219 379.40625 516.335938 379.640625 C 511.679688 379.808594 507.039062 380.203125 502.347656 379.761719 C 497.410156 379.296875 492.425781 379.445312 487.464844 379.308594 Z M 311.304688 382.390625 C 315.363281 382.828125 319.394531 383.378906 323.476562 383.648438 C 326.429688 383.84375 329.414062 383.792969 332.382812 384.148438 C 335.09375 384.464844 337.867188 384.246094 340.617188 384.246094 C 341.007812 384.246094 341.554688 384.308594 341.628906 383.78125 C 341.703125 383.207031 341.152344 383.230469 340.761719 383.183594 C 339.785156 383.0625 338.796875 382.839844 337.804688 382.851562 C 330.964844 382.949219 324.171875 382.511719 317.367188 381.839844 C 307.933594 380.898438 298.660156 379.261719 289.460938 377.035156 C 285.1875 376.007812 280.984375 374.382812 276.402344 375.300781 C 282.144531 376.5 287.835938 377.964844 293.566406 379.308594 C 299.417969 380.691406 305.34375 381.742188 311.304688 382.390625 Z M 455.6875 377.023438 C 461.871094 375.667969 468.164062 375.300781 474.453125 375.128906 C 477.042969 374.871094 479.585938 375.347656 482.152344 375.484375 C 486.34375 375.691406 490.507812 376.230469 494.675781 376.742188 C 497.214844 377.058594 499.730469 377.648438 502.320312 377.574219 C 502.738281 377.5625 503.410156 377.757812 503.386719 377.046875 C 503.371094 376.558594 502.796875 376.570312 502.394531 376.535156 C 501.296875 376.414062 500.195312 376.316406 499.097656 376.15625 C 493.390625 375.300781 487.660156 374.542969 481.90625 374.128906 C 478.9375 373.90625 475.957031 373.75 472.988281 373.796875 C 469.847656 373.859375 466.695312 374.128906 463.570312 374.445312 C 460.84375 374.726562 458.121094 375.054688 455.46875 375.824219 C 454.96875 375.972656 454.320312 376.21875 454.492188 376.851562 C 454.664062 377.476562 455.261719 377.121094 455.6875 377.023438 Z M 395.8125 374.113281 C 394.015625 373.492188 392.207031 372.671875 389.789062 373.222656 C 391.046875 373.710938 392.0625 373.929688 392.855469 374.46875 C 393.785156 375.09375 394.847656 375.09375 395.824219 375.421875 C 407.175781 379.359375 418.890625 381.191406 430.875 381.410156 C 431.769531 381.421875 433.34375 381.996094 433.40625 380.8125 C 433.453125 379.921875 431.816406 380.019531 430.863281 380.066406 C 426.234375 380.300781 421.628906 379.808594 417.070312 379.199219 C 409.851562 378.222656 402.738281 376.511719 395.8125 374.113281 Z M 499.207031 385.6875 C 498.449219 385.652344 497.070312 385.164062 497.007812 386.226562 C 496.957031 387.007812 498.414062 387.058594 499.230469 387.03125 C 503.445312 386.875 507.625 387.742188 511.535156 387.398438 C 516.101562 387.570312 520.367188 387.265625 524.582031 386.679688 C 529.796875 385.957031 534.929688 384.820312 539.839844 382.851562 C 540.328125 382.65625 541.222656 382.5 540.976562 381.789062 C 540.734375 381.105469 539.964844 381.496094 539.4375 381.691406 C 530.421875 385.152344 521.003906 386.191406 511.449219 386.335938 C 507.34375 386.398438 503.273438 385.882812 499.207031 385.6875 Z M 487.210938 384.269531 C 484.472656 384.210938 481.734375 384.160156 479 383.941406 C 473.257812 383.488281 467.453125 383.84375 461.75 382.730469 C 461.332031 382.644531 460.882812 382.546875 460.734375 383.085938 C 460.613281 383.574219 461.027344 383.820312 461.40625 383.964844 C 461.722656 384.101562 462.078125 384.199219 462.421875 384.234375 C 470.421875 385.054688 478.488281 384.957031 486.34375 385.664062 C 486.734375 385.664062 486.976562 385.699219 487.210938 385.664062 C 487.832031 385.566406 488.859375 385.96875 488.808594 384.894531 C 488.761719 384.015625 487.808594 384.285156 487.210938 384.269531 Z M 355.753906 384.613281 C 358.464844 385.054688 361.203125 384.957031 363.9375 384.957031 C 365.855469 384.957031 367.785156 384.96875 369.703125 384.941406 C 370.179688 384.929688 370.9375 385.125 370.9375 384.382812 C 370.9375 383.792969 370.242188 383.90625 369.789062 383.890625 C 365.136719 383.769531 360.480469 383.636719 355.824219 383.550781 C 355.324219 383.539062 354.445312 383.195312 354.433594 384.0625 C 354.445312 384.6875 355.25 384.527344 355.753906 384.613281 Z M 355.753906 384.613281 " fill-opacity="1" fill-rule="nonzero"/></svg>