<svg xmlns="http://www.w3.org/2000/svg" xmlns:xlink="http://www.w3.org/1999/xlink" width="1366" zoomAndPan="magnify" viewBox="0 0 1024.5 576" height="768" preserveAspectRatio="xMidYMid meet" version="1.0"><defs><clipPath id="3164944108"><path d="M 345.351562 185 L 631.101562 185 L 631.101562 200 L 345.351562 200 Z M 345.351562 185 " clip-rule="nonzero"/></clipPath><clipPath id="4d54dda209"><path d="M 362 97.265625 L 617 97.265625 L 617 397 L 362 397 Z M 362 97.265625 " clip-rule="nonzero"/></clipPath></defs><g clip-path="url(#3164944108)"><path fill="#d4a373" d="M 623.433594 198.320312 C 622.941406 198.417969 622.445312 198.488281 621.953125 198.535156 C 615.03125 199.203125 607.292969 198.464844 600.300781 198.414062 C 585.644531 198.308594 570.988281 198.089844 556.332031 198.089844 C 510.617188 197.746094 465.226562 198.117188 419.511719 197.65625 C 404.511719 197.5 390.570312 198.097656 375.585938 198.820312 C 367.816406 199.199219 345.496094 201.957031 345.496094 191.878906 C 345.496094 187.234375 351.273438 186.136719 356.699219 185.984375 C 364.847656 185.75 373.101562 186.277344 381.253906 186.363281 C 401.203125 186.578125 421.152344 186.429688 441.09375 186.175781 C 480.96875 185.664062 520.847656 184.738281 560.734375 185.457031 C 572.097656 185.660156 583.460938 186 594.8125 186.519531 C 599.734375 186.742188 619.332031 186.21875 624.128906 186.28125 C 628.25 186.335938 631.414062 188.90625 631.414062 191.878906 C 631.417969 195.070312 627.566406 197.519531 623.433594 198.320312 Z M 623.433594 198.320312 " fill-opacity="1" fill-rule="nonzero"/></g><g clip-path="url(#4d54dda209)"><path fill="#faedcd" d="M 614.828125 250.207031 C 614.65625 244.046875 615.382812 237.996094 614.78125 231.914062 C 614.078125 224.789062 613.371094 217.664062 612.671875 210.542969 C 612.449219 208.324219 612.101562 205.855469 610.367188 204.453125 C 608.980469 203.339844 607.074219 203.207031 605.292969 203.15625 C 605.175781 203.152344 605.054688 203.15625 604.941406 203.15625 C 604.769531 202.101562 604.601562 201.050781 604.433594 200 C 605.082031 199.75 605.570312 199.125 605.554688 198.40625 C 605.472656 195.261719 605.398438 192.121094 605.320312 188.976562 C 605.464844 188.601562 605.476562 188.199219 605.292969 187.804688 C 605.277344 187.285156 605.265625 186.757812 605.253906 186.238281 C 605.230469 185.308594 604.476562 184.515625 603.53125 184.515625 C 603.105469 184.515625 602.714844 184.695312 602.402344 184.964844 C 568.394531 153.132812 530.296875 126.070312 492.976562 98.339844 C 492.949219 98.316406 492.917969 98.296875 492.890625 98.273438 C 492.878906 98.265625 492.867188 98.261719 492.855469 98.25 C 492.839844 98.238281 492.820312 98.238281 492.800781 98.222656 C 492.652344 98.125 492.496094 98.046875 492.324219 98.003906 C 491.828125 97.855469 491.359375 98 491.011719 98.324219 C 450.949219 125.777344 412.957031 156.101562 372.984375 183.675781 C 372.277344 183.691406 371.707031 184.132812 371.457031 184.742188 C 371.441406 184.75 371.425781 184.761719 371.410156 184.773438 C 371.101562 184.253906 370.519531 183.875 369.921875 183.875 C 368.941406 183.875 368.269531 184.667969 368.203125 185.601562 C 367.867188 190.378906 368.113281 195.160156 368.859375 199.894531 C 369 200.777344 370.074219 201.269531 370.886719 201.101562 C 370.886719 201.976562 370.882812 202.859375 370.878906 203.734375 C 370.617188 203.761719 370.355469 203.773438 370.101562 203.800781 C 364.117188 204.449219 364.761719 206.792969 364.679688 212.457031 C 364.582031 218.988281 364.472656 225.527344 364.367188 232.058594 C 364.160156 244.953125 363.957031 257.839844 363.75 270.734375 C 363.75 294.175781 363 317.648438 362.628906 341.082031 C 362.535156 346.929688 362.242188 352.804688 362.164062 358.675781 C 362.074219 365.113281 362.246094 371.539062 363.234375 377.910156 C 363.621094 380.398438 364.136719 382.964844 365.613281 385.011719 C 367.382812 387.472656 370.289062 388.84375 373.164062 389.800781 C 380.359375 392.195312 388.042969 392.617188 395.617188 393.007812 C 418.804688 394.21875 441.929688 395.417969 465.15625 395.542969 C 480.910156 395.632812 496.664062 395.550781 512.40625 396.285156 C 542.585938 397.703125 572.921875 395.820312 602.683594 390.675781 C 607.011719 389.925781 611.734375 388.867188 614.359375 385.402344 C 616.613281 382.414062 616.707031 378.402344 616.703125 374.679688 C 616.613281 333.183594 615.996094 291.6875 614.828125 250.207031 Z M 484.667969 192.589844 C 484.675781 193.726562 484.679688 194.867188 484.691406 196.003906 C 484.59375 195.988281 484.503906 195.941406 484.40625 195.949219 C 484.34375 195.953125 484.296875 195.980469 484.238281 195.984375 C 484.402344 194.855469 484.578125 193.726562 484.667969 192.589844 Z M 512.5 192.796875 C 512.476562 192.234375 512.441406 191.679688 512.429688 191.121094 C 512.449219 191.679688 512.472656 192.234375 512.5 192.796875 Z M 585.078125 203.304688 C 582.109375 203.3125 579.144531 203.363281 576.175781 203.386719 C 575.980469 202.242188 575.78125 201.105469 575.585938 199.964844 C 575.601562 199.964844 575.617188 199.972656 575.636719 199.972656 C 576.53125 199.972656 577.402344 199.183594 577.355469 198.25 C 577.152344 193.964844 576.949219 189.675781 576.746094 185.390625 C 576.699219 184.460938 575.984375 183.664062 575.023438 183.664062 C 574.410156 183.664062 573.832031 184.046875 573.527344 184.574219 C 573.222656 184.164062 572.757812 183.875 572.199219 183.875 C 571.570312 183.875 570.988281 184.265625 570.695312 184.808594 C 570.40625 184.265625 569.90625 183.871094 569.222656 183.871094 C 568.359375 183.871094 567.40625 184.660156 567.496094 185.589844 C 567.949219 190.1875 568.390625 194.785156 568.839844 199.382812 C 568.921875 200.238281 569.429688 200.96875 570.332031 201.078125 C 570.433594 201.085938 570.527344 201.015625 570.628906 201.007812 C 570.691406 201.8125 570.75 202.621094 570.8125 203.425781 C 568.382812 203.457031 565.953125 203.460938 563.523438 203.492188 C 557.496094 203.578125 551.464844 203.722656 545.4375 203.84375 C 545.394531 203.652344 545.359375 203.460938 545.328125 203.269531 C 545.304688 203.121094 545.28125 202.976562 545.257812 202.824219 C 545.246094 202.773438 545.246094 202.773438 545.246094 202.746094 C 545.238281 202.703125 545.234375 202.660156 545.230469 202.617188 C 545.117188 201.640625 545.125 200.65625 545.128906 199.671875 C 545.363281 199.59375 545.601562 199.519531 545.773438 199.316406 C 545.882812 199.1875 545.988281 199.0625 546.089844 198.933594 C 546.582031 198.34375 546.710938 197.550781 546.363281 196.898438 C 546.628906 192.953125 546.882812 189.015625 547.152344 185.070312 C 547.214844 184.140625 546.316406 183.34375 545.429688 183.34375 C 544.445312 183.34375 543.773438 184.136719 543.710938 185.070312 C 543.675781 185.53125 543.644531 185.992188 543.617188 186.453125 C 543.617188 185.878906 543.621094 185.3125 543.625 184.742188 C 543.632812 182.847656 541.140625 182.589844 540.398438 183.925781 C 539.953125 182.136719 536.992188 182.242188 537.042969 184.3125 C 537.164062 188.875 537.519531 193.425781 538.09375 197.949219 C 538.203125 198.871094 538.796875 199.671875 539.8125 199.671875 C 539.871094 199.671875 539.933594 199.640625 539.992188 199.636719 C 539.964844 201.058594 539.941406 202.480469 539.914062 203.90625 C 536.214844 203.96875 532.507812 204.046875 528.804688 204.042969 C 524.96875 204.039062 521.132812 204.027344 517.292969 204.023438 C 517.152344 202.953125 517.003906 201.875 516.859375 200.800781 C 517.109375 200.726562 517.363281 200.640625 517.546875 200.414062 C 517.640625 200.308594 517.730469 200.199219 517.820312 200.09375 C 518.304688 199.515625 518.4375 198.742188 518.109375 198.09375 C 518.300781 194.074219 518.484375 190.050781 518.675781 186.023438 C 518.71875 185.097656 517.851562 184.304688 516.953125 184.304688 C 516.371094 184.304688 515.898438 184.605469 515.59375 185.039062 C 515.46875 183.34375 513.273438 183.074219 512.476562 184.230469 C 512.351562 183.441406 511.601562 182.808594 510.8125 182.808594 C 509.832031 182.808594 509.148438 183.59375 509.09375 184.53125 C 508.800781 189.332031 508.949219 194.144531 509.53125 198.910156 C 509.636719 199.773438 510.183594 200.5 511.074219 200.59375 C 511.035156 201.734375 511.003906 202.878906 510.972656 204.015625 C 502.976562 204 494.980469 203.992188 486.992188 203.976562 C 486.789062 203.214844 486.527344 202.46875 486.394531 201.683594 C 486.367188 201.523438 486.34375 201.367188 486.320312 201.207031 C 486.320312 201.199219 486.320312 201.199219 486.320312 201.179688 C 487.105469 201.28125 487.921875 200.929688 488.109375 199.96875 C 488.144531 199.789062 488.179688 199.617188 488.214844 199.441406 C 488.238281 199.324219 488.164062 199.222656 488.167969 199.101562 C 488.128906 194.207031 488.097656 189.316406 488.066406 184.425781 C 488.050781 182.308594 484.945312 182.234375 484.671875 184.160156 C 484.417969 183.507812 483.847656 183.023438 483.085938 183.023438 C 482.199219 183.023438 481.308594 183.808594 481.367188 184.746094 C 481.375 184.949219 481.355469 185.144531 481.367188 185.34375 C 481.183594 184.582031 480.535156 183.980469 479.71875 183.980469 C 478.796875 183.980469 477.980469 184.769531 477.996094 185.707031 C 478.054688 189.882812 478.117188 194.054688 478.175781 198.222656 C 478.191406 199.15625 478.957031 199.949219 479.898438 199.949219 C 480.351562 199.949219 480.71875 199.773438 481.003906 199.507812 C 480.921875 201 480.851562 202.484375 480.777344 203.972656 C 472.785156 203.964844 464.785156 203.949219 456.789062 203.9375 C 456.777344 203.839844 456.753906 203.738281 456.738281 203.640625 C 456.714844 203.488281 456.691406 203.339844 456.675781 203.183594 C 456.664062 203.125 456.664062 203.132812 456.660156 203.105469 C 456.660156 203.078125 456.660156 203.085938 456.652344 203.027344 C 456.609375 202.695312 456.570312 202.359375 456.539062 202.027344 C 456.492188 201.605469 456.496094 201.179688 456.464844 200.753906 C 457.078125 200.632812 457.640625 200.292969 457.808594 199.644531 C 457.847656 199.472656 457.894531 199.296875 457.9375 199.125 C 458.058594 198.652344 457.96875 198.257812 457.792969 197.921875 C 457.554688 193.917969 457.316406 189.914062 457.085938 185.914062 C 457.027344 184.984375 456.332031 184.1875 455.363281 184.1875 C 455.039062 184.1875 454.730469 184.316406 454.449219 184.5 C 453.722656 183.535156 451.988281 183.628906 451.484375 184.8125 C 450.582031 183.820312 448.472656 184.171875 448.460938 185.914062 C 448.421875 190.519531 448.386719 195.128906 448.347656 199.730469 C 448.339844 200.90625 449.410156 201.484375 450.382812 201.324219 C 450.320312 202.191406 450.261719 203.054688 450.199219 203.921875 C 450.121094 203.921875 450.046875 203.921875 449.964844 203.921875 C 443.550781 203.914062 437.136719 203.902344 430.722656 203.894531 C 430.589844 202.628906 430.449219 201.367188 430.3125 200.101562 C 431.335938 200.621094 432.882812 200.160156 432.871094 198.660156 C 432.847656 194.304688 432.824219 189.945312 432.800781 185.589844 C 432.792969 183.703125 430.308594 183.4375 429.578125 184.765625 C 429.285156 184.25 428.785156 183.871094 428.121094 183.871094 C 427.246094 183.871094 426.332031 184.660156 426.402344 185.589844 C 426.597656 188.277344 426.574219 190.96875 426.449219 193.652344 C 426.335938 191.140625 426.226562 188.632812 426.109375 186.121094 C 426.066406 185.191406 425.34375 184.398438 424.386719 184.398438 C 423.488281 184.398438 422.625 185.183594 422.664062 186.121094 C 422.851562 190.261719 423.035156 194.398438 423.222656 198.539062 C 423.257812 199.300781 423.734375 199.996094 424.488281 200.199219 C 425.140625 200.382812 425.675781 200.09375 426.121094 199.667969 C 426.15625 201.074219 426.191406 202.476562 426.226562 203.878906 C 420.816406 203.871094 415.410156 203.867188 410.003906 203.855469 C 407.117188 203.851562 404.179688 203.773438 401.226562 203.675781 C 401.164062 202.425781 401.101562 201.175781 401.039062 199.925781 C 401.695312 200.042969 402.429688 199.832031 402.878906 199.179688 C 402.964844 199.0625 403.042969 198.945312 403.121094 198.828125 C 403.476562 198.316406 403.398438 197.644531 403.089844 197.113281 C 403.015625 193.378906 402.945312 189.640625 402.871094 185.902344 C 402.851562 184.972656 402.09375 184.179688 401.144531 184.179688 C 400.527344 184.179688 399.976562 184.550781 399.671875 185.070312 C 399.136719 184.160156 397.808594 184.003906 397.035156 184.628906 C 396.722656 184.242188 396.269531 183.96875 395.730469 183.96875 C 394.824219 183.96875 393.972656 184.757812 394.003906 185.695312 C 394.171875 190.039062 394.34375 194.390625 394.511719 198.738281 C 394.550781 199.667969 395.28125 200.460938 396.238281 200.460938 C 396.261719 200.460938 396.273438 200.449219 396.296875 200.449219 C 396.359375 201.46875 396.417969 202.492188 396.484375 203.507812 C 389.558594 203.253906 382.570312 203.015625 375.769531 203.363281 C 375.753906 202.796875 375.742188 202.238281 375.726562 201.675781 C 375.894531 201.730469 376.0625 201.78125 376.238281 201.78125 C 377.242188 201.78125 377.875 200.988281 377.960938 200.0625 C 377.980469 199.875 377.992188 199.691406 378.011719 199.507812 C 378.023438 199.34375 377.980469 199.195312 377.933594 199.039062 C 377.984375 194.386719 377.628906 189.742188 376.847656 185.152344 C 415.777344 158.167969 452.902344 128.667969 491.957031 101.847656 C 527.78125 128.453125 564.261719 154.492188 597.117188 184.785156 C 596.964844 185.023438 596.855469 185.296875 596.851562 185.652344 C 596.789062 190.148438 596.734375 194.648438 596.671875 199.148438 C 596.65625 200.601562 598.121094 201.082031 599.144531 200.625 C 599.011719 201.460938 598.980469 202.304688 599.035156 203.15625 C 594.378906 203.191406 589.714844 203.296875 585.078125 203.304688 Z M 585.078125 203.304688 " fill-opacity="1" fill-rule="nonzero"/></g><path fill="#e1bc91" d="M 369.320312 309.84375 C 372.390625 312.101562 376.429688 312.660156 380.128906 311.800781 C 378.117188 317.128906 379.8125 323.816406 384.445312 327.230469 C 387.441406 329.433594 391.371094 330.019531 394.996094 329.242188 C 393.757812 334.289062 395.507812 340.121094 399.734375 343.234375 C 403.035156 345.664062 407.472656 346.167969 411.378906 345.003906 C 409.914062 350.148438 411.628906 356.234375 415.980469 359.441406 C 421.359375 363.40625 429.796875 362.292969 433.96875 357.070312 C 435.96875 354.566406 436.832031 350.8125 436.542969 347.164062 C 440.921875 349.488281 446.664062 349.371094 450.699219 346.398438 C 455.953125 342.527344 457.414062 334.453125 453.988281 328.921875 C 458.46875 332.578125 465.515625 332.996094 470.226562 329.527344 C 475.605469 325.566406 477.050781 317.175781 473.300781 311.640625 C 473.179688 311.457031 473 311.308594 472.859375 311.132812 C 477.042969 312.835938 482.097656 312.539062 485.761719 309.839844 C 487.40625 308.628906 488.632812 306.980469 489.503906 305.148438 C 490.382812 306.980469 491.601562 308.628906 493.25 309.839844 C 496.316406 312.097656 500.363281 312.65625 504.054688 311.792969 C 502.050781 317.125 503.742188 323.8125 508.375 327.222656 C 511.371094 329.429688 515.296875 330.011719 518.929688 329.238281 C 517.683594 334.285156 519.433594 340.117188 523.664062 343.226562 C 526.960938 345.65625 531.398438 346.160156 535.304688 345 C 533.839844 350.144531 535.5625 356.230469 539.910156 359.4375 C 545.289062 363.402344 553.726562 362.285156 557.894531 357.0625 C 559.894531 354.558594 560.757812 350.804688 560.46875 347.160156 C 564.847656 349.480469 570.597656 349.363281 574.625 346.394531 C 579.882812 342.523438 581.335938 334.449219 577.914062 328.917969 C 582.398438 332.574219 589.449219 332.992188 594.152344 329.523438 C 599.53125 325.558594 600.972656 317.171875 597.222656 311.636719 C 597.101562 311.453125 596.921875 311.304688 596.78125 311.128906 C 600.960938 312.828125 606.019531 312.535156 609.683594 309.835938 C 615.0625 305.871094 616.507812 297.484375 612.753906 291.953125 C 610.289062 288.304688 605.128906 286.101562 600.308594 286.203125 C 604.601562 281.929688 605.554688 274.527344 602.132812 269.46875 C 599.003906 264.855469 591.578125 262.492188 585.984375 264.285156 C 586.820312 260.757812 586.363281 256.914062 584.324219 253.90625 C 580.9375 248.90625 572.527344 246.574219 566.84375 249.304688 C 566.984375 244.839844 565.421875 240.191406 561.96875 237.847656 C 556.359375 234.042969 546.832031 236.40625 543.183594 241.792969 C 541.621094 244.097656 541.011719 246.898438 541.160156 249.667969 C 535.496094 246.355469 526.480469 248.6875 522.945312 253.90625 C 520.597656 257.371094 520.289062 261.960938 521.707031 265.871094 C 516.085938 263.917969 508.46875 266.304688 505.292969 270.988281 C 502.117188 275.671875 502.703125 282.382812 506.210938 286.742188 C 500.632812 285.003906 493.277344 287.363281 490.171875 291.949219 C 489.902344 292.34375 489.71875 292.78125 489.5 293.210938 C 489.285156 292.789062 489.097656 292.34375 488.828125 291.949219 C 486.359375 288.300781 481.203125 286.09375 476.382812 286.199219 C 480.675781 281.925781 481.628906 274.523438 478.199219 269.460938 C 475.078125 264.851562 467.652344 262.484375 462.058594 264.28125 C 462.886719 260.757812 462.4375 256.910156 460.394531 253.902344 C 457.007812 248.902344 448.59375 246.570312 442.914062 249.300781 C 443.058594 244.835938 441.496094 240.1875 438.042969 237.839844 C 432.433594 234.035156 422.902344 236.402344 419.257812 241.785156 C 417.695312 244.09375 417.082031 246.894531 417.234375 249.664062 C 411.570312 246.351562 402.554688 248.683594 399.019531 253.902344 C 396.675781 257.367188 396.363281 261.953125 397.78125 265.867188 C 392.160156 263.914062 384.542969 266.300781 381.371094 270.984375 C 378.199219 275.667969 378.78125 282.378906 382.289062 286.738281 C 376.707031 285 369.355469 287.359375 366.246094 291.941406 C 362.503906 297.492188 363.941406 305.882812 369.320312 309.84375 Z M 526.359375 286.515625 C 529.019531 283.175781 529.667969 277.636719 528.234375 273.078125 C 533.5 275.40625 540.371094 273.980469 544.003906 269.429688 C 545.9375 267.003906 546.789062 263.414062 546.585938 259.882812 C 550.6875 262.695312 556.378906 262.699219 560.675781 260.28125 C 560.558594 263.679688 561.398438 267.097656 563.265625 269.429688 C 566.84375 273.914062 573.566406 275.34375 578.800781 273.15625 C 577.957031 277.355469 578.707031 282.039062 581.066406 284.992188 C 583.671875 288.253906 587.9375 289.910156 592.085938 289.734375 C 588.179688 294.335938 588.117188 302.664062 591.539062 307.222656 C 587.292969 305.386719 582.054688 305.246094 578.433594 307.703125 C 572.925781 311.441406 572.179688 320.988281 575.648438 326.332031 C 571.234375 322.589844 563.667969 321.339844 558.90625 324.574219 C 555.242188 327.0625 553.675781 332.136719 554.046875 336.824219 C 550.929688 335.4375 547.082031 335.519531 543.65625 336.710938 C 545.175781 331.355469 543.847656 324.449219 539.363281 321.410156 C 536.371094 319.375 532.285156 319.144531 528.550781 320.144531 C 529.816406 314.882812 528.40625 308.339844 524.078125 305.40625 C 521 303.3125 516.75 303.136719 512.925781 304.25 C 514.515625 299.859375 514.019531 294.167969 511.289062 290.40625 C 516.460938 292.316406 522.882812 290.871094 526.359375 286.515625 Z M 402.433594 286.515625 C 405.097656 283.175781 405.742188 277.636719 404.308594 273.078125 C 409.574219 275.40625 416.445312 273.980469 420.082031 269.429688 C 422.015625 267.003906 422.867188 263.414062 422.660156 259.882812 C 426.757812 262.695312 432.449219 262.699219 436.75 260.28125 C 436.632812 263.679688 437.472656 267.097656 439.332031 269.429688 C 442.917969 273.914062 449.636719 275.34375 454.871094 273.15625 C 454.027344 277.355469 454.777344 282.039062 457.136719 284.992188 C 459.742188 288.253906 464.007812 289.910156 468.15625 289.734375 C 464.253906 294.335938 464.1875 302.664062 467.613281 307.222656 C 463.363281 305.386719 458.128906 305.246094 454.507812 307.703125 C 449 311.441406 448.253906 320.988281 451.722656 326.332031 C 447.308594 322.589844 439.742188 321.339844 434.980469 324.574219 C 431.316406 327.0625 429.75 332.136719 430.121094 336.824219 C 427.003906 335.4375 423.15625 335.519531 419.726562 336.710938 C 421.246094 331.355469 419.921875 324.449219 415.4375 321.410156 C 412.445312 319.375 408.351562 319.144531 404.625 320.144531 C 405.890625 314.882812 404.476562 308.339844 400.152344 305.40625 C 397.066406 303.3125 392.820312 303.136719 388.992188 304.25 C 390.582031 299.859375 390.09375 294.167969 387.363281 290.40625 C 392.535156 292.316406 398.957031 290.871094 402.433594 286.515625 Z M 402.433594 286.515625 " fill-opacity="1" fill-rule="nonzero"/><path fill="#e1bc91" d="M 368.660156 226.15625 C 368.808594 226.15625 369.246094 226.636719 369.398438 226.734375 C 369.667969 226.914062 369.960938 227.070312 370.28125 227.128906 C 370.785156 227.226562 371.308594 227.171875 371.671875 226.808594 C 372.796875 225.695312 373.792969 224.40625 374.835938 223.222656 C 375.03125 223.003906 375.207031 222.761719 375.335938 222.503906 C 375.546875 222.910156 375.851562 223.285156 376.207031 223.589844 C 377.195312 224.445312 378.183594 225.300781 379.175781 226.15625 C 379.324219 226.15625 379.765625 226.636719 379.914062 226.734375 C 380.183594 226.914062 380.476562 227.070312 380.800781 227.128906 C 381.300781 227.226562 381.824219 227.171875 382.1875 226.808594 C 383.3125 225.695312 384.308594 224.40625 385.351562 223.222656 C 385.480469 223.082031 385.59375 222.929688 385.707031 222.773438 C 385.820312 222.929688 385.9375 223.082031 386.0625 223.222656 C 387.109375 224.40625 388.101562 225.695312 389.226562 226.808594 C 389.589844 227.171875 390.113281 227.226562 390.617188 227.128906 C 390.9375 227.070312 391.230469 226.910156 391.5 226.734375 C 391.644531 226.636719 392.085938 226.15625 392.238281 226.15625 C 393.226562 225.300781 394.214844 224.445312 395.207031 223.589844 C 395.5625 223.285156 395.871094 222.910156 396.078125 222.503906 C 396.214844 222.761719 396.386719 223.003906 396.578125 223.222656 C 397.625 224.40625 398.621094 225.695312 399.742188 226.808594 C 400.105469 227.171875 400.628906 227.226562 401.132812 227.128906 C 401.453125 227.070312 401.746094 226.910156 402.019531 226.734375 C 402.164062 226.636719 402.601562 226.15625 402.753906 226.15625 C 403.742188 225.300781 404.730469 224.445312 405.71875 223.589844 C 405.984375 223.367188 406.25 223.109375 406.460938 222.832031 C 406.671875 223.109375 406.941406 223.363281 407.203125 223.589844 C 408.191406 224.445312 409.179688 225.300781 410.171875 226.15625 C 410.320312 226.15625 410.757812 226.636719 410.90625 226.734375 C 411.179688 226.914062 411.472656 227.070312 411.792969 227.128906 C 412.296875 227.226562 412.820312 227.171875 413.183594 226.808594 C 414.304688 225.695312 415.304688 224.40625 416.347656 223.222656 C 416.542969 223.003906 416.714844 222.761719 416.851562 222.507812 C 417.0625 222.914062 417.367188 223.289062 417.722656 223.589844 C 418.710938 224.445312 419.699219 225.300781 420.691406 226.15625 C 420.839844 226.15625 421.28125 226.636719 421.425781 226.734375 C 421.695312 226.914062 421.992188 227.070312 422.308594 227.128906 C 422.8125 227.226562 423.332031 227.171875 423.699219 226.808594 C 424.820312 225.695312 425.816406 224.40625 426.863281 223.222656 C 426.988281 223.082031 427.109375 222.929688 427.222656 222.773438 C 427.335938 222.929688 427.453125 223.082031 427.578125 223.222656 C 428.625 224.40625 429.617188 225.695312 430.742188 226.808594 C 431.105469 227.171875 431.625 227.226562 432.132812 227.128906 C 432.453125 227.070312 432.746094 226.910156 433.015625 226.734375 C 433.160156 226.636719 433.601562 226.15625 433.753906 226.15625 C 434.742188 225.300781 435.730469 224.445312 436.71875 223.589844 C 437.074219 223.285156 437.378906 222.910156 437.59375 222.503906 C 437.730469 222.761719 437.902344 223.003906 438.09375 223.222656 C 439.140625 224.40625 440.136719 225.695312 441.257812 226.808594 C 441.621094 227.171875 442.144531 227.226562 442.648438 227.128906 C 442.964844 227.070312 443.261719 226.910156 443.535156 226.734375 C 443.679688 226.636719 444.117188 226.15625 444.265625 226.15625 C 445.253906 225.300781 446.246094 224.445312 447.234375 223.589844 C 447.445312 223.410156 447.644531 223.195312 447.832031 222.980469 C 448.019531 223.195312 448.21875 223.410156 448.429688 223.589844 C 449.417969 224.445312 450.410156 225.300781 451.398438 226.15625 C 451.546875 226.15625 451.984375 226.636719 452.132812 226.734375 C 452.402344 226.914062 452.699219 227.070312 453.019531 227.128906 C 453.523438 227.226562 454.046875 227.171875 454.410156 226.808594 C 455.53125 225.695312 456.53125 224.40625 457.574219 223.222656 C 457.769531 223.003906 457.941406 222.761719 458.074219 222.503906 C 458.28125 222.910156 458.589844 223.285156 458.945312 223.589844 C 459.933594 224.445312 460.925781 225.300781 461.914062 226.15625 C 462.0625 226.15625 462.5 226.636719 462.644531 226.734375 C 462.921875 226.914062 463.214844 227.070312 463.53125 227.128906 C 464.035156 227.226562 464.558594 227.171875 464.921875 226.808594 C 466.042969 225.695312 467.042969 224.40625 468.085938 223.222656 C 468.210938 223.082031 468.332031 222.929688 468.445312 222.773438 C 468.554688 222.929688 468.671875 223.082031 468.796875 223.222656 C 469.847656 224.40625 470.839844 225.695312 471.964844 226.808594 C 472.328125 227.171875 472.851562 227.226562 473.351562 227.128906 C 473.675781 227.070312 473.96875 226.910156 474.238281 226.734375 C 474.382812 226.636719 474.820312 226.15625 474.976562 226.15625 C 475.964844 225.300781 476.953125 224.445312 477.945312 223.589844 C 478.300781 223.285156 478.605469 222.910156 478.816406 222.503906 C 478.953125 222.761719 479.125 223.003906 479.316406 223.222656 C 480.363281 224.40625 481.355469 225.695312 482.480469 226.808594 C 482.84375 227.171875 483.367188 227.226562 483.871094 227.128906 C 484.191406 227.070312 484.484375 226.910156 484.753906 226.734375 C 484.898438 226.636719 485.335938 226.15625 485.492188 226.15625 C 486.480469 225.300781 487.46875 224.445312 488.460938 223.589844 C 488.722656 223.367188 488.988281 223.109375 489.199219 222.832031 C 489.40625 223.109375 489.675781 223.363281 489.9375 223.589844 C 490.925781 224.445312 491.914062 225.300781 492.90625 226.15625 C 493.058594 226.15625 493.496094 226.636719 493.644531 226.734375 C 493.914062 226.914062 494.207031 227.070312 494.527344 227.128906 C 495.027344 227.226562 495.550781 227.171875 495.914062 226.808594 C 497.039062 225.695312 498.035156 224.40625 499.085938 223.222656 C 499.277344 223.003906 499.449219 222.761719 499.582031 222.503906 C 499.792969 222.910156 500.101562 223.285156 500.460938 223.589844 C 501.449219 224.445312 502.4375 225.300781 503.425781 226.15625 C 503.574219 226.15625 504.015625 226.636719 504.160156 226.734375 C 504.429688 226.914062 504.726562 227.070312 505.042969 227.128906 C 505.546875 227.226562 506.066406 227.171875 506.4375 226.808594 C 507.554688 225.695312 508.550781 224.40625 509.601562 223.222656 C 509.722656 223.082031 509.84375 222.929688 509.957031 222.773438 C 510.0625 222.929688 510.1875 223.082031 510.308594 223.222656 C 511.359375 224.40625 512.351562 225.695312 513.476562 226.808594 C 513.839844 227.171875 514.359375 227.226562 514.863281 227.128906 C 515.183594 227.070312 515.484375 226.910156 515.75 226.734375 C 515.894531 226.636719 516.332031 226.15625 516.480469 226.15625 C 517.472656 225.300781 518.460938 224.445312 519.449219 223.589844 C 519.804688 223.285156 520.117188 222.910156 520.328125 222.503906 C 520.460938 222.761719 520.632812 223.003906 520.824219 223.222656 C 521.875 224.40625 522.867188 225.695312 523.992188 226.808594 C 524.355469 227.171875 524.875 227.226562 525.378906 227.128906 C 525.703125 227.070312 526 226.910156 526.265625 226.734375 C 526.410156 226.636719 526.847656 226.15625 526.996094 226.15625 C 527.992188 225.300781 528.980469 224.445312 529.96875 223.589844 C 530.148438 223.4375 530.308594 223.25 530.476562 223.070312 C 530.636719 223.25 530.800781 223.4375 530.980469 223.589844 C 531.972656 224.445312 532.960938 225.300781 533.949219 226.15625 C 534.097656 226.15625 534.535156 226.636719 534.679688 226.734375 C 534.953125 226.914062 535.25 227.070312 535.566406 227.128906 C 536.070312 227.226562 536.589844 227.171875 536.953125 226.808594 C 538.078125 225.695312 539.070312 224.40625 540.121094 223.222656 C 540.316406 223.003906 540.488281 222.761719 540.625 222.503906 C 540.832031 222.910156 541.136719 223.285156 541.496094 223.589844 C 542.488281 224.445312 543.476562 225.300781 544.464844 226.15625 C 544.613281 226.15625 545.050781 226.636719 545.195312 226.734375 C 545.472656 226.914062 545.765625 227.070312 546.082031 227.128906 C 546.585938 227.226562 547.105469 227.171875 547.472656 226.808594 C 548.59375 225.695312 549.585938 224.40625 550.636719 223.222656 C 550.761719 223.082031 550.882812 222.929688 550.992188 222.773438 C 551.101562 222.929688 551.222656 223.082031 551.347656 223.222656 C 552.398438 224.40625 553.390625 225.695312 554.515625 226.808594 C 554.878906 227.171875 555.394531 227.226562 555.902344 227.128906 C 556.21875 227.070312 556.519531 226.910156 556.789062 226.734375 C 556.933594 226.636719 557.371094 226.15625 557.519531 226.15625 C 558.507812 225.300781 559.503906 224.445312 560.492188 223.589844 C 560.84375 223.285156 561.152344 222.910156 561.367188 222.503906 C 561.496094 222.761719 561.671875 223.003906 561.867188 223.222656 C 562.914062 224.40625 563.90625 225.695312 565.03125 226.808594 C 565.394531 227.171875 565.910156 227.226562 566.421875 227.128906 C 566.742188 227.070312 567.035156 226.910156 567.304688 226.734375 C 567.449219 226.636719 567.886719 226.15625 568.039062 226.15625 C 569.027344 225.300781 570.019531 224.445312 571.007812 223.589844 C 571.269531 223.367188 571.535156 223.109375 571.742188 222.832031 C 571.953125 223.109375 572.222656 223.363281 572.484375 223.589844 C 573.472656 224.445312 574.460938 225.300781 575.453125 226.15625 C 575.597656 226.15625 576.042969 226.636719 576.1875 226.734375 C 576.457031 226.914062 576.75 227.070312 577.066406 227.128906 C 577.570312 227.226562 578.09375 227.171875 578.457031 226.808594 C 579.578125 225.695312 580.578125 224.40625 581.625 223.222656 C 581.816406 223.003906 581.988281 222.761719 582.125 222.503906 C 582.335938 222.910156 582.640625 223.285156 583 223.589844 C 583.988281 224.445312 584.976562 225.300781 585.96875 226.15625 C 586.121094 226.15625 586.558594 226.636719 586.703125 226.734375 C 586.972656 226.914062 587.265625 227.070312 587.582031 227.128906 C 588.085938 227.226562 588.609375 227.171875 588.976562 226.808594 C 590.097656 225.695312 591.09375 224.40625 592.140625 223.222656 C 592.261719 223.082031 592.390625 222.929688 592.496094 222.773438 C 592.605469 222.929688 592.730469 223.082031 592.851562 223.222656 C 593.898438 224.40625 594.890625 225.695312 596.015625 226.808594 C 596.382812 227.171875 596.902344 227.226562 597.40625 227.128906 C 597.726562 227.070312 598.023438 226.910156 598.289062 226.734375 C 598.433594 226.636719 598.875 226.15625 599.023438 226.15625 C 600.015625 225.300781 601.003906 224.445312 601.992188 223.589844 C 602.347656 223.285156 602.660156 222.910156 602.867188 222.503906 C 603.003906 222.761719 603.175781 223.003906 603.367188 223.222656 C 604.414062 224.40625 605.410156 225.695312 606.53125 226.808594 C 606.894531 227.171875 607.417969 227.226562 607.921875 227.128906 C 608.242188 227.070312 608.542969 226.910156 608.808594 226.734375 C 608.953125 226.636719 609.390625 226.15625 609.539062 226.15625 C 610.53125 225.300781 611.519531 224.445312 612.507812 223.589844 C 613.054688 223.121094 613.644531 222.542969 613.617188 221.824219 C 613.59375 221.292969 613.183594 220.695312 612.773438 220.207031 C 612.617188 220.015625 612.457031 219.84375 612.316406 219.699219 C 611.523438 218.851562 610.738281 218.007812 609.949219 217.164062 C 609.613281 216.800781 609.234375 216.421875 608.746094 216.359375 C 608.289062 216.300781 607.855469 216.539062 607.464844 216.78125 C 605.898438 217.765625 604.492188 219.015625 603.328125 220.460938 C 603.160156 220.671875 603 220.910156 602.867188 221.152344 C 602.710938 220.824219 602.496094 220.5 602.253906 220.210938 C 602.09375 220.019531 601.9375 219.847656 601.796875 219.703125 C 601.007812 218.859375 600.214844 218.015625 599.429688 217.167969 C 599.09375 216.804688 598.714844 216.429688 598.226562 216.363281 C 597.769531 216.308594 597.335938 216.546875 596.945312 216.789062 C 595.378906 217.769531 593.96875 219.019531 592.808594 220.464844 C 592.691406 220.617188 592.589844 220.789062 592.488281 220.957031 C 592.382812 220.789062 592.28125 220.617188 592.164062 220.464844 C 591 219.019531 589.597656 217.769531 588.03125 216.789062 C 587.640625 216.546875 587.199219 216.308594 586.75 216.363281 C 586.265625 216.429688 585.882812 216.804688 585.546875 217.167969 C 584.757812 218.015625 583.964844 218.859375 583.179688 219.703125 C 583.042969 219.847656 582.882812 220.019531 582.722656 220.210938 C 582.480469 220.5 582.265625 220.824219 582.101562 221.152344 C 581.980469 220.910156 581.8125 220.671875 581.644531 220.460938 C 580.484375 219.015625 579.074219 217.765625 577.507812 216.78125 C 577.117188 216.539062 576.679688 216.300781 576.226562 216.359375 C 575.742188 216.421875 575.359375 216.800781 575.023438 217.164062 C 574.238281 218.007812 573.445312 218.851562 572.65625 219.699219 C 572.523438 219.84375 572.363281 220.015625 572.199219 220.207031 C 572.027344 220.40625 571.875 220.632812 571.722656 220.867188 C 571.585938 220.640625 571.425781 220.410156 571.253906 220.207031 C 571.089844 220.015625 570.933594 219.84375 570.792969 219.699219 C 570.003906 218.851562 569.214844 218.007812 568.429688 217.164062 C 568.09375 216.800781 567.714844 216.421875 567.222656 216.359375 C 566.765625 216.300781 566.332031 216.539062 565.945312 216.78125 C 564.375 217.765625 562.96875 219.015625 561.808594 220.460938 C 561.636719 220.671875 561.480469 220.910156 561.347656 221.152344 C 561.191406 220.824219 560.976562 220.5 560.734375 220.210938 C 560.570312 220.019531 560.410156 219.847656 560.269531 219.703125 C 559.484375 218.859375 558.695312 218.015625 557.90625 217.167969 C 557.570312 216.804688 557.195312 216.429688 556.699219 216.363281 C 556.242188 216.308594 555.808594 216.546875 555.421875 216.789062 C 553.851562 217.769531 552.449219 219.019531 551.289062 220.464844 C 551.167969 220.617188 551.066406 220.789062 550.96875 220.957031 C 550.863281 220.789062 550.761719 220.617188 550.640625 220.464844 C 549.480469 219.019531 548.078125 217.769531 546.503906 216.789062 C 546.117188 216.546875 545.679688 216.308594 545.230469 216.363281 C 544.738281 216.429688 544.355469 216.804688 544.027344 217.167969 C 543.234375 218.015625 542.445312 218.859375 541.65625 219.703125 C 541.523438 219.847656 541.363281 220.019531 541.199219 220.210938 C 540.953125 220.5 540.746094 220.824219 540.582031 221.152344 C 540.460938 220.910156 540.292969 220.671875 540.121094 220.460938 C 538.957031 219.015625 537.554688 217.765625 535.984375 216.78125 C 535.597656 216.539062 535.160156 216.300781 534.707031 216.359375 C 534.21875 216.421875 533.835938 216.800781 533.503906 217.164062 C 532.710938 218.007812 531.925781 218.851562 531.136719 219.699219 C 531 219.84375 530.84375 220.015625 530.675781 220.207031 C 530.585938 220.308594 530.523438 220.429688 530.4375 220.542969 C 530.347656 220.429688 530.285156 220.308594 530.195312 220.207031 C 530.035156 220.015625 529.878906 219.84375 529.738281 219.699219 C 528.945312 218.851562 528.160156 218.007812 527.371094 217.164062 C 527.035156 216.800781 526.65625 216.421875 526.167969 216.359375 C 525.707031 216.300781 525.277344 216.539062 524.886719 216.78125 C 523.316406 217.765625 521.910156 219.015625 520.75 220.460938 C 520.582031 220.671875 520.421875 220.910156 520.289062 221.152344 C 520.132812 220.824219 519.917969 220.5 519.675781 220.210938 C 519.515625 220.019531 519.355469 219.847656 519.21875 219.703125 C 518.425781 218.859375 517.636719 218.015625 516.847656 217.167969 C 516.515625 216.804688 516.136719 216.429688 515.648438 216.363281 C 515.183594 216.308594 514.757812 216.546875 514.363281 216.789062 C 512.796875 217.769531 511.390625 219.019531 510.230469 220.464844 C 510.113281 220.617188 510.011719 220.789062 509.910156 220.957031 C 509.804688 220.789062 509.703125 220.617188 509.585938 220.464844 C 508.421875 219.019531 507.019531 217.769531 505.453125 216.789062 C 505.058594 216.546875 504.621094 216.308594 504.171875 216.363281 C 503.683594 216.429688 503.304688 216.804688 502.96875 217.167969 C 502.179688 218.015625 501.386719 218.859375 500.597656 219.703125 C 500.464844 219.847656 500.304688 220.019531 500.144531 220.210938 C 499.898438 220.5 499.6875 220.824219 499.523438 221.152344 C 499.402344 220.910156 499.234375 220.671875 499.066406 220.460938 C 497.902344 219.015625 496.496094 217.765625 494.929688 216.78125 C 494.539062 216.539062 494.101562 216.300781 493.648438 216.359375 C 493.164062 216.421875 492.78125 216.800781 492.445312 217.164062 C 491.660156 218.007812 490.871094 218.851562 490.078125 219.699219 C 489.941406 219.84375 489.785156 220.015625 489.621094 220.207031 C 489.449219 220.40625 489.289062 220.632812 489.144531 220.867188 C 489.007812 220.640625 488.847656 220.410156 488.675781 220.207031 C 488.515625 220.015625 488.355469 219.84375 488.21875 219.699219 C 487.429688 218.851562 486.644531 218.007812 485.855469 217.164062 C 485.519531 216.800781 485.140625 216.421875 484.652344 216.359375 C 484.195312 216.300781 483.761719 216.539062 483.375 216.78125 C 481.804688 217.765625 480.402344 219.015625 479.242188 220.460938 C 479.066406 220.671875 478.90625 220.910156 478.777344 221.152344 C 478.617188 220.824219 478.402344 220.496094 478.164062 220.210938 C 478.003906 220.019531 477.847656 219.847656 477.707031 219.703125 C 476.917969 218.859375 476.132812 218.015625 475.34375 217.167969 C 475.007812 216.804688 474.628906 216.429688 474.140625 216.363281 C 473.683594 216.308594 473.25 216.546875 472.859375 216.789062 C 471.292969 217.769531 469.890625 219.019531 468.722656 220.464844 C 468.601562 220.617188 468.503906 220.789062 468.402344 220.957031 C 468.300781 220.789062 468.203125 220.617188 468.074219 220.464844 C 466.914062 219.019531 465.511719 217.769531 463.941406 216.789062 C 463.554688 216.546875 463.117188 216.308594 462.660156 216.363281 C 462.175781 216.429688 461.792969 216.804688 461.457031 217.167969 C 460.667969 218.015625 459.882812 218.859375 459.089844 219.703125 C 458.953125 219.847656 458.796875 220.019531 458.632812 220.210938 C 458.390625 220.5 458.175781 220.824219 458.015625 221.152344 C 457.890625 220.910156 457.726562 220.671875 457.554688 220.460938 C 456.394531 219.015625 454.992188 217.765625 453.425781 216.78125 C 453.039062 216.539062 452.59375 216.300781 452.144531 216.359375 C 451.660156 216.421875 451.277344 216.800781 450.941406 217.164062 C 450.152344 218.007812 449.363281 218.851562 448.574219 219.699219 C 448.4375 219.84375 448.277344 220.015625 448.117188 220.207031 C 448 220.34375 447.898438 220.507812 447.785156 220.667969 C 447.675781 220.507812 447.574219 220.351562 447.457031 220.207031 C 447.296875 220.015625 447.136719 219.84375 447 219.699219 C 446.214844 218.851562 445.425781 218.007812 444.636719 217.164062 C 444.300781 216.800781 443.925781 216.421875 443.433594 216.359375 C 442.980469 216.300781 442.546875 216.539062 442.152344 216.78125 C 440.585938 217.765625 439.183594 219.015625 438.019531 220.460938 C 437.847656 220.671875 437.6875 220.910156 437.5625 221.152344 C 437.398438 220.824219 437.183594 220.5 436.945312 220.210938 C 436.785156 220.019531 436.625 219.847656 436.488281 219.703125 C 435.703125 218.859375 434.914062 218.015625 434.125 217.167969 C 433.789062 216.804688 433.414062 216.429688 432.921875 216.363281 C 432.46875 216.308594 432.035156 216.546875 431.640625 216.789062 C 430.074219 217.769531 428.671875 219.019531 427.507812 220.464844 C 427.386719 220.617188 427.289062 220.789062 427.183594 220.957031 C 427.082031 220.789062 426.980469 220.617188 426.859375 220.464844 C 425.699219 219.019531 424.296875 217.769531 422.722656 216.789062 C 422.335938 216.546875 421.898438 216.308594 421.441406 216.363281 C 420.953125 216.429688 420.574219 216.804688 420.238281 217.167969 C 419.453125 218.015625 418.664062 218.859375 417.871094 219.703125 C 417.738281 219.847656 417.578125 220.019531 417.414062 220.210938 C 417.171875 220.5 416.957031 220.824219 416.800781 221.152344 C 416.671875 220.910156 416.511719 220.671875 416.339844 220.460938 C 415.175781 219.015625 413.773438 217.765625 412.203125 216.78125 C 411.816406 216.539062 411.378906 216.300781 410.921875 216.359375 C 410.433594 216.421875 410.054688 216.800781 409.71875 217.164062 C 408.929688 218.007812 408.144531 218.851562 407.351562 219.699219 C 407.214844 219.84375 407.058594 220.015625 406.894531 220.207031 C 406.722656 220.40625 406.5625 220.632812 406.417969 220.867188 C 406.277344 220.640625 406.121094 220.410156 405.949219 220.207031 C 405.789062 220.015625 405.625 219.84375 405.492188 219.699219 C 404.703125 218.851562 403.914062 218.007812 403.121094 217.164062 C 402.789062 216.800781 402.410156 216.421875 401.921875 216.359375 C 401.464844 216.300781 401.03125 216.539062 400.636719 216.78125 C 399.070312 217.765625 397.667969 219.015625 396.503906 220.460938 C 396.332031 220.671875 396.171875 220.910156 396.046875 221.152344 C 395.882812 220.824219 395.667969 220.5 395.429688 220.210938 C 395.273438 220.019531 395.113281 219.847656 394.972656 219.703125 C 394.1875 218.859375 393.398438 218.015625 392.605469 217.167969 C 392.269531 216.804688 391.894531 216.429688 391.402344 216.363281 C 390.945312 216.308594 390.511719 216.546875 390.121094 216.789062 C 388.554688 217.769531 387.152344 219.019531 385.988281 220.464844 C 385.867188 220.617188 385.769531 220.789062 385.664062 220.957031 C 385.5625 220.789062 385.464844 220.617188 385.339844 220.464844 C 384.179688 219.019531 382.773438 217.769531 381.203125 216.789062 C 380.816406 216.546875 380.378906 216.308594 379.921875 216.363281 C 379.4375 216.429688 379.054688 216.804688 378.71875 217.167969 C 377.933594 218.015625 377.144531 218.859375 376.351562 219.703125 C 376.214844 219.847656 376.058594 220.019531 375.894531 220.210938 C 375.652344 220.5 375.4375 220.824219 375.28125 221.152344 C 375.152344 220.910156 374.992188 220.671875 374.816406 220.460938 C 373.65625 219.015625 372.253906 217.765625 370.683594 216.78125 C 370.296875 216.539062 369.859375 216.300781 369.402344 216.359375 C 368.917969 216.421875 368.535156 216.800781 368.199219 217.164062 C 367.410156 218.007812 366.625 218.851562 365.832031 219.699219 C 365.695312 219.84375 365.539062 220.015625 365.375 220.207031 C 364.964844 220.691406 364.554688 221.292969 364.53125 221.824219 C 364.503906 222.542969 365.09375 223.121094 365.640625 223.589844 C 366.679688 224.445312 367.671875 225.300781 368.660156 226.15625 Z M 368.660156 226.15625 " fill-opacity="1" fill-rule="nonzero"/><path fill="#e1bc91" d="M 615.832031 372.355469 C 615.667969 372.160156 615.503906 371.980469 615.359375 371.832031 C 614.558594 370.96875 613.753906 370.105469 612.945312 369.242188 C 612.605469 368.875 612.21875 368.484375 611.714844 368.421875 C 611.25 368.363281 610.808594 368.605469 610.410156 368.851562 C 608.808594 369.859375 607.378906 371.132812 606.195312 372.605469 C 606.019531 372.824219 605.855469 373.0625 605.726562 373.308594 C 605.558594 372.976562 605.34375 372.640625 605.097656 372.34375 C 604.933594 372.148438 604.769531 371.972656 604.625 371.824219 C 603.820312 370.960938 603.015625 370.097656 602.210938 369.234375 C 601.867188 368.867188 601.484375 368.476562 600.980469 368.414062 C 600.515625 368.351562 600.070312 368.597656 599.675781 368.84375 C 598.070312 369.851562 596.644531 371.125 595.457031 372.597656 C 595.335938 372.75 595.234375 372.921875 595.128906 373.097656 C 595.023438 372.921875 594.921875 372.75 594.800781 372.597656 C 593.613281 371.125 592.179688 369.851562 590.585938 368.84375 C 590.183594 368.597656 589.738281 368.351562 589.273438 368.414062 C 588.78125 368.476562 588.394531 368.867188 588.050781 369.234375 C 587.242188 370.097656 586.4375 370.960938 585.628906 371.824219 C 585.496094 371.972656 585.332031 372.148438 585.164062 372.34375 C 584.917969 372.640625 584.699219 372.96875 584.535156 373.308594 C 584.410156 373.058594 584.242188 372.824219 584.0625 372.605469 C 582.875 371.132812 581.445312 369.859375 579.84375 368.851562 C 579.449219 368.605469 579 368.363281 578.539062 368.421875 C 578.042969 368.484375 577.660156 368.875 577.308594 369.242188 C 576.507812 370.105469 575.699219 370.96875 574.894531 371.832031 C 574.753906 371.980469 574.597656 372.160156 574.429688 372.355469 C 574.257812 372.558594 574.09375 372.792969 573.945312 373.03125 C 573.800781 372.796875 573.636719 372.5625 573.457031 372.355469 C 573.296875 372.160156 573.136719 371.980469 572.992188 371.832031 C 572.1875 370.96875 571.378906 370.105469 570.578125 369.242188 C 570.234375 368.875 569.851562 368.484375 569.347656 368.421875 C 568.882812 368.363281 568.4375 368.605469 568.042969 368.851562 C 566.4375 369.859375 565.011719 371.132812 563.824219 372.605469 C 563.652344 372.824219 563.484375 373.0625 563.351562 373.308594 C 563.191406 372.976562 562.96875 372.640625 562.722656 372.34375 C 562.558594 372.148438 562.398438 371.972656 562.257812 371.824219 C 561.449219 370.960938 560.644531 370.097656 559.839844 369.234375 C 559.496094 368.867188 559.109375 368.476562 558.613281 368.414062 C 558.144531 368.351562 557.703125 368.597656 557.308594 368.84375 C 555.703125 369.851562 554.273438 371.125 553.089844 372.597656 C 552.96875 372.75 552.863281 372.921875 552.757812 373.097656 C 552.65625 372.921875 552.550781 372.75 552.429688 372.597656 C 551.242188 371.125 549.8125 369.851562 548.210938 368.84375 C 547.816406 368.597656 547.367188 368.351562 546.90625 368.414062 C 546.410156 368.476562 546.027344 368.867188 545.675781 369.234375 C 544.871094 370.097656 544.066406 370.960938 543.261719 371.824219 C 543.121094 371.972656 542.957031 372.148438 542.789062 372.34375 C 542.542969 372.640625 542.328125 372.96875 542.160156 373.308594 C 542.035156 373.058594 541.867188 372.824219 541.691406 372.605469 C 540.507812 371.132812 539.074219 369.859375 537.476562 368.851562 C 537.082031 368.605469 536.632812 368.363281 536.171875 368.421875 C 535.671875 368.484375 535.285156 368.875 534.941406 369.242188 C 534.132812 370.105469 533.328125 370.96875 532.527344 371.832031 C 532.386719 371.980469 532.222656 372.160156 532.054688 372.355469 C 531.96875 372.457031 531.898438 372.582031 531.8125 372.699219 C 531.722656 372.582031 531.65625 372.460938 531.566406 372.355469 C 531.402344 372.160156 531.238281 371.980469 531.09375 371.832031 C 530.292969 370.96875 529.488281 370.105469 528.679688 369.242188 C 528.339844 368.875 527.953125 368.484375 527.449219 368.421875 C 526.984375 368.363281 526.539062 368.605469 526.144531 368.851562 C 524.542969 369.859375 523.113281 371.132812 521.929688 372.605469 C 521.753906 372.824219 521.589844 373.0625 521.460938 373.308594 C 521.292969 372.976562 521.078125 372.640625 520.824219 372.34375 C 520.667969 372.148438 520.503906 371.972656 520.359375 371.824219 C 519.554688 370.960938 518.75 370.097656 517.945312 369.234375 C 517.601562 368.867188 517.21875 368.476562 516.714844 368.414062 C 516.25 368.351562 515.804688 368.597656 515.410156 368.84375 C 513.804688 369.851562 512.378906 371.125 511.191406 372.597656 C 511.070312 372.75 510.96875 372.921875 510.863281 373.097656 C 510.757812 372.921875 510.65625 372.75 510.535156 372.597656 C 509.347656 371.125 507.914062 369.851562 506.320312 368.84375 C 505.917969 368.597656 505.472656 368.351562 505.007812 368.414062 C 504.515625 368.476562 504.128906 368.867188 503.785156 369.234375 C 502.976562 370.097656 502.171875 370.960938 501.363281 371.824219 C 501.230469 371.972656 501.066406 372.148438 500.898438 372.34375 C 500.652344 372.640625 500.433594 372.96875 500.269531 373.308594 C 500.144531 373.058594 499.976562 372.824219 499.796875 372.605469 C 498.613281 371.132812 497.179688 369.859375 495.578125 368.851562 C 495.183594 368.605469 494.734375 368.363281 494.273438 368.421875 C 493.773438 368.484375 493.394531 368.875 493.046875 369.242188 C 492.242188 370.105469 491.441406 370.96875 490.632812 371.832031 C 490.492188 371.980469 490.332031 372.160156 490.167969 372.355469 C 489.988281 372.558594 489.832031 372.792969 489.683594 373.03125 C 489.539062 372.796875 489.375 372.5625 489.203125 372.355469 C 489.039062 372.160156 488.875 371.980469 488.734375 371.832031 C 487.929688 370.96875 487.128906 370.105469 486.320312 369.242188 C 485.976562 368.875 485.59375 368.484375 485.09375 368.421875 C 484.628906 368.363281 484.1875 368.605469 483.785156 368.851562 C 482.1875 369.859375 480.753906 371.132812 479.566406 372.605469 C 479.394531 372.824219 479.226562 373.0625 479.101562 373.308594 C 478.933594 372.976562 478.71875 372.640625 478.472656 372.34375 C 478.308594 372.148438 478.144531 371.972656 478.003906 371.824219 C 477.199219 370.960938 476.390625 370.097656 475.589844 369.234375 C 475.246094 368.867188 474.863281 368.476562 474.363281 368.414062 C 473.898438 368.351562 473.449219 368.597656 473.054688 368.84375 C 471.457031 369.851562 470.023438 371.125 468.835938 372.597656 C 468.714844 372.75 468.613281 372.921875 468.503906 373.097656 C 468.398438 372.921875 468.296875 372.75 468.175781 372.597656 C 466.992188 371.125 465.554688 369.851562 463.957031 368.84375 C 463.558594 368.597656 463.113281 368.351562 462.652344 368.414062 C 462.152344 368.476562 461.765625 368.867188 461.417969 369.234375 C 460.617188 370.097656 459.8125 370.960938 459.003906 371.824219 C 458.867188 371.972656 458.703125 372.148438 458.539062 372.34375 C 458.292969 372.640625 458.074219 372.96875 457.910156 373.308594 C 457.777344 373.058594 457.617188 372.824219 457.4375 372.605469 C 456.253906 371.132812 454.820312 369.859375 453.21875 368.851562 C 452.824219 368.605469 452.375 368.363281 451.910156 368.421875 C 451.410156 368.484375 451.03125 368.875 450.683594 369.242188 C 449.882812 370.105469 449.074219 370.96875 448.269531 371.832031 C 448.128906 371.980469 447.964844 372.160156 447.804688 372.355469 C 447.683594 372.5 447.578125 372.664062 447.46875 372.824219 C 447.355469 372.667969 447.253906 372.5 447.132812 372.355469 C 446.96875 372.160156 446.804688 371.980469 446.667969 371.832031 C 445.863281 370.96875 445.058594 370.105469 444.25 369.242188 C 443.90625 368.875 443.523438 368.484375 443.019531 368.421875 C 442.554688 368.363281 442.113281 368.605469 441.714844 368.851562 C 440.117188 369.859375 438.679688 371.132812 437.496094 372.605469 C 437.320312 372.824219 437.15625 373.0625 437.027344 373.308594 C 436.863281 372.976562 436.644531 372.640625 436.398438 372.34375 C 436.234375 372.148438 436.070312 371.972656 435.929688 371.824219 C 435.125 370.960938 434.324219 370.097656 433.515625 369.234375 C 433.175781 368.867188 432.789062 368.476562 432.289062 368.414062 C 431.824219 368.351562 431.382812 368.597656 430.984375 368.84375 C 429.382812 369.851562 427.949219 371.125 426.765625 372.597656 C 426.640625 372.75 426.542969 372.921875 426.433594 373.097656 C 426.328125 372.921875 426.230469 372.75 426.105469 372.597656 C 424.921875 371.125 423.484375 369.851562 421.886719 368.84375 C 421.488281 368.597656 421.042969 368.351562 420.574219 368.414062 C 420.078125 368.476562 419.695312 368.867188 419.351562 369.234375 C 418.542969 370.097656 417.742188 370.960938 416.933594 371.824219 C 416.796875 371.972656 416.632812 372.148438 416.46875 372.34375 C 416.222656 372.640625 416.007812 372.96875 415.839844 373.308594 C 415.714844 373.058594 415.546875 372.824219 415.367188 372.605469 C 414.183594 371.132812 412.753906 369.859375 411.148438 368.851562 C 410.753906 368.605469 410.304688 368.363281 409.84375 368.421875 C 409.347656 368.484375 408.960938 368.875 408.617188 369.242188 C 407.8125 370.105469 407.011719 370.96875 406.203125 371.832031 C 406.066406 371.980469 405.902344 372.160156 405.738281 372.355469 C 405.566406 372.558594 405.402344 372.792969 405.257812 373.03125 C 405.113281 372.796875 404.949219 372.5625 404.773438 372.355469 C 404.609375 372.160156 404.445312 371.980469 404.308594 371.832031 C 403.5 370.96875 402.695312 370.105469 401.890625 369.242188 C 401.546875 368.875 401.164062 368.484375 400.660156 368.421875 C 400.195312 368.363281 399.753906 368.605469 399.355469 368.851562 C 397.757812 369.859375 396.328125 371.132812 395.136719 372.605469 C 394.960938 372.824219 394.796875 373.0625 394.667969 373.308594 C 394.503906 372.976562 394.285156 372.640625 394.039062 372.34375 C 393.875 372.148438 393.710938 371.972656 393.570312 371.824219 C 392.769531 370.960938 391.964844 370.097656 391.15625 369.234375 C 390.8125 368.867188 390.425781 368.476562 389.925781 368.414062 C 389.460938 368.351562 389.015625 368.597656 388.621094 368.84375 C 387.019531 369.851562 385.585938 371.125 384.402344 372.597656 C 384.28125 372.75 384.179688 372.921875 384.070312 373.097656 C 383.96875 372.921875 383.867188 372.75 383.742188 372.597656 C 382.554688 371.125 381.121094 369.851562 379.523438 368.84375 C 379.125 368.597656 378.679688 368.351562 378.210938 368.414062 C 377.714844 368.476562 377.332031 368.867188 376.984375 369.234375 C 376.179688 370.097656 375.378906 370.960938 374.570312 371.824219 C 374.429688 371.972656 374.269531 372.148438 374.105469 372.34375 C 373.859375 372.640625 373.640625 372.96875 373.476562 373.308594 C 373.351562 373.058594 373.183594 372.824219 373.011719 372.605469 C 371.824219 371.132812 370.390625 369.859375 368.792969 368.851562 C 368.394531 368.605469 367.949219 368.363281 367.480469 368.421875 C 366.984375 368.484375 366.601562 368.875 366.253906 369.242188 C 365.449219 370.105469 364.648438 370.96875 363.839844 371.832031 C 363.699219 371.980469 363.539062 372.160156 363.375 372.355469 C 362.960938 372.847656 362.539062 373.460938 362.515625 374.003906 C 362.488281 374.742188 363.09375 375.328125 363.648438 375.808594 C 364.660156 376.683594 365.667969 377.554688 366.679688 378.425781 C 366.832031 378.425781 367.28125 378.914062 367.429688 379.011719 C 367.703125 379.195312 368.007812 379.355469 368.335938 379.417969 C 368.847656 379.523438 369.378906 379.460938 369.75 379.09375 C 370.898438 377.960938 371.910156 376.644531 372.976562 375.433594 C 373.171875 375.207031 373.355469 374.960938 373.488281 374.699219 C 373.703125 375.113281 374.015625 375.492188 374.378906 375.804688 C 375.386719 376.675781 376.398438 377.550781 377.40625 378.421875 C 377.558594 378.421875 378.007812 378.910156 378.15625 379.007812 C 378.429688 379.191406 378.734375 379.347656 379.058594 379.414062 C 379.574219 379.515625 380.105469 379.457031 380.476562 379.089844 C 381.625 377.953125 382.640625 376.640625 383.707031 375.425781 C 383.832031 375.28125 383.953125 375.128906 384.070312 374.96875 C 384.183594 375.128906 384.308594 375.28125 384.433594 375.425781 C 385.503906 376.640625 386.519531 377.953125 387.664062 379.089844 C 388.039062 379.457031 388.570312 379.515625 389.082031 379.414062 C 389.410156 379.347656 389.710938 379.191406 389.988281 379.007812 C 390.136719 378.910156 390.578125 378.421875 390.738281 378.421875 C 391.746094 377.550781 392.757812 376.675781 393.761719 375.804688 C 394.125 375.492188 394.4375 375.113281 394.652344 374.699219 C 394.792969 374.960938 394.964844 375.207031 395.164062 375.433594 C 396.234375 376.644531 397.25 377.960938 398.394531 379.09375 C 398.769531 379.460938 399.300781 379.523438 399.8125 379.417969 C 400.140625 379.355469 400.4375 379.195312 400.71875 379.011719 C 400.867188 378.914062 401.316406 378.425781 401.46875 378.425781 C 402.476562 377.554688 403.488281 376.683594 404.492188 375.808594 C 404.765625 375.582031 405.035156 375.320312 405.25 375.035156 C 405.464844 375.320312 405.734375 375.582031 406.003906 375.808594 C 407.011719 376.683594 408.023438 377.554688 409.027344 378.425781 C 409.183594 378.425781 409.628906 378.914062 409.78125 379.011719 C 410.058594 379.195312 410.359375 379.355469 410.683594 379.417969 C 411.195312 379.523438 411.726562 379.460938 412.101562 379.09375 C 413.246094 377.960938 414.265625 376.644531 415.332031 375.433594 C 415.527344 375.207031 415.710938 374.960938 415.84375 374.699219 C 416.058594 375.113281 416.371094 375.492188 416.734375 375.804688 C 417.746094 376.675781 418.753906 377.550781 419.765625 378.421875 C 419.917969 378.421875 420.367188 378.910156 420.515625 379.007812 C 420.789062 379.191406 421.09375 379.347656 421.417969 379.414062 C 421.933594 379.515625 422.464844 379.457031 422.835938 379.089844 C 423.984375 377.953125 424.996094 376.640625 426.0625 375.425781 C 426.191406 375.28125 426.3125 375.128906 426.425781 374.96875 C 426.539062 375.128906 426.664062 375.28125 426.789062 375.425781 C 427.855469 376.640625 428.875 377.953125 430.015625 379.089844 C 430.386719 379.457031 430.917969 379.515625 431.433594 379.414062 C 431.757812 379.347656 432.0625 379.191406 432.335938 379.007812 C 432.484375 378.910156 432.933594 378.421875 433.085938 378.421875 C 434.097656 377.550781 435.105469 376.675781 436.117188 375.804688 C 436.480469 375.492188 436.792969 375.113281 437.007812 374.699219 C 437.148438 374.960938 437.320312 375.207031 437.519531 375.433594 C 438.585938 376.644531 439.605469 377.960938 440.75 379.09375 C 441.125 379.460938 441.65625 379.523438 442.167969 379.417969 C 442.496094 379.355469 442.796875 379.195312 443.070312 379.011719 C 443.222656 378.914062 443.664062 378.425781 443.824219 378.425781 C 444.828125 377.554688 445.839844 376.683594 446.847656 375.808594 C 447.0625 375.625 447.269531 375.410156 447.453125 375.183594 C 447.644531 375.402344 447.84375 375.625 448.066406 375.808594 C 449.070312 376.683594 450.082031 377.554688 451.089844 378.425781 C 451.242188 378.425781 451.691406 378.914062 451.839844 379.011719 C 452.117188 379.195312 452.417969 379.355469 452.746094 379.417969 C 453.257812 379.523438 453.789062 379.460938 454.160156 379.09375 C 455.308594 377.960938 456.320312 376.644531 457.390625 375.433594 C 457.589844 375.207031 457.765625 374.960938 457.90625 374.699219 C 458.121094 375.113281 458.433594 375.492188 458.796875 375.804688 C 459.800781 376.675781 460.8125 377.550781 461.820312 378.421875 C 461.976562 378.421875 462.421875 378.910156 462.570312 379.007812 C 462.851562 379.191406 463.148438 379.347656 463.476562 379.414062 C 463.988281 379.515625 464.519531 379.457031 464.894531 379.089844 C 466.039062 377.953125 467.054688 376.640625 468.125 375.425781 C 468.25 375.28125 468.375 375.128906 468.488281 374.96875 C 468.597656 375.128906 468.71875 375.28125 468.851562 375.425781 C 469.917969 376.640625 470.933594 377.953125 472.082031 379.089844 C 472.453125 379.457031 472.984375 379.515625 473.496094 379.414062 C 473.824219 379.347656 474.128906 379.191406 474.402344 379.007812 C 474.550781 378.910156 475 378.421875 475.152344 378.421875 C 476.160156 377.550781 477.171875 376.675781 478.179688 375.804688 C 478.542969 375.492188 478.855469 375.113281 479.066406 374.699219 C 479.203125 374.960938 479.378906 375.207031 479.578125 375.433594 C 480.644531 376.644531 481.660156 377.960938 482.808594 379.09375 C 483.179688 379.460938 483.710938 379.523438 484.222656 379.417969 C 484.550781 379.355469 484.851562 379.195312 485.128906 379.011719 C 485.277344 378.914062 485.726562 378.425781 485.878906 378.425781 C 486.890625 377.554688 487.898438 376.683594 488.910156 375.808594 C 489.175781 375.582031 489.449219 375.324219 489.664062 375.035156 C 489.878906 375.320312 490.148438 375.578125 490.417969 375.808594 C 491.429688 376.683594 492.4375 377.554688 493.449219 378.425781 C 493.601562 378.425781 494.050781 378.914062 494.195312 379.011719 C 494.476562 379.195312 494.773438 379.355469 495.097656 379.417969 C 495.613281 379.523438 496.148438 379.460938 496.515625 379.09375 C 497.664062 377.960938 498.679688 376.644531 499.746094 375.433594 C 499.941406 375.207031 500.121094 374.960938 500.253906 374.699219 C 500.46875 375.113281 500.78125 375.492188 501.144531 375.804688 C 502.15625 376.675781 503.164062 377.550781 504.171875 378.421875 C 504.324219 378.421875 504.773438 378.910156 504.921875 379.007812 C 505.195312 379.191406 505.496094 379.347656 505.820312 379.414062 C 506.332031 379.515625 506.871094 379.457031 507.242188 379.089844 C 508.382812 377.953125 509.402344 376.640625 510.46875 375.425781 C 510.59375 375.28125 510.71875 375.128906 510.832031 374.96875 C 510.945312 375.128906 511.066406 375.28125 511.191406 375.425781 C 512.257812 376.640625 513.273438 377.953125 514.421875 379.089844 C 514.792969 379.457031 515.320312 379.515625 515.839844 379.414062 C 516.164062 379.347656 516.46875 379.191406 516.742188 379.007812 C 516.886719 378.910156 517.339844 378.421875 517.488281 378.421875 C 518.5 377.550781 519.511719 376.675781 520.519531 375.804688 C 520.878906 375.492188 521.195312 375.113281 521.402344 374.699219 C 521.539062 374.960938 521.714844 375.207031 521.917969 375.433594 C 522.984375 376.644531 523.996094 377.960938 525.144531 379.09375 C 525.515625 379.460938 526.042969 379.523438 526.558594 379.417969 C 526.886719 379.355469 527.1875 379.195312 527.464844 379.011719 C 527.613281 378.914062 528.0625 378.425781 528.214844 378.425781 C 529.222656 377.554688 530.234375 376.683594 531.238281 375.808594 C 531.421875 375.652344 531.585938 375.460938 531.757812 375.277344 C 531.925781 375.460938 532.089844 375.652344 532.269531 375.808594 C 533.28125 376.683594 534.292969 377.554688 535.300781 378.425781 C 535.449219 378.425781 535.898438 378.914062 536.046875 379.011719 C 536.324219 379.195312 536.625 379.355469 536.949219 379.417969 C 537.464844 379.523438 537.996094 379.460938 538.367188 379.09375 C 539.515625 377.960938 540.53125 376.644531 541.59375 375.433594 C 541.792969 375.207031 541.972656 374.960938 542.105469 374.699219 C 542.320312 375.113281 542.632812 375.492188 542.992188 375.804688 C 544.003906 376.675781 545.015625 377.550781 546.023438 378.421875 C 546.171875 378.421875 546.621094 378.910156 546.765625 379.007812 C 547.046875 379.191406 547.34375 379.347656 547.671875 379.414062 C 548.183594 379.515625 548.714844 379.457031 549.089844 379.089844 C 550.234375 377.953125 551.25 376.640625 552.320312 375.425781 C 552.445312 375.28125 552.566406 375.128906 552.679688 374.96875 C 552.789062 375.128906 552.914062 375.28125 553.042969 375.425781 C 554.109375 376.640625 555.125 377.953125 556.265625 379.089844 C 556.640625 379.457031 557.171875 379.515625 557.6875 379.414062 C 558.015625 379.347656 558.320312 379.191406 558.59375 379.007812 C 558.738281 378.910156 559.1875 378.421875 559.339844 378.421875 C 560.351562 377.550781 561.359375 376.675781 562.363281 375.804688 C 562.726562 375.492188 563.046875 375.113281 563.253906 374.699219 C 563.390625 374.960938 563.566406 375.207031 563.761719 375.433594 C 564.832031 376.644531 565.847656 377.960938 566.992188 379.09375 C 567.363281 379.460938 567.894531 379.523438 568.410156 379.417969 C 568.738281 379.355469 569.039062 379.195312 569.316406 379.011719 C 569.460938 378.914062 569.90625 378.425781 570.0625 378.425781 C 571.074219 377.554688 572.085938 376.683594 573.085938 375.808594 C 573.355469 375.582031 573.628906 375.324219 573.839844 375.035156 C 574.054688 375.320312 574.328125 375.578125 574.597656 375.808594 C 575.605469 376.683594 576.613281 377.554688 577.621094 378.425781 C 577.777344 378.425781 578.222656 378.914062 578.367188 379.011719 C 578.648438 379.195312 578.945312 379.355469 579.273438 379.417969 C 579.785156 379.523438 580.320312 379.460938 580.6875 379.09375 C 581.835938 377.960938 582.851562 376.644531 583.917969 375.433594 C 584.117188 375.207031 584.292969 374.960938 584.429688 374.699219 C 584.640625 375.113281 584.953125 375.492188 585.316406 375.804688 C 586.328125 376.675781 587.335938 377.550781 588.34375 378.421875 C 588.496094 378.421875 588.945312 378.910156 589.09375 379.007812 C 589.367188 379.191406 589.667969 379.347656 589.992188 379.414062 C 590.507812 379.515625 591.042969 379.457031 591.414062 379.089844 C 592.558594 377.953125 593.574219 376.640625 594.640625 375.425781 C 594.765625 375.28125 594.894531 375.128906 595.003906 374.96875 C 595.117188 375.128906 595.238281 375.28125 595.363281 375.425781 C 596.429688 376.640625 597.449219 377.953125 598.59375 379.089844 C 598.96875 379.457031 599.492188 379.515625 600.011719 379.414062 C 600.335938 379.347656 600.640625 379.191406 600.914062 379.007812 C 601.058594 378.910156 601.511719 378.421875 601.660156 378.421875 C 602.671875 377.550781 603.683594 376.675781 604.691406 375.804688 C 605.050781 375.492188 605.367188 375.113281 605.578125 374.699219 C 605.71875 374.960938 605.890625 375.207031 606.089844 375.433594 C 607.15625 376.644531 608.167969 377.960938 609.316406 379.09375 C 609.6875 379.460938 610.21875 379.523438 610.734375 379.417969 C 611.058594 379.355469 611.363281 379.195312 611.636719 379.011719 C 611.785156 378.914062 612.234375 378.425781 612.382812 378.425781 C 613.394531 377.554688 614.40625 376.683594 615.414062 375.808594 C 615.96875 375.328125 616.574219 374.742188 616.539062 374.003906 C 616.667969 373.460938 616.246094 372.847656 615.832031 372.355469 Z M 615.832031 372.355469 " fill-opacity="1" fill-rule="nonzero"/><path fill="#e1bc91" d="M 563.398438 479.101562 C 564.15625 469.589844 563.976562 460.035156 563.175781 450.53125 C 561.773438 433.882812 558.503906 417.476562 555.085938 401.136719 C 557.324219 399.960938 557.710938 397.125 555.214844 395.652344 C 553.140625 394.429688 549.339844 394.257812 547.449219 395.792969 C 546.308594 396.714844 545.738281 398.394531 546.355469 399.722656 C 546.929688 400.957031 548.316406 401.554688 549.683594 401.777344 C 549.644531 402.636719 549.605469 403.488281 549.570312 404.34375 C 544.644531 418.4375 543.449219 433.003906 543.644531 447.738281 C 542.898438 450.941406 542.144531 454.144531 541.425781 457.359375 C 540.355469 462.113281 539.4375 466.933594 538.769531 471.769531 C 538.167969 467.132812 537.5 462.511719 536.75 457.894531 C 536.738281 457.859375 536.734375 457.820312 536.730469 457.789062 C 535.476562 441.402344 533.585938 425.070312 531.082031 408.816406 C 531.425781 406.289062 531.757812 403.757812 532.164062 401.238281 C 532.515625 400.949219 532.832031 400.621094 533.035156 400.191406 C 533.652344 398.863281 533.074219 397.1875 531.9375 396.265625 C 530.050781 394.726562 526.246094 394.90625 524.175781 396.121094 C 521.4375 397.734375 522.144531 401.007812 524.988281 401.910156 C 525.125 403.59375 525.269531 405.277344 525.460938 406.949219 C 523.582031 416.347656 521.84375 425.78125 520.648438 435.277344 C 518.652344 425.074219 515.773438 415.0625 512.613281 405.109375 C 512.867188 402.886719 513.082031 400.667969 513.386719 398.453125 C 513.460938 397.894531 513.109375 397.511719 512.699219 397.320312 C 512.472656 396.722656 512.113281 396.164062 511.621094 395.761719 C 509.726562 394.230469 505.925781 394.402344 503.851562 395.625 C 501.09375 397.25 501.828125 400.566406 504.730469 401.4375 C 505.019531 401.527344 505.320312 401.550781 505.613281 401.609375 C 501.496094 415.960938 498.609375 430.582031 496.894531 445.332031 C 495.929688 430.824219 494.371094 416.359375 489.234375 402.722656 C 489.285156 402.113281 489.347656 401.503906 489.410156 400.898438 C 492.078125 399.910156 492.707031 396.765625 490.03125 395.195312 C 487.957031 393.972656 484.160156 393.800781 482.265625 395.335938 C 481.128906 396.257812 480.554688 397.9375 481.171875 399.265625 C 481.742188 400.492188 483.113281 401.089844 484.46875 401.316406 C 481.804688 416.503906 479.921875 431.820312 478.867188 447.199219 C 475.492188 431.300781 471.070312 415.585938 469.550781 399.378906 C 470.710938 397.996094 470.5625 395.945312 468.566406 394.769531 C 466.492188 393.546875 462.691406 393.375 460.800781 394.910156 C 459.664062 395.832031 459.085938 397.511719 459.703125 398.839844 C 460.183594 399.867188 461.222656 400.46875 462.34375 400.773438 C 459.769531 408.25 458.761719 415.972656 458.667969 423.78125 C 457.597656 431.371094 457.1875 439.042969 457.164062 446.765625 C 456.507812 449.035156 455.886719 451.320312 455.351562 453.628906 C 454.347656 457.992188 453.558594 462.390625 452.96875 466.816406 C 449.742188 444.863281 446.511719 422.902344 443.285156 400.949219 C 443.382812 400.664062 443.472656 400.378906 443.570312 400.09375 C 444.695312 399.792969 445.730469 399.195312 446.210938 398.164062 C 446.828125 396.835938 446.25 395.15625 445.113281 394.234375 C 443.226562 392.695312 439.421875 392.871094 437.347656 394.09375 C 434.585938 395.714844 435.324219 399.035156 438.21875 399.910156 C 438.261719 399.921875 438.308594 399.921875 438.351562 399.933594 C 438.257812 400.8125 438.152344 401.695312 438.054688 402.582031 C 434.4375 417.421875 431.832031 432.480469 430.269531 447.667969 C 427.511719 431.632812 424.386719 415.601562 423.296875 399.433594 C 424.285156 399.105469 425.175781 398.550781 425.609375 397.625 C 426.230469 396.296875 425.652344 394.617188 424.515625 393.691406 C 422.625 392.152344 418.824219 392.332031 416.75 393.546875 C 414.160156 395.074219 414.675781 398.058594 417.128906 399.144531 C 413.617188 411.460938 411.1875 424.152344 409.960938 437.007812 C 407.839844 423.976562 405.484375 410.972656 403.09375 397.988281 C 405.0625 396.722656 405.296875 394.070312 402.910156 392.667969 C 400.839844 391.445312 397.035156 391.273438 395.140625 392.808594 C 394.003906 393.730469 393.425781 395.410156 394.046875 396.738281 C 394.53125 397.773438 395.582031 398.371094 396.714844 398.671875 C 391.917969 423.535156 389.761719 449.011719 390.246094 474.402344 C 388.035156 448.351562 385.859375 422.289062 383.480469 396.25 C 385.472656 394.992188 385.722656 392.3125 383.324219 390.90625 C 381.25 389.683594 377.453125 389.511719 375.558594 391.042969 C 374.421875 391.96875 373.84375 393.644531 374.464844 394.976562 C 374.765625 395.628906 375.304688 396.09375 375.933594 396.433594 C 370.132812 432.558594 358.65625 468.558594 364.617188 505.480469 C 364.828125 506.792969 366.820312 506.238281 366.609375 504.933594 C 362.730469 480.804688 366.433594 457.003906 371.046875 433.324219 C 368.378906 456.585938 368.257812 480.179688 370.714844 503.347656 C 370.855469 504.65625 372.921875 504.671875 372.78125 503.347656 C 369.761719 474.863281 370.65625 445.742188 375.414062 417.398438 C 372.921875 449.136719 373.476562 481.195312 377.378906 512.746094 C 377.539062 514.046875 379.609375 514.066406 379.441406 512.746094 C 379.300781 511.613281 379.210938 510.480469 379.078125 509.347656 C 379.199219 509.820312 379.292969 510.292969 379.421875 510.765625 C 379.78125 512.042969 381.777344 511.503906 381.414062 510.214844 C 376.351562 492.203125 376.730469 473.074219 377.699219 454.546875 C 378.367188 441.789062 379.222656 429.035156 380.101562 416.28125 C 379.628906 448.382812 380.6875 480.53125 383.671875 512.480469 C 383.792969 513.796875 385.859375 513.804688 385.734375 512.480469 C 382.457031 477.402344 381.488281 442.082031 382.335938 406.855469 C 385.480469 442.195312 388.277344 477.5625 391.515625 512.890625 C 391.636719 514.207031 393.707031 514.222656 393.582031 512.890625 C 393.582031 512.886719 393.582031 512.882812 393.582031 512.875 C 394.222656 513.128906 395.039062 512.898438 394.9375 512.039062 C 390.710938 478.175781 391.363281 443.453125 396.820312 409.707031 C 393.074219 444.886719 392.871094 480.558594 396.457031 515.726562 C 396.59375 517.039062 398.65625 517.050781 398.523438 515.726562 C 395.125 482.335938 395.140625 448.5 398.355469 415.050781 C 398.257812 447.070312 399.753906 479.136719 403.328125 510.941406 C 403.472656 512.253906 405.542969 512.265625 405.394531 510.941406 C 405.195312 509.199219 405.039062 507.453125 404.851562 505.710938 C 405.183594 508.300781 405.78125 510.839844 406.824219 513.25 C 407.351562 514.46875 409.132812 513.417969 408.609375 512.207031 C 405.394531 504.773438 406.617188 495.691406 407.191406 487.847656 C 407.90625 477.988281 407.425781 468.261719 406.226562 458.460938 C 404.140625 441.335938 400.597656 424.320312 400.941406 407.082031 C 404.480469 423.246094 407.128906 439.617188 409.0625 456.070312 C 408.972656 469.164062 410.050781 482.238281 412.34375 495.035156 C 412.539062 498.8125 412.726562 502.585938 412.855469 506.359375 C 412.902344 507.6875 414.96875 507.691406 414.921875 506.359375 C 414.90625 505.933594 414.878906 505.503906 414.859375 505.082031 C 415.175781 505.148438 415.488281 505.0625 415.75 504.851562 C 415.789062 505.535156 415.847656 506.214844 415.886719 506.894531 C 415.953125 508.21875 418.019531 508.230469 417.949219 506.894531 C 417.9375 506.539062 417.898438 506.1875 417.882812 505.832031 C 418.203125 506.941406 419.988281 506.425781 419.800781 505.175781 C 415.691406 477.574219 415.070312 449.253906 417.742188 421.378906 C 417.136719 452.15625 418.710938 482.921875 422.574219 513.488281 C 422.738281 514.789062 424.808594 514.808594 424.640625 513.488281 C 420.449219 480.25 418.90625 446.746094 419.996094 413.265625 C 419.886719 442.796875 423.300781 472.21875 426.828125 501.53125 C 426.984375 502.839844 429.054688 502.851562 428.890625 501.53125 C 425.195312 470.773438 421.605469 439.898438 422.105469 408.898438 C 423.851562 424.433594 427.054688 439.886719 429.550781 455.363281 C 429.492188 456.117188 429.390625 456.863281 429.339844 457.621094 C 428.667969 467.054688 428.132812 476.660156 428.613281 486.113281 C 428.878906 491.320312 429.824219 496.398438 432.652344 500.625 C 432.398438 504.480469 432.015625 508.339844 431.375 512.214844 C 431.160156 513.515625 433.152344 514.078125 433.371094 512.765625 C 433.910156 509.492188 434.257812 506.226562 434.527344 502.96875 C 434.722656 503.179688 434.894531 503.40625 435.105469 503.613281 C 435.59375 504.089844 436.207031 503.929688 436.570312 503.546875 C 436.984375 505.203125 437.394531 506.859375 437.882812 508.503906 C 438.257812 509.75 440.136719 509.246094 439.871094 508.027344 C 440.082031 507.859375 440.234375 507.617188 440.222656 507.257812 C 439.703125 488.511719 439.179688 469.765625 438.664062 451.023438 C 438.53125 446.261719 438.40625 441.480469 438.40625 436.710938 C 439.136719 442.847656 440.148438 448.96875 441.183594 455.085938 C 444.246094 473.230469 446.125 491.316406 445.925781 509.726562 C 445.742188 510.9375 445.589844 512.152344 445.375 513.359375 C 445.152344 514.660156 447.140625 515.21875 447.371094 513.910156 C 447.585938 512.660156 447.746094 511.40625 447.933594 510.148438 C 447.941406 510.097656 447.996094 510.074219 447.996094 510.019531 C 447.996094 509.9375 447.996094 509.855469 447.996094 509.777344 C 451.195312 487.945312 449.941406 465.714844 447.496094 443.613281 C 449.039062 454.113281 450.582031 464.609375 452.125 475.113281 C 451.359375 485.03125 451.566406 495.019531 452.757812 504.9375 C 452.917969 506.242188 454.980469 506.257812 454.824219 504.9375 C 454.074219 498.707031 453.734375 492.445312 453.75 486.195312 C 454.5625 491.710938 455.375 497.222656 456.179688 502.734375 C 456.375 504.046875 458.367188 503.492188 458.171875 502.183594 C 456.847656 493.167969 455.523438 484.152344 454.195312 475.140625 C 454.726562 468.285156 455.742188 461.472656 457.257812 454.738281 C 457.664062 471.757812 459.234375 488.917969 458.449219 505.753906 C 458.390625 507.082031 460.453125 507.082031 460.515625 505.753906 C 461.414062 486.382812 459.167969 466.582031 459.214844 447.054688 C 459.441406 446.257812 459.652344 445.449219 459.894531 444.652344 C 459.941406 445.082031 459.980469 445.511719 460.027344 445.933594 C 462.050781 464.253906 464.179688 482.5625 466.253906 500.875 C 466.402344 502.179688 468.472656 502.199219 468.320312 500.875 C 466.308594 483.167969 464.28125 465.464844 462.296875 447.753906 C 461.988281 445.015625 461.707031 442.257812 461.453125 439.5 C 462.808594 435.042969 464.113281 430.570312 464.949219 425.980469 C 465.367188 423.652344 465.648438 421.316406 465.855469 418.972656 C 465.988281 420.160156 466.160156 421.351562 466.3125 422.539062 C 467.40625 453.320312 468.5 484.101562 469.597656 514.878906 C 469.640625 516.203125 471.710938 516.210938 471.660156 514.878906 C 470.769531 489.773438 469.875 464.671875 468.980469 439.5625 C 469.800781 444.222656 470.640625 448.875 471.394531 453.539062 C 473.03125 463.6875 473.945312 473.765625 473.753906 484.046875 C 473.585938 492.890625 473.382812 501.585938 476.140625 510.097656 C 476.550781 511.359375 478.546875 510.820312 478.132812 509.546875 C 475 499.871094 475.859375 490.003906 475.878906 480.011719 C 475.894531 471.632812 475 463.316406 473.714844 455.046875 C 472.023438 444.132812 469.792969 433.289062 468.375 422.367188 C 468.113281 415.105469 467.855469 407.851562 467.601562 400.59375 C 469.34375 417.523438 474.15625 433.882812 477.464844 450.546875 C 477.8125 452.292969 478.070312 454.050781 478.386719 455.804688 C 478.316406 457.285156 478.195312 458.757812 478.144531 460.242188 C 477.757812 470.550781 477.675781 480.914062 478.121094 491.222656 C 478.402344 497.648438 479.128906 504.09375 483.832031 508.859375 C 483.835938 509.085938 483.859375 509.316406 483.863281 509.542969 C 483.894531 510.871094 485.960938 510.878906 485.929688 509.542969 C 485.503906 491.324219 483.707031 473.171875 480.4375 455.242188 C 480.917969 445.523438 481.757812 435.832031 482.898438 426.179688 C 482.261719 452.578125 485.878906 479.246094 487.925781 505.421875 C 488.027344 506.738281 490.097656 506.75 489.988281 505.421875 C 488.199219 482.5625 485.179688 459.273438 484.886719 436.136719 C 486.503906 458.5 490.515625 480.871094 493.492188 502.839844 C 493.667969 504.148438 495.660156 503.59375 495.484375 502.289062 C 491.0625 469.597656 484.335938 436.070312 486.816406 402.949219 C 486.839844 402.757812 486.867188 402.570312 486.894531 402.386719 C 486.972656 402.585938 487.054688 402.785156 487.132812 402.988281 C 485.921875 418.089844 488.296875 433.101562 490.757812 448.007812 C 492.203125 456.753906 493.648438 465.492188 495.089844 474.234375 C 494.988281 485.648438 495.515625 497.089844 496.855469 508.480469 C 496.976562 509.511719 498.253906 509.703125 498.726562 509.105469 C 498.738281 509.339844 498.753906 509.570312 498.765625 509.804688 C 498.851562 511.125 500.917969 511.132812 500.832031 509.804688 C 500.644531 506.746094 500.460938 503.683594 500.273438 500.628906 C 500.851562 500.582031 501.449219 500.136719 501.328125 499.386719 C 500.730469 495.792969 500.136719 492.203125 499.546875 488.605469 C 498.945312 478.679688 498.34375 468.75 497.734375 458.828125 C 498.777344 443.085938 501.160156 427.441406 504.953125 412.0625 C 504.300781 416.3125 503.941406 420.597656 503.789062 424.894531 C 499.886719 453.203125 498.265625 481.828125 505.777344 509.777344 C 506.117188 511.058594 508.113281 510.515625 507.769531 509.226562 C 501.652344 486.460938 501.664062 463.25 504.007812 440.128906 C 504.183594 443.328125 504.414062 446.53125 504.703125 449.71875 C 506.359375 468.0625 508.488281 486.367188 510.40625 504.683594 C 510.542969 505.996094 512.613281 506.007812 512.472656 504.683594 C 510.621094 487.003906 508.625 469.324219 506.945312 451.625 C 506.09375 442.699219 505.53125 433.722656 505.871094 424.808594 C 506.453125 420.59375 507.082031 416.386719 507.742188 412.195312 C 508.230469 414.539062 508.734375 416.878906 509.242188 419.21875 C 507.273438 447.332031 508.949219 475.578125 514.394531 503.324219 C 514.648438 504.628906 516.640625 504.074219 516.386719 502.773438 C 511.441406 477.601562 509.605469 451.96875 510.828125 426.417969 C 514.203125 441.597656 517.625 456.769531 519.484375 472.140625 C 519.699219 475.1875 520 478.21875 520.367188 481.25 C 520.796875 486.867188 521 492.515625 520.84375 498.199219 C 520.832031 498.773438 521.222656 499.046875 521.65625 499.125 C 521.628906 503.851562 521.605469 508.574219 521.617188 513.289062 C 521.621094 514.617188 523.6875 514.621094 523.683594 513.289062 C 523.675781 509.078125 523.703125 504.851562 523.734375 500.628906 C 524.765625 505.128906 525.945312 509.59375 527.292969 514.015625 C 527.679688 515.285156 529.679688 514.742188 529.285156 513.464844 C 528.957031 512.375 528.660156 511.273438 528.347656 510.179688 C 528.921875 510.292969 529.617188 510.023438 529.6875 509.265625 C 531.324219 491.414062 528.695312 473.628906 528.285156 455.789062 C 528.070312 446.648438 528.316406 437.515625 528.964844 428.410156 C 530.660156 436.960938 532.539062 445.488281 534.023438 454.066406 C 534.289062 455.582031 534.484375 457.101562 534.722656 458.617188 C 536.019531 475.882812 536.636719 493.199219 536.53125 510.53125 C 536.519531 511.863281 538.585938 511.867188 538.59375 510.53125 C 538.625 505.824219 538.601562 501.113281 538.519531 496.40625 C 538.769531 497.960938 539.097656 499.5 539.46875 501.039062 C 539.746094 505.46875 539.980469 509.898438 540.132812 514.335938 C 540.179688 515.660156 542.246094 515.671875 542.199219 514.335938 C 542.132812 512.476562 542.011719 510.617188 541.921875 508.757812 C 542.542969 509.6875 544.21875 509.207031 543.765625 508.046875 C 542.855469 505.734375 542.125 503.402344 541.546875 501.0625 C 541.140625 494.59375 540.5625 488.140625 539.882812 481.695312 C 540.292969 473.070312 541.953125 464.414062 543.871094 455.902344 C 544.644531 473.492188 546.828125 491.238281 546.640625 508.605469 C 546.621094 509.9375 548.6875 509.941406 548.707031 508.605469 C 548.925781 488.679688 545.90625 468.148438 545.609375 447.933594 C 548.027344 436.839844 549.675781 425.851562 550.726562 414.699219 C 550.71875 416.335938 550.71875 417.972656 550.78125 419.605469 C 548.765625 449.300781 544.03125 479.414062 556.324219 507.46875 C 556.855469 508.6875 558.636719 507.636719 558.109375 506.425781 C 547.824219 482.964844 549.722656 457.859375 551.78125 432.855469 C 552.601562 439.992188 553.777344 447.125 555.003906 454.21875 C 556.867188 464.992188 558.746094 475.765625 560.621094 486.53125 C 559.941406 493.101562 559.238281 499.652344 559.460938 506.296875 C 559.507812 507.628906 561.570312 507.632812 561.523438 506.296875 C 561.390625 502.253906 561.625 498.25 561.964844 494.253906 C 563.273438 501.789062 564.582031 509.328125 565.894531 516.863281 C 566.121094 518.171875 568.113281 517.621094 567.886719 516.316406 C 566.160156 506.363281 564.429688 496.414062 562.699219 486.464844 C 562.957031 484.023438 563.203125 481.570312 563.398438 479.101562 Z M 376.042969 448.003906 C 376.285156 432.050781 377.316406 416.113281 379.121094 400.296875 C 378.042969 416.195312 376.933594 432.097656 376.042969 448.003906 Z M 404.660156 462.734375 C 405.671875 472.46875 405.5 481.972656 404.863281 491.707031 C 404.589844 495.851562 404.34375 500.160156 404.726562 504.371094 C 402.246094 480.394531 400.910156 456.289062 400.539062 432.179688 C 401.851562 442.359375 403.597656 452.519531 404.660156 462.734375 Z M 414.410156 494.832031 C 413.984375 486.625 413.382812 478.421875 412.628906 470.234375 C 413.839844 480.222656 414.800781 490.242188 415.457031 500.292969 C 415.085938 498.476562 414.738281 496.65625 414.410156 494.832031 Z M 414.34375 467.1875 C 413.464844 460.199219 412.476562 453.226562 411.410156 446.261719 C 412.148438 432.410156 414.226562 418.667969 417.625 405.324219 C 414.734375 425.765625 413.609375 446.511719 414.34375 467.1875 Z M 439.886719 404.761719 C 439.957031 404.167969 440.019531 403.574219 440.082031 402.976562 C 440.148438 402.722656 440.199219 402.464844 440.265625 402.207031 C 440.304688 402.511719 440.339844 402.820312 440.378906 403.121094 C 440.210938 403.667969 440.042969 404.214844 439.886719 404.761719 Z M 431.710938 453.660156 C 432.5 444.203125 433.746094 434.808594 435.367188 425.46875 C 433.976562 437.386719 432.765625 449.351562 432.460938 461.269531 C 432.183594 459.363281 431.898438 457.457031 431.59375 455.550781 C 431.640625 454.925781 431.660156 454.289062 431.710938 453.660156 Z M 430.578125 480.378906 C 430.578125 475.289062 430.742188 470.199219 430.984375 465.117188 C 432.402344 475.625 433.257812 486.160156 432.871094 496.742188 C 430.671875 491.753906 430.578125 485.890625 430.578125 480.378906 Z M 434.738281 500.03125 C 434.816406 498.699219 434.871094 497.367188 434.910156 496.042969 C 435.253906 497.882812 435.617188 499.71875 436.046875 501.550781 C 435.585938 501.050781 435.125 500.558594 434.738281 500.03125 Z M 436.332031 435.324219 C 436.308594 439.839844 436.40625 444.359375 436.527344 448.863281 C 436.996094 466.125 437.488281 483.386719 437.96875 500.652344 C 433.050781 479.222656 434.046875 457.234375 436.332031 435.324219 Z M 447.597656 493.027344 C 447.054688 482.136719 445.933594 471.292969 444.167969 460.496094 C 441.851562 446.324219 439.105469 432.089844 439.414062 417.757812 C 439.800781 414.722656 440.378906 411.714844 441.0625 408.722656 C 444.566406 436.5 449.074219 465.007812 447.597656 493.027344 Z M 459.355469 439.382812 C 459.355469 439.363281 459.355469 439.34375 459.355469 439.332031 C 459.355469 439.339844 459.355469 439.351562 459.355469 439.363281 C 459.359375 439.367188 459.359375 439.371094 459.355469 439.382812 Z M 461 433.65625 C 460.792969 430.449219 460.6875 427.234375 460.71875 424.035156 C 461.492188 418.613281 462.605469 413.230469 464.210938 407.910156 C 464.183594 415.023438 463.800781 422.109375 462.1875 429.089844 C 461.839844 430.621094 461.414062 432.136719 461 433.65625 Z M 528.210938 403.726562 C 528.484375 405.417969 528.734375 407.109375 528.996094 408.796875 C 528.792969 410.316406 528.535156 411.828125 528.347656 413.347656 C 528.046875 411.261719 527.765625 409.175781 527.527344 407.085938 C 527.757812 405.964844 527.980469 404.847656 528.210938 403.726562 Z M 479.96875 482.964844 C 479.875 477.183594 479.945312 471.394531 480.085938 465.613281 C 482.070312 478.785156 483.214844 492.070312 483.679688 505.394531 C 479.375 499.148438 480.089844 490.230469 479.96875 482.964844 Z M 493.074219 449.429688 C 490.816406 435.730469 488.53125 421.960938 488.933594 408.105469 C 493.449219 422.460938 494.375 437.660156 495.289062 452.679688 C 495.414062 454.714844 495.542969 456.746094 495.664062 458.777344 C 495.558594 460.328125 495.460938 461.878906 495.382812 463.429688 C 494.613281 458.761719 493.84375 454.097656 493.074219 449.429688 Z M 497.382812 488.164062 C 497.421875 488.367188 497.453125 488.578125 497.484375 488.789062 C 497.734375 492.859375 497.980469 496.929688 498.226562 501 C 497.847656 496.71875 497.566406 492.445312 497.382812 488.164062 Z M 508.679688 406.417969 C 508.921875 404.917969 509.164062 403.421875 509.414062 401.921875 C 509.78125 403.070312 510.15625 404.21875 510.519531 405.359375 C 510.273438 407.542969 509.996094 409.730469 509.792969 411.910156 C 509.410156 410.082031 509.042969 408.25 508.679688 406.417969 Z M 512.019531 410.191406 C 515.316406 420.929688 518.171875 431.734375 519.828125 442.820312 C 519.425781 447.128906 519.15625 451.449219 519.066406 455.792969 C 516.835938 443.480469 513.984375 431.25 511.3125 419 C 511.515625 416.0625 511.722656 413.125 512.019531 410.191406 Z M 521.1875 456.28125 C 521.449219 461.769531 521.578125 467.261719 521.644531 472.769531 C 521.613281 472.496094 521.570312 472.226562 521.542969 471.949219 C 521.175781 466.71875 521.015625 461.46875 521.113281 456.207031 C 521.121094 456 521.132812 455.800781 521.136719 455.597656 C 521.152344 455.824219 521.183594 456.054688 521.1875 456.28125 Z M 527.710938 507.921875 C 526.125 502.128906 524.824219 496.273438 523.800781 490.367188 C 523.878906 478.246094 523.875 466.105469 523.136719 454.050781 C 522.90625 450.222656 522.457031 446.445312 521.902344 442.6875 C 522.820312 432.847656 524.429688 423.085938 526.289062 413.367188 C 526.675781 415.945312 527.109375 418.519531 527.570312 421.089844 C 526.53125 431.910156 526 442.777344 526.171875 453.671875 C 526.464844 471.773438 529.15625 489.828125 527.710938 507.921875 Z M 529.640625 421.214844 C 529.800781 419.546875 529.933594 417.871094 530.125 416.203125 C 531.105469 423.039062 531.949219 429.894531 532.699219 436.753906 C 531.632812 431.582031 530.574219 426.410156 529.640625 421.214844 Z M 545.695312 438.453125 C 545.992188 429.929688 546.976562 421.488281 549.066406 413.207031 C 548.703125 418.515625 548.203125 423.8125 547.414062 429.078125 C 546.949219 432.222656 546.34375 435.339844 545.695312 438.453125 Z M 552.808594 419.769531 C 553.179688 414.453125 553.476562 409.152344 553.554688 403.890625 C 556.910156 420.011719 560.058594 436.210938 561.277344 452.648438 C 561.925781 461.324219 562.027344 470.046875 561.359375 478.726562 C 560.160156 471.832031 558.960938 464.945312 557.761719 458.054688 C 555.5625 445.375 553.273438 432.589844 552.808594 419.769531 Z M 552.808594 419.769531 " fill-opacity="1" fill-rule="nonzero"/><path fill="#e1bc91" d="M 600.78125 396.769531 C 601.214844 396.460938 601.59375 396.09375 601.824219 395.605469 C 602.449219 394.28125 601.871094 392.597656 600.734375 391.679688 C 598.84375 390.140625 595.042969 390.316406 592.972656 391.535156 C 590.207031 393.160156 590.945312 396.476562 593.84375 397.347656 C 594.035156 397.410156 594.238281 397.417969 594.433594 397.464844 C 590.492188 416.230469 587.769531 435.230469 586.5 454.375 C 586.292969 457.515625 586.1875 460.664062 586.054688 463.808594 C 585.457031 459.230469 584.746094 454.664062 583.945312 450.109375 C 582.460938 441.617188 580.859375 433.136719 579.230469 424.671875 C 578.75 416.386719 577.960938 408.132812 576.832031 399.914062 C 577.757812 399.578125 578.585938 399.035156 578.996094 398.164062 C 579.617188 396.835938 579.039062 395.15625 577.902344 394.234375 C 576.011719 392.695312 572.210938 392.871094 570.140625 394.09375 C 567.375 395.714844 568.113281 399.035156 571.011719 399.910156 C 571.359375 400.011719 571.722656 400.046875 572.078125 400.113281 C 571.449219 403.039062 570.945312 405.972656 570.613281 408.914062 C 563.207031 439.207031 562.257812 470.039062 566.304688 501.15625 C 566.472656 502.457031 568.539062 502.46875 568.367188 501.15625 C 564.894531 474.441406 565.113281 447.945312 569.96875 421.816406 C 570.007812 427.8125 570.46875 433.816406 571.207031 439.800781 C 570.691406 444.453125 570.296875 449.109375 570.203125 453.785156 C 569.839844 471.945312 572.417969 489.988281 574.96875 507.917969 C 575.15625 509.226562 577.144531 508.671875 576.960938 507.367188 C 574.335938 488.921875 571.710938 470.351562 572.324219 451.667969 C 572.355469 450.753906 572.433594 449.84375 572.484375 448.929688 C 572.582031 449.5625 572.675781 450.195312 572.777344 450.832031 C 574.46875 461.140625 576.226562 471.34375 577.53125 481.597656 C 577.351562 489.300781 577.160156 497 577.039062 504.671875 C 577.015625 506 579.082031 506.003906 579.105469 504.671875 C 579.132812 503.035156 579.171875 501.386719 579.203125 499.75 C 579.40625 503.578125 579.542969 507.417969 579.507812 511.292969 C 579.5 512.621094 581.566406 512.621094 581.574219 511.292969 C 581.664062 501.066406 580.855469 491.023438 579.597656 481.015625 C 579.910156 467.03125 580.144531 453.023438 579.804688 439.046875 C 580.402344 442.273438 581.035156 445.496094 581.613281 448.730469 C 584.683594 465.902344 586.824219 483.242188 584.828125 500.664062 C 584.714844 501.636719 585.792969 501.867188 586.441406 501.421875 C 586.941406 504.117188 587.738281 506.726562 589.09375 509.136719 C 589.746094 510.300781 591.527344 509.253906 590.878906 508.09375 C 588.308594 503.527344 587.632812 497.914062 587.511719 492.273438 C 587.640625 489.347656 587.667969 486.425781 587.609375 483.5 C 587.648438 482.121094 587.679688 480.769531 587.683594 479.464844 C 587.722656 470.363281 588.0625 461.265625 588.71875 452.183594 C 590.039062 433.871094 592.703125 415.703125 596.480469 397.746094 C 596.503906 397.746094 596.527344 397.746094 596.554688 397.746094 C 596.664062 399.652344 596.78125 401.558594 596.84375 403.460938 C 594.140625 418.621094 591.707031 433.851562 590.925781 449.246094 C 589.921875 468.953125 591.902344 488.617188 593.894531 508.199219 C 594.023438 509.511719 596.09375 509.523438 595.960938 508.199219 C 595.941406 508.03125 595.925781 507.871094 595.910156 507.707031 C 596.261719 508.855469 596.574219 509.996094 596.976562 511.144531 C 597.417969 512.386719 599.414062 511.851562 598.972656 510.59375 C 591.984375 490.878906 593.203125 471.847656 596.160156 451.515625 C 597.226562 444.15625 597.9375 436.800781 598.425781 429.429688 C 599.519531 456.375 600.625 483.324219 601.726562 510.265625 C 601.78125 511.589844 603.847656 511.601562 603.789062 510.265625 C 602.761719 485.09375 601.734375 459.921875 600.707031 434.753906 C 602.886719 449.558594 605.976562 464.285156 607.992188 479.09375 C 607.824219 491.261719 607.148438 503.410156 605.949219 515.449219 C 605.824219 516.773438 607.886719 516.761719 608.015625 515.449219 C 608.71875 508.382812 609.199219 501.273438 609.566406 494.152344 C 610.042969 500.925781 610.167969 507.734375 609.707031 514.585938 C 609.617188 515.914062 611.6875 515.910156 611.773438 514.585938 C 612.574219 502.632812 611.65625 490.828125 610.054688 479.074219 C 610.4375 451.351562 607.824219 423.546875 600.78125 396.769531 Z M 572.691406 409.109375 C 572.945312 408.078125 573.253906 407.054688 573.523438 406.023438 C 573.84375 407.691406 574.171875 409.359375 574.488281 411.035156 C 574.054688 417.480469 573.222656 423.894531 572.371094 430.316406 C 571.875 423.242188 571.886719 416.164062 572.691406 409.109375 Z M 577.785156 468.296875 C 577.167969 464.429688 576.527344 460.554688 575.851562 456.667969 C 574.863281 450.980469 573.960938 445.265625 573.257812 439.539062 C 574.046875 432.46875 575.117188 425.421875 575.898438 418.351562 C 576.339844 420.632812 576.773438 422.917969 577.207031 425.195312 C 578.027344 439.523438 578.027344 453.917969 577.785156 468.296875 Z M 600.285156 403.421875 C 605.082031 423.6875 607.445312 444.480469 607.933594 465.347656 C 604.453125 444.785156 600.105469 424.300781 600.285156 403.421875 Z M 593.214844 457.457031 C 593.058594 458.5625 592.945312 459.65625 592.808594 460.757812 C 592.800781 457.652344 592.757812 454.550781 592.882812 451.445312 C 593.371094 439.402344 594.953125 427.457031 596.882812 415.566406 C 596.613281 429.558594 595.203125 443.421875 593.214844 457.457031 Z M 593.214844 457.457031 " fill-opacity="1" fill-rule="nonzero"/></svg>