<svg xmlns="http://www.w3.org/2000/svg" xmlns:xlink="http://www.w3.org/1999/xlink" width="1366" zoomAndPan="magnify" viewBox="0 0 1024.5 576" height="768" preserveAspectRatio="xMidYMid meet" version="1.0"><defs><clipPath id="38e9e39b09"><path d="M 340 82 L 684.816406 82 L 684.816406 495 L 340 495 Z M 340 82 " clip-rule="nonzero"/></clipPath><clipPath id="4fdeea65c4"><path d="M 361 78.175781 L 664 78.175781 L 664 498 L 361 498 Z M 361 78.175781 " clip-rule="nonzero"/></clipPath></defs><g clip-path="url(#38e9e39b09)"><path fill="#998f74" d="M 680.449219 86.964844 C 679.257812 86.78125 677.800781 86.671875 676.074219 86.671875 L 627.609375 86.671875 C 626.769531 80.90625 624.648438 80.90625 623.804688 86.671875 L 570.921875 86.671875 C 570.078125 80.90625 567.957031 80.90625 567.113281 86.671875 L 514.234375 86.671875 C 513.394531 80.90625 511.269531 80.90625 510.425781 86.671875 L 457.542969 86.671875 C 456.703125 80.90625 454.582031 80.90625 453.738281 86.671875 L 400.855469 86.671875 C 400.015625 80.90625 397.894531 80.90625 397.050781 86.671875 L 348.699219 86.671875 C 346.917969 86.671875 345.425781 86.789062 344.214844 86.984375 C 343.199219 79.351562 340.007812 81.128906 340.007812 92.324219 L 340.007812 484.9375 C 340.007812 497.289062 343.882812 498.179688 344.449219 487.632812 C 345.617188 487.804688 347.03125 487.910156 348.699219 487.910156 L 396.785156 487.910156 C 397.347656 497.257812 400.558594 497.257812 401.121094 487.910156 L 453.472656 487.910156 C 454.035156 497.257812 457.242188 497.257812 457.808594 487.910156 L 510.160156 487.910156 C 510.722656 497.257812 513.933594 497.257812 514.5 487.910156 L 566.84375 487.910156 C 567.410156 497.257812 570.621094 497.257812 571.1875 487.910156 L 623.535156 487.910156 C 624.101562 497.257812 627.308594 497.257812 627.871094 487.910156 L 676.070312 487.910156 C 677.6875 487.910156 679.0625 487.8125 680.207031 487.648438 C 680.777344 498.179688 684.648438 497.28125 684.648438 484.9375 L 684.648438 92.324219 C 684.648438 81.136719 681.464844 79.355469 680.449219 86.964844 Z M 457.894531 261.210938 L 510.074219 261.210938 L 510.074219 313.371094 L 457.894531 313.371094 Z M 453.386719 313.371094 L 401.207031 313.371094 L 401.207031 261.210938 L 453.386719 261.210938 Z M 514.589844 261.210938 L 566.761719 261.210938 L 566.761719 313.371094 L 514.589844 313.371094 Z M 571.277344 261.210938 L 623.453125 261.210938 L 623.453125 313.371094 L 571.277344 313.371094 Z M 571.277344 256.699219 L 571.277344 204.539062 L 623.453125 204.539062 L 623.453125 256.699219 Z M 566.761719 256.699219 L 514.585938 256.699219 L 514.585938 204.539062 L 566.761719 204.539062 Z M 510.074219 256.699219 L 457.894531 256.699219 L 457.894531 204.539062 L 510.074219 204.539062 Z M 453.386719 256.699219 L 401.207031 256.699219 L 401.207031 204.539062 L 453.386719 204.539062 Z M 396.699219 256.699219 L 348.699219 256.699219 C 347.0625 256.699219 345.675781 256.796875 344.523438 256.964844 L 344.523438 204.269531 C 345.675781 204.4375 347.0625 204.539062 348.699219 204.539062 L 396.699219 204.539062 Z M 348.699219 261.210938 L 396.699219 261.210938 L 396.699219 313.371094 L 348.699219 313.371094 C 347.0625 313.371094 345.675781 313.472656 344.523438 313.636719 L 344.523438 260.945312 C 345.675781 261.113281 347.0625 261.210938 348.699219 261.210938 Z M 348.699219 317.886719 L 396.699219 317.886719 L 396.699219 370.050781 L 348.699219 370.050781 C 347.0625 370.050781 345.675781 370.148438 344.523438 370.316406 L 344.523438 317.617188 C 345.675781 317.785156 347.0625 317.886719 348.699219 317.886719 Z M 401.207031 317.886719 L 453.386719 317.886719 L 453.386719 370.050781 L 401.207031 370.050781 Z M 457.894531 317.886719 L 510.074219 317.886719 L 510.074219 370.050781 L 457.894531 370.050781 Z M 510.074219 374.5625 L 510.074219 426.722656 L 457.894531 426.722656 L 457.894531 374.5625 Z M 514.589844 374.5625 L 566.761719 374.5625 L 566.761719 426.722656 L 514.589844 426.722656 Z M 514.589844 370.050781 L 514.589844 317.886719 L 566.761719 317.886719 L 566.761719 370.050781 Z M 571.277344 317.886719 L 623.453125 317.886719 L 623.453125 370.050781 L 571.277344 370.050781 Z M 627.960938 317.886719 L 676.074219 317.886719 C 677.65625 317.886719 679.007812 317.789062 680.136719 317.632812 L 680.136719 370.300781 C 679.007812 370.144531 677.65625 370.050781 676.074219 370.050781 L 627.960938 370.050781 Z M 676.074219 313.371094 L 627.964844 313.371094 L 627.964844 261.210938 L 676.074219 261.210938 C 677.65625 261.210938 679.007812 261.117188 680.140625 260.960938 L 680.140625 313.621094 C 679.007812 313.464844 677.65625 313.371094 676.074219 313.371094 Z M 676.074219 256.699219 L 627.964844 256.699219 L 627.964844 204.539062 L 676.074219 204.539062 C 677.65625 204.539062 679.007812 204.445312 680.140625 204.285156 L 680.140625 256.949219 C 679.007812 256.792969 677.65625 256.699219 676.074219 256.699219 Z M 676.074219 200.023438 L 627.964844 200.023438 L 627.964844 147.859375 L 676.074219 147.859375 C 677.65625 147.859375 679.007812 147.765625 680.140625 147.609375 L 680.140625 200.273438 C 679.007812 200.117188 677.65625 200.023438 676.074219 200.023438 Z M 623.453125 200.023438 L 571.277344 200.023438 L 571.277344 147.859375 L 623.453125 147.859375 Z M 566.761719 200.023438 L 514.585938 200.023438 L 514.585938 147.859375 L 566.761719 147.859375 Z M 510.074219 200.023438 L 457.894531 200.023438 L 457.894531 147.859375 L 510.074219 147.859375 Z M 453.386719 200.023438 L 401.207031 200.023438 L 401.207031 147.859375 L 453.386719 147.859375 Z M 396.699219 200.023438 L 348.699219 200.023438 C 347.0625 200.023438 345.675781 200.125 344.523438 200.292969 L 344.523438 147.59375 C 345.675781 147.761719 347.0625 147.859375 348.699219 147.859375 L 396.699219 147.859375 Z M 344.519531 374.296875 C 345.675781 374.464844 347.0625 374.5625 348.699219 374.5625 L 396.699219 374.5625 L 396.699219 426.722656 L 348.699219 426.722656 C 347.0625 426.722656 345.675781 426.824219 344.523438 426.988281 L 344.523438 374.296875 Z M 401.207031 374.5625 L 453.386719 374.5625 L 453.386719 426.722656 L 401.207031 426.722656 Z M 453.386719 431.238281 L 453.386719 483.394531 L 401.207031 483.394531 L 401.207031 431.238281 Z M 457.894531 431.238281 L 510.074219 431.238281 L 510.074219 483.394531 L 457.894531 483.394531 Z M 514.589844 431.238281 L 566.761719 431.238281 L 566.761719 483.394531 L 514.589844 483.394531 Z M 571.277344 431.238281 L 623.453125 431.238281 L 623.453125 483.394531 L 571.277344 483.394531 Z M 571.277344 426.722656 L 571.277344 374.5625 L 623.453125 374.5625 L 623.453125 426.722656 Z M 627.960938 374.5625 L 676.074219 374.5625 C 677.65625 374.5625 679.007812 374.46875 680.136719 374.3125 L 680.136719 426.976562 C 679.007812 426.816406 677.65625 426.722656 676.074219 426.722656 L 627.960938 426.722656 Z M 676.074219 91.191406 C 677.667969 91.191406 679.023438 91.09375 680.160156 90.9375 C 680.148438 91.382812 680.140625 91.84375 680.140625 92.324219 L 680.140625 143.597656 C 679.007812 143.441406 677.65625 143.34375 676.074219 143.34375 L 627.964844 143.34375 L 627.964844 92.324219 C 627.964844 91.933594 627.960938 91.558594 627.953125 91.191406 Z M 623.464844 91.191406 C 623.457031 91.558594 623.453125 91.933594 623.453125 92.324219 L 623.453125 143.34375 L 571.277344 143.34375 L 571.277344 92.324219 C 571.277344 91.933594 571.269531 91.558594 571.261719 91.191406 Z M 566.773438 91.191406 C 566.765625 91.558594 566.761719 91.933594 566.761719 92.324219 L 566.761719 143.34375 L 514.585938 143.34375 L 514.585938 92.324219 C 514.585938 91.933594 514.582031 91.558594 514.574219 91.191406 Z M 510.085938 91.191406 C 510.078125 91.558594 510.074219 91.933594 510.074219 92.324219 L 510.074219 143.34375 L 457.894531 143.34375 L 457.894531 92.324219 C 457.894531 91.933594 457.890625 91.558594 457.882812 91.191406 Z M 453.398438 91.191406 C 453.390625 91.558594 453.386719 91.933594 453.386719 92.324219 L 453.386719 143.34375 L 401.207031 143.34375 L 401.207031 92.324219 C 401.207031 91.933594 401.203125 91.558594 401.195312 91.191406 Z M 348.699219 91.191406 L 396.710938 91.191406 C 396.703125 91.558594 396.699219 91.933594 396.699219 92.324219 L 396.699219 143.34375 L 348.699219 143.34375 C 347.0625 143.34375 345.675781 143.445312 344.523438 143.613281 L 344.523438 92.324219 C 344.523438 91.835938 344.515625 91.371094 344.503906 90.921875 C 345.660156 91.089844 347.054688 91.191406 348.699219 91.191406 Z M 344.519531 483.664062 L 344.519531 430.96875 C 345.675781 431.136719 347.0625 431.238281 348.699219 431.238281 L 396.699219 431.238281 L 396.699219 483.394531 L 348.699219 483.394531 C 347.0625 483.398438 345.675781 483.496094 344.519531 483.664062 Z M 627.960938 483.398438 L 627.960938 431.238281 L 676.074219 431.238281 C 677.65625 431.238281 679.007812 431.144531 680.136719 430.984375 L 680.136719 483.648438 C 679.007812 483.492188 677.65625 483.398438 676.074219 483.398438 Z M 627.960938 483.398438 " fill-opacity="1" fill-rule="nonzero"/></g><g clip-path="url(#4fdeea65c4)"><path fill="#d5c3bd" d="M 370.4375 97.601562 C 365.648438 97.847656 361.65625 95.179688 361.253906 93.007812 C 360.09375 86.777344 362.949219 80.191406 368.640625 79.117188 C 373.6875 78.164062 379.300781 80.777344 380.117188 87.394531 C 380.96875 94.269531 376.230469 97.300781 370.4375 97.601562 Z M 663.570312 87.394531 C 662.753906 80.777344 657.144531 78.164062 652.097656 79.117188 C 646.402344 80.195312 643.550781 86.777344 644.710938 93.007812 C 645.109375 95.179688 649.105469 97.847656 653.894531 97.601562 C 659.683594 97.300781 664.425781 94.269531 663.570312 87.394531 Z M 380.117188 487.03125 C 379.300781 480.414062 373.6875 477.800781 368.644531 478.753906 C 362.949219 479.828125 360.097656 486.414062 361.253906 492.640625 C 361.65625 494.816406 365.648438 497.484375 370.441406 497.238281 C 376.230469 496.9375 380.96875 493.90625 380.117188 487.03125 Z M 663.570312 487.03125 C 662.753906 480.414062 657.144531 477.800781 652.097656 478.753906 C 646.402344 479.828125 643.550781 486.414062 644.710938 492.640625 C 645.109375 494.816406 649.105469 497.484375 653.894531 497.238281 C 659.683594 496.9375 664.425781 493.90625 663.570312 487.03125 Z M 393.023438 250.6875 C 390.878906 250.710938 390.289062 251.78125 390.320312 253.691406 C 390.410156 260.890625 390.339844 268.101562 390.546875 275.292969 C 390.914062 287.398438 391.34375 299.5 391.976562 311.597656 C 392.277344 317.402344 392.777344 323.230469 393.765625 328.941406 C 394.613281 333.769531 399.070312 337.269531 403.902344 337.457031 C 410.9375 337.738281 417.984375 337.984375 425.019531 337.894531 C 437.605469 337.75 450.1875 337.355469 462.773438 337.046875 C 464.835938 336.992188 466.230469 336.269531 466.34375 333.859375 C 466.683594 326.433594 467.558594 319.015625 467.433594 311.605469 C 467.160156 295.960938 466.503906 276.78125 465.886719 261.148438 C 465.8125 259.324219 465.320312 257.539062 465.050781 255.71875 C 464.597656 252.527344 462.863281 251.144531 459.59375 250.851562 C 446.261719 249.664062 432.867188 251.792969 417.585938 250.261719 C 410.675781 250.398438 401.851562 250.59375 393.023438 250.6875 Z M 560.433594 370.527344 C 558.289062 370.550781 557.699219 371.625 557.730469 373.53125 C 557.820312 380.734375 557.75 387.941406 557.957031 395.132812 C 558.324219 407.238281 558.753906 419.339844 559.386719 431.441406 C 559.691406 437.242188 560.1875 443.070312 561.179688 448.78125 C 562.023438 453.609375 566.480469 457.109375 571.3125 457.296875 C 578.351562 457.578125 585.394531 457.824219 592.429688 457.738281 C 605.015625 457.59375 617.601562 457.195312 630.183594 456.886719 C 632.246094 456.835938 633.640625 456.109375 633.757812 453.699219 C 634.09375 446.277344 634.96875 438.855469 634.84375 431.445312 C 634.574219 415.800781 633.917969 396.621094 633.296875 380.988281 C 633.226562 379.164062 632.734375 377.378906 632.460938 375.558594 C 632.007812 372.367188 630.277344 370.984375 627.003906 370.691406 C 613.671875 369.503906 600.277344 371.632812 585 370.101562 C 578.085938 370.238281 569.261719 370.433594 560.433594 370.527344 Z M 560.433594 370.527344 " fill-opacity="1" fill-rule="nonzero"/></g><path fill="#fffaf6" d="M 419.402344 257.621094 C 432.226562 258.753906 443.476562 257.175781 454.667969 258.0625 C 457.414062 258.28125 458.867188 259.304688 459.253906 261.679688 C 459.46875 263.03125 459.890625 264.359375 459.949219 265.710938 C 460.464844 277.335938 461.015625 291.585938 461.246094 303.21875 C 461.347656 308.730469 460.617188 314.238281 460.339844 319.757812 C 460.238281 321.550781 459.058594 322.085938 457.335938 322.132812 C 446.769531 322.359375 436.199219 322.652344 425.636719 322.765625 C 419.730469 322.820312 413.816406 322.648438 407.917969 322.4375 C 403.855469 322.289062 400.109375 319.691406 399.410156 316.109375 C 398.570312 311.863281 398.152344 307.523438 397.898438 303.21875 C 397.371094 294.222656 397.011719 285.230469 396.703125 276.21875 C 396.519531 270.882812 396.589844 265.523438 396.511719 260.179688 C 396.492188 258.75 396.976562 257.957031 398.78125 257.933594 C 406.1875 257.867188 413.59375 257.71875 419.402344 257.621094 Z M 586.816406 377.460938 C 599.636719 378.59375 610.886719 377.015625 622.082031 377.902344 C 624.824219 378.121094 626.277344 379.144531 626.664062 381.519531 C 626.878906 382.871094 627.300781 384.199219 627.359375 385.550781 C 627.875 397.175781 628.425781 411.429688 628.65625 423.058594 C 628.757812 428.570312 628.03125 434.082031 627.75 439.597656 C 627.648438 441.390625 626.46875 441.925781 624.746094 441.972656 C 614.179688 442.199219 603.609375 442.496094 593.046875 442.605469 C 587.144531 442.660156 581.226562 442.492188 575.328125 442.277344 C 571.265625 442.128906 567.519531 439.53125 566.820312 435.949219 C 565.984375 431.707031 565.5625 427.363281 565.308594 423.058594 C 564.78125 414.0625 564.421875 405.070312 564.113281 396.0625 C 563.929688 390.722656 564 385.363281 563.921875 380.019531 C 563.902344 378.589844 564.386719 377.796875 566.191406 377.773438 C 573.597656 377.707031 581.003906 377.5625 586.816406 377.460938 Z M 586.816406 377.460938 " fill-opacity="1" fill-rule="evenodd"/><path fill="#d19861" d="M 439.636719 294.171875 C 438.636719 294.871094 435.128906 297.300781 425.542969 297.222656 C 423.503906 297.199219 421.355469 296.347656 419.539062 295.347656 C 417.1875 294.074219 417.402344 291.949219 419.738281 290.539062 C 420.269531 290.21875 422.316406 289.71875 422.578125 289.121094 C 423.09375 290.148438 427.085938 293.933594 428.6875 293.066406 C 431.535156 291.503906 434.542969 290.960938 437.628906 292.207031 C 438.429688 292.539062 438.972656 293.5 439.636719 294.171875 Z M 418.132812 296.585938 C 419.335938 301.035156 420.359375 305.554688 421.902344 309.886719 C 422.394531 311.269531 424.082031 312.585938 425.539062 313.1875 C 427.324219 313.9375 429.4375 314.128906 431.417969 314.15625 C 434.359375 314.195312 436.28125 313.34375 436.824219 310.265625 C 437.335938 307.359375 438.285156 304.523438 438.972656 301.640625 C 439.367188 299.96875 439.605469 298.265625 439.886719 296.769531 C 432.390625 297.207031 425.300781 300.191406 418.375 295.949219 C 418.265625 296.21875 418.085938 296.429688 418.132812 296.585938 Z M 432.050781 237.226562 L 424.078125 237.226562 L 424.078125 261.132812 L 432.050781 261.132812 Z M 599.460938 357.066406 L 591.488281 357.066406 L 591.488281 380.976562 L 599.460938 380.976562 Z M 532.449219 150.449219 C 529.238281 150.484375 528.355469 152.230469 528.398438 155.324219 C 528.535156 167.015625 528.429688 178.71875 528.742188 190.398438 C 529.289062 210.042969 529.933594 229.691406 530.878906 249.335938 C 531.339844 258.753906 532.082031 268.210938 533.566406 277.488281 C 534.832031 285.320312 541.503906 291.003906 548.75 291.3125 C 559.285156 291.765625 569.847656 292.164062 580.382812 292.023438 C 599.238281 291.792969 618.085938 291.148438 636.9375 290.648438 C 640.03125 290.5625 642.121094 289.382812 642.292969 285.472656 C 642.800781 273.417969 644.109375 261.371094 643.921875 249.339844 C 643.519531 223.945312 642.535156 192.8125 641.609375 167.433594 C 641.496094 164.46875 640.757812 161.570312 640.351562 158.617188 C 639.675781 153.4375 637.078125 151.191406 632.183594 150.714844 C 612.210938 148.789062 592.136719 152.242188 569.25 149.757812 C 558.890625 149.980469 545.671875 150.296875 532.449219 150.449219 Z M 532.449219 150.449219 " fill-opacity="1" fill-rule="nonzero"/><path fill="#a14b3c" d="M 438.617188 280.390625 C 437.917969 284.820312 434.324219 294.484375 429.785156 294.828125 L 429.785156 294.832031 C 429.75 294.832031 429.71875 294.820312 429.679688 294.828125 L 429.785156 295.175781 C 429.671875 295.144531 429.570312 295.09375 429.457031 295.054688 C 429.425781 295.105469 429.386719 295.160156 429.351562 295.210938 C 429.308594 295.183594 429.257812 295.15625 429.203125 295.125 L 429.257812 294.976562 C 429.136719 294.929688 429.03125 294.867188 428.917969 294.796875 C 428.902344 294.796875 428.878906 294.796875 428.859375 294.796875 C 428.816406 294.851562 428.777344 294.902344 428.746094 294.941406 L 428.730469 294.796875 C 423.296875 294.070312 419.839844 284.207031 419.390625 279.75 L 425.398438 288.46875 C 425.097656 287.378906 424.835938 286.328125 424.542969 285.507812 C 422.96875 281.035156 422.769531 277.015625 422.769531 272.039062 L 428.433594 290.726562 L 426.710938 266.898438 C 428.914062 270.117188 428.546875 275.601562 429.390625 279.269531 C 429.707031 280.621094 430.113281 281.957031 430.414062 283.316406 L 432.0625 267.558594 C 433.316406 271.660156 433.453125 277.242188 433.109375 281.613281 C 432.902344 284.296875 431.925781 286.742188 431.222656 289.226562 L 436.191406 274.65625 C 438.078125 276.210938 436.585938 281.9375 435.300781 285.335938 Z M 612.308594 426.890625 C 608.304688 430.910156 603.730469 433.984375 598.539062 436.347656 C 593.976562 438.433594 589.960938 437.300781 586.675781 434.480469 C 582.386719 430.796875 578.621094 426.476562 574.890625 422.199219 C 574.144531 421.328125 574.574219 419.433594 574.46875 418.011719 C 575.785156 418.03125 577.351562 417.59375 578.371094 418.15625 C 580.953125 419.582031 583.289062 421.457031 585.714844 423.15625 C 584.125 420.96875 582.421875 418.855469 581.015625 416.554688 C 580.535156 415.785156 580.445312 414.324219 580.886719 413.605469 C 581.179688 413.117188 582.710938 413.210938 583.660156 413.316406 C 586.335938 413.625 588.261719 415.136719 589.851562 417.285156 C 591.75 419.839844 593.976562 419.964844 596.3125 417.800781 C 598.507812 415.769531 600.601562 413.703125 603.886719 413.4375 C 606.40625 413.230469 607.855469 414.382812 607.320312 416.800781 C 607.015625 418.164062 606.511719 419.808594 605.523438 420.628906 C 602.683594 422.972656 599.578125 425.011719 596.507812 427.050781 C 594.652344 428.292969 592.78125 427.964844 590.984375 426.699219 C 589.726562 425.820312 588.398438 425.042969 587.105469 424.222656 C 589.742188 426.648438 592.378906 429.0625 595.230469 431.683594 C 596.855469 430.117188 598.53125 428.234375 600.476562 426.691406 C 603.027344 424.667969 605.671875 422.75 608.464844 421.105469 C 610.089844 420.144531 612.25 419.582031 613.601562 421.625 C 614.949219 423.664062 613.832031 425.351562 612.308594 426.890625 Z M 586.144531 416.433594 C 586.246094 416.445312 586.335938 416.46875 586.441406 416.476562 C 585.308594 415.628906 583.996094 414.949219 582.355469 414.617188 C 582.851562 415.75 583.464844 416.84375 584.171875 417.882812 C 584.339844 417.023438 584.984375 416.339844 586.144531 416.433594 Z M 593.449219 415.714844 C 594.09375 415.972656 598.902344 414.753906 600.167969 413.597656 C 602.53125 411.433594 604.753906 409.046875 606.628906 406.457031 C 607.148438 405.738281 606.484375 403.875 605.882812 402.804688 C 605.683594 402.449219 603.863281 402.699219 602.976562 403.101562 C 601.464844 403.777344 600.109375 404.777344 598.683594 405.648438 C 598.992188 403.917969 599.71875 402.488281 600.433594 401.0625 C 602.378906 397.140625 602.226562 393.136719 600.519531 389.238281 C 600.15625 388.414062 598.695312 387.527344 597.832031 387.609375 C 596.972656 387.691406 595.453125 390.148438 595.417969 390.347656 C 595.390625 390.414062 594.445312 395.371094 594.527344 397.769531 C 594.648438 401.117188 595.390625 404.4375 595.898438 407.925781 C 593.980469 405.945312 592.332031 403.902344 590.351562 402.261719 C 588.425781 400.652344 586.421875 401.554688 586.203125 403.851562 C 585.792969 408.242188 589.339844 414.09375 593.449219 415.714844 Z M 550.273438 136.722656 L 542.300781 136.722656 L 542.300781 160.628906 L 550.273438 160.628906 Z M 574.640625 276.277344 L 574.695312 275.492188 C 577.457031 237.503906 588.253906 205.8125 591.828125 197.703125 C 592.335938 196.554688 592.859375 196.007812 593.457031 196.007812 C 593.753906 196.007812 594.039062 196.15625 594.234375 196.425781 C 594.855469 197.308594 594.585938 199.730469 593.542969 202.625 C 585.117188 226.140625 580.035156 250.636719 578.488281 275.457031 L 578.445312 276.09375 L 577.808594 276.09375 C 577.097656 276.09375 576.347656 276.128906 575.421875 276.214844 Z M 593.21875 197.921875 C 593.175781 198.019531 593.113281 198.121094 593.0625 198.25 C 589.546875 206.25 578.933594 237.363281 576.09375 274.808594 C 576.472656 274.777344 576.828125 274.765625 577.175781 274.757812 C 578.792969 250.023438 583.863281 225.605469 592.277344 202.171875 C 592.992188 200.148438 593.195312 198.726562 593.21875 197.921875 Z M 583.078125 250.316406 C 582.902344 250.316406 582.71875 250.316406 582.546875 250.304688 L 581.78125 250.273438 L 581.917969 249.527344 C 583.375 240.445312 602.300781 227.09375 607.589844 227.09375 C 607.675781 227.09375 607.773438 227.09375 607.859375 227.09375 C 608.804688 227.1875 609.355469 227.855469 609.328125 228.878906 C 609.109375 233.953125 594.652344 250.316406 583.078125 250.316406 Z M 607.589844 228.429688 C 602.863281 228.429688 585.675781 240.617188 583.410156 248.96875 C 594.277344 248.632812 607.804688 232.710938 607.976562 228.824219 C 607.984375 228.464844 607.921875 228.460938 607.757812 228.441406 C 607.695312 228.429688 607.652344 228.429688 607.589844 228.429688 Z M 577.433594 250.875 L 576.667969 250.8125 C 564.914062 249.832031 553.535156 229.941406 553.742188 224.894531 C 553.824219 223.125 555.027344 222.996094 555.394531 222.996094 L 555.488281 222.996094 C 560.578125 223.210938 577.089844 240.929688 577.398438 250.113281 Z M 555.410156 224.351562 C 555.28125 224.351562 555.121094 224.359375 555.097656 224.945312 C 554.914062 229.488281 565.402344 247.640625 575.988281 249.363281 C 574.820312 240.671875 559.945312 224.535156 555.421875 224.351562 C 555.421875 224.351562 555.421875 224.351562 555.410156 224.351562 Z M 590.035156 226.585938 C 589.160156 226.585938 588.320312 226.519531 587.539062 226.347656 L 586.785156 226.195312 L 587.035156 225.472656 C 589.558594 217.882812 607.222656 208.785156 612.984375 208.785156 C 613.339844 208.785156 613.664062 208.8125 613.953125 208.894531 C 614.765625 209.089844 615.183594 209.722656 615.078125 210.578125 C 614.609375 214.472656 600.847656 226.585938 590.035156 226.585938 Z M 588.613281 225.152344 C 589.074219 225.214844 589.546875 225.238281 590.035156 225.238281 C 598.726562 225.238281 610.476562 216.222656 613.273438 211.539062 C 613.855469 210.566406 613.746094 210.253906 613.746094 210.234375 C 613.746094 210.234375 613.707031 210.210938 613.621094 210.1875 C 613.445312 210.15625 613.238281 210.125 612.984375 210.125 C 607.824219 210.125 591.8125 218.289062 588.613281 225.152344 Z M 582.859375 226.109375 L 582.136719 225.933594 C 571.714844 223.359375 564.414062 204.320312 565.035156 199.316406 C 565.238281 197.605469 566.234375 197.429688 566.652344 197.429688 C 566.765625 197.429688 566.878906 197.441406 567.011719 197.476562 C 571.617188 198.429688 584.035156 216.953125 582.964844 225.363281 Z M 566.65625 198.777344 C 566.515625 198.777344 566.40625 199.128906 566.363281 199.480469 C 565.824219 203.953125 572.492188 221.277344 581.671875 224.402344 C 581.835938 216.328125 570.789062 199.628906 566.730469 198.789062 C 566.707031 198.789062 566.671875 198.777344 566.65625 198.777344 Z M 596.066406 205.605469 C 595.027344 205.605469 594.039062 205.484375 593.140625 205.238281 L 592.40625 205.042969 L 592.675781 204.335938 C 595.277344 197.835938 610.476562 190.96875 615.972656 190.96875 C 616.457031 190.96875 616.847656 191.019531 617.171875 191.121094 C 617.878906 191.34375 618.257812 191.953125 618.160156 192.707031 C 617.609375 196.246094 605.011719 205.605469 596.066406 205.605469 Z M 594.292969 204.117188 C 594.855469 204.203125 595.449219 204.257812 596.066406 204.257812 C 603.425781 204.257812 613.1875 197.527344 616.050781 193.867188 C 616.769531 192.941406 616.824219 192.53125 616.824219 192.425781 C 616.8125 192.425781 616.792969 192.417969 616.769531 192.417969 C 616.585938 192.347656 616.296875 192.320312 615.972656 192.320312 C 611.226562 192.320312 597.449219 198.464844 594.292969 204.117188 Z M 589.136719 204.835938 L 588.414062 204.605469 C 579.484375 201.84375 574.023438 185.003906 574.710938 180.484375 C 574.9375 178.960938 575.761719 178.722656 576.242188 178.722656 C 576.363281 178.722656 576.503906 178.746094 576.652344 178.789062 C 580.863281 179.910156 590.667969 196.628906 589.285156 204.09375 Z M 576.296875 180.085938 C 576.136719 180.148438 575.761719 181.023438 576.203125 183.632812 C 577.132812 189.21875 581.523438 200.316406 588.042969 203.042969 C 588.597656 195.617188 579.375 180.898438 576.296875 180.085938 Z M 594.222656 196.339844 L 593.980469 195.617188 C 592.1875 189.996094 595.816406 182.136719 599.808594 176.660156 C 601.96875 173.695312 605.179688 170.234375 607.082031 170.234375 C 607.710938 170.234375 608.191406 170.570312 608.398438 171.179688 C 609.84375 175.078125 601.699219 192.949219 594.910156 196.027344 Z M 607.117188 171.582031 C 606.285156 171.582031 603.855469 173.40625 600.902344 177.453125 C 597.285156 182.402344 593.972656 189.328125 595.0625 194.429688 C 601.460938 190.601562 608.234375 174.625 607.144531 171.640625 Z M 607.117188 171.582031 " fill-opacity="1" fill-rule="evenodd"/></svg>