<?xml version="1.0" encoding="UTF-8"?>
<svg id="Layer_2" data-name="Layer 2" xmlns="http://www.w3.org/2000/svg" xmlns:xlink="http://www.w3.org/1999/xlink" viewBox="0 0 414.67 184">
  <defs>
    <style>
      .cls-1 {
        fill: #ff6464;
      }

      .cls-2 {
        fill: #c6af9b;
      }

      .cls-3 {
        clip-path: url(#clippath-1);
      }

      .cls-4 {
        fill: #ffbc64;
      }

      .cls-5 {
        clip-path: url(#clippath);
      }

      .cls-6 {
        fill: #ffeed9;
      }

      .cls-7 {
        fill: none;
      }

      .cls-8 {
        fill: #2ec69b;
      }
    </style>
    <clipPath id="clippath">
      <rect class="cls-7" x="4" y="6.25" width="410.67" height="177.75"/>
    </clipPath>
    <clipPath id="clippath-1">
      <rect class="cls-7" width="409.33" height="178.25"/>
    </clipPath>
  </defs>
  <g id="Layer_1-2" data-name="Layer 1">
    <g class="cls-5">
      <path class="cls-2" d="M411.5,136.25c-1.67,3.36-4.01,6.17-7.02,8.42,.81,3.71,.73,7.41-.24,11.09-1.7,6.3-5.94,11.76-11.96,15.35-2.39,1.41-4.9,2.52-7.55,3.31-2.56,.83-5.19,1.27-7.88,1.29h-1.15c-2.26-.13-4.43-.59-6.54-1.41-2.1-.82-4.03-1.95-5.77-3.39-.36,.2-.72,.41-1.1,.6-2.05,1.07-4.22,1.78-6.51,2.14-2.29,.35-4.57,.33-6.85-.07-3.04-.56-5.89-1.64-8.54-3.23-2.4-1.38-4.61-3.01-6.63-4.91-.4-.38-.77-.77-1.14-1.16-1.54,2.4-3.3,4.64-5.27,6.7-1.92,2-4.02,3.79-6.29,5.38-2.27,1.58-4.68,2.93-7.21,4.05-2.54,1.11-5.16,1.96-7.86,2.56s-5.44,.92-8.21,.98h-.6c-10.56,0-20.79-5.02-28.32-13.68-7.37,7.79-17.93,12.35-29.3,12.45l-9.22,.08h-.94c-.46,.04-.93,.06-1.39,.06h-2.27c-6.28-.16-11.14-.84-14.83-2.07-3.03-1.01-5.39-1.84-7.48-3.2-.76-.49-1.48-1.04-2.16-1.63-1.58,.68-3.21,1.18-4.9,1.51-1.69,.32-3.4,.46-5.11,.41-1.72-.05-3.41-.28-5.08-.7-1.67-.42-3.27-1.02-4.81-1.79-7.42,5.54-17.04,8.58-27.28,8.59h-.04c-4.34,.03-8.59-.56-12.76-1.77-4.17-1.21-8.08-2.99-11.73-5.34-2.08,1.98-4.47,3.45-7.18,4.4-3.15,1.12-7.69,1.87-19.64,1.87h-.4c-9.28,0-15.16-.96-19.63-3.17-1.39-.67-2.67-1.49-3.87-2.46-1.19-.96-2.27-2.05-3.22-3.26-.95-1.21-1.76-2.51-2.41-3.91-.66-1.39-1.15-2.84-1.48-4.34-1.57,.38-3.17,.57-4.78,.56-.7,0-1.4-.04-2.1-.11-1.2,1.86-2.67,3.48-4.39,4.86-1.73,1.38-3.63,2.45-5.7,3.21-2.72,.96-5.53,1.42-8.42,1.38h-.11c-2.57,.01-5.1-.29-7.6-.89-3.1-.72-5.96-1.99-8.57-3.83-2.61-1.83-4.78-4.09-6.51-6.78-.97-1.56-1.74-3.22-2.3-4.97-2.98-.91-5.62-2.43-7.91-4.56-2.12-2.02-3.83-4.35-5.11-6.98-1.18-2.29-2.07-4.69-2.68-7.19-.78-3.1-.94-6.23-.51-9.39,.44-3.16,1.46-6.13,3.05-8.89,1.54-2.58,3.52-4.76,5.94-6.53-.03-1.43,.08-2.84,.32-4.25,.6-3.14,1.76-6.04,3.48-8.72,1.73-2.68,3.89-4.94,6.49-6.78,2.09-1.51,4.33-2.73,6.72-3.69,.3-.13,.59-.24,.91-.35-1.29-3.41-1.91-6.95-1.87-10.59,.01-2.51,.53-4.9,1.55-7.18,1.03-2.29,2.47-4.26,4.34-5.93,.31-1.39,.76-3.6,1.35-7,.25-1.53,.49-3.03,.73-4.49-1.38-.36-2.71-.86-3.97-1.52-1.27-.66-2.45-1.45-3.54-2.38-1.09-.92-2.06-1.96-2.92-3.1s-1.57-2.38-2.15-3.68c-1.32-2.99-1.9-6.44-1.9-11.26s1.4-10.19,4.19-15.32c6.04-11.28,14.61-12.98,19.18-12.98,2.48,.05,4.93,.4,7.33,1.06l.79,.19h7.04c2.4,0,5.39,0,8.51-.11,1.96-.76,4-1.14,6.1-1.14,3.84,0,7.38,1.05,10.6,3.13,3.73-1.49,8.02-2.29,13.1-2.4h1.23c6.99,0,12.49,1.35,16.7,3.55,.51-.27,1.03-.52,1.56-.75,3.92-1.72,8.45-2.63,13.86-2.77h1.26c8.19,0,14.32,1.86,18.76,4.76,1.01-.66,2.06-1.24,3.16-1.75,4.38-2.04,9.48-3.07,15.18-3.07h.6c7.77,.1,13.71,1.38,18.19,3.93h.04c.99-.56,2.01-1.06,3.06-1.49,4.65-1.81,9.47-2.67,14.46-2.58h.71c7.08,.09,12.9,1.2,17.34,3.27,1-.49,2.03-.92,3.08-1.29,4.5-1.49,9.11-2.18,13.85-2.09h.51c7.23,.06,12.49,.87,16.55,2.55,1.71,.7,3.29,1.62,4.74,2.75,3.3-1.93,6.8-3.4,10.49-4.4,3.69-1,7.45-1.5,11.27-1.5h.24c2.78,.07,5.53,.41,8.25,1.03l.81,.16c2.13-.78,4.32-1.17,6.58-1.2,1.49-.01,2.97,.15,4.43,.48s2.86,.83,4.2,1.49c1.34,.66,2.59,1.46,3.76,2.41,1.16,.95,2.19,2.02,3.1,3.21,.92-.69,1.88-1.35,2.9-1.97,6.2-3.73,13.48-5.63,21.66-5.63,3.5,.08,6.97,.47,10.4,1.2,1.66,.38,3.33,.62,5.02,.74,3.27,.03,19.54,1.44,19.54,25.73,.06,3.6-.69,7.02-2.25,10.27,1.85,3.04,3.29,6.28,4.31,9.69s1.59,6.91,1.71,10.47c.06,3.43-.35,6.81-1.22,10.13-.88,3.32-2.19,6.46-3.94,9.42,1.21,.39,2.37,.89,3.49,1.47,2.05,1.08,3.87,2.45,5.47,4.13s2.89,3.57,3.86,5.67c.37,.78,.7,1.58,.98,2.4h.03c2.31,.04,4.56,.45,6.73,1.23,2.18,.78,4.18,1.89,5.99,3.32,2.41,1.95,4.4,4.26,5.98,6.92,1.47,2.36,2.65,4.88,3.51,7.52,2.12,6.7,1.72,13.6-1.14,19.46Z"/>
    </g>
    <g class="cls-3">
      <path class="cls-6" d="M406.71,129.82c-1.67,3.37-4.01,6.18-7.02,8.42,.81,3.72,.72,7.42-.25,11.09-1.7,6.3-5.94,11.76-11.95,15.35-2.39,1.41-4.9,2.52-7.55,3.32-2.56,.83-5.19,1.26-7.88,1.29-.39,0-.77,0-1.15-.03-2.25-.11-4.43-.58-6.53-1.4s-4.03-1.94-5.77-3.37c-.36,.2-.72,.41-1.11,.6-2.05,1.07-4.22,1.78-6.51,2.14s-4.57,.33-6.84-.07c-3.04-.56-5.89-1.64-8.54-3.23-2.41-1.37-4.61-3.01-6.63-4.91-.4-.38-.77-.77-1.14-1.16-1.55,2.4-3.3,4.64-5.27,6.7-1.92,1.99-4.02,3.79-6.29,5.38-2.28,1.58-4.68,2.93-7.21,4.05-2.54,1.11-5.16,1.97-7.86,2.56-2.71,.6-5.44,.93-8.21,.98h-.6c-10.57,0-20.79-5.02-28.32-13.68-7.37,7.79-17.94,12.35-29.3,12.45l-9.22,.08h-.94c-.46,.04-.93,.07-1.4,.07h-2.27c-6.28-.16-11.13-.84-14.83-2.08-3.03-1.01-5.38-1.84-7.48-3.2-.76-.49-1.48-1.03-2.16-1.63-1.58,.68-3.21,1.18-4.91,1.51-1.69,.32-3.39,.46-5.11,.41-1.72-.05-3.41-.29-5.08-.7-1.67-.42-3.27-1.02-4.81-1.79-7.42,5.54-17.04,8.58-27.28,8.6h-.04c-4.33,.02-8.57-.57-12.73-1.78s-8.06-2.98-11.7-5.32c-2.08,1.98-4.47,3.45-7.18,4.4-3.15,1.12-7.69,1.87-19.64,1.87h-.4c-9.28,0-15.16-.96-19.63-3.17-1.39-.67-2.67-1.49-3.87-2.46-1.19-.96-2.27-2.05-3.22-3.27-.95-1.21-1.76-2.51-2.41-3.9-.66-1.39-1.15-2.84-1.48-4.34-1.57,.38-3.17,.56-4.78,.56-.7,0-1.4-.04-2.1-.11-1.21,1.86-2.68,3.48-4.42,4.85-1.74,1.38-3.65,2.44-5.73,3.2-2.72,.96-5.53,1.42-8.42,1.38h-.11c-2.57,.01-5.1-.29-7.6-.89-3.11-.72-5.96-1.99-8.57-3.83-2.6-1.83-4.77-4.09-6.5-6.78-.97-1.56-1.74-3.21-2.3-4.97-2.99-.91-5.63-2.43-7.91-4.56-2.12-2.02-3.83-4.34-5.12-6.98-1.18-2.29-2.07-4.69-2.68-7.19-.78-3.1-.95-6.23-.51-9.39,.44-3.16,1.46-6.13,3.05-8.89,1.54-2.58,3.52-4.76,5.94-6.53-.03-1.43,.08-2.84,.32-4.25,.59-3.14,1.76-6.05,3.48-8.73,1.72-2.68,3.89-4.94,6.49-6.78,2.09-1.5,4.33-2.73,6.72-3.69,.31-.13,.6-.24,.91-.35-1.29-3.41-1.92-6.94-1.88-10.59,.01-2.51,.53-4.9,1.56-7.19,1.03-2.28,2.47-4.26,4.33-5.93,.32-1.39,.76-3.6,1.36-7,.26-1.52,.51-3.02,.73-4.49-1.38-.36-2.7-.87-3.97-1.53-1.27-.66-2.44-1.45-3.53-2.38-1.09-.92-2.06-1.96-2.91-3.1s-1.57-2.38-2.15-3.68c-1.31-2.99-1.9-6.44-1.9-11.26s1.4-10.19,4.19-15.32C29.08,1.92,37.66,.24,42.22,.24c2.48,.05,4.93,.4,7.32,1.06l.8,.18h7.04c2.39,0,5.38,0,8.5-.11,1.97-.75,4.01-1.12,6.11-1.11,3.83-.01,7.36,1.02,10.6,3.07,3.72-1.49,8.02-2.29,13.1-2.4h1.23c6.99,0,12.49,1.35,16.7,3.55,.51-.27,1.03-.52,1.55-.75,3.88-1.76,8.43-2.66,13.84-2.81h1.26c8.19,0,14.32,1.86,18.76,4.76,1.01-.66,2.06-1.24,3.16-1.75,4.37-2.04,9.48-3.07,15.18-3.07h.6c7.77,.09,13.71,1.38,18.19,3.93h.03c.99-.57,2.02-1.06,3.07-1.49,4.65-1.81,9.47-2.67,14.46-2.58h.71c7.08,.1,12.9,1.2,17.34,3.27,1-.49,2.03-.92,3.08-1.29,4.5-1.47,9.12-2.16,13.86-2.05h.51c7.23,.06,12.49,.87,16.55,2.55,1.71,.7,3.29,1.61,4.74,2.75,3.31-1.93,6.81-3.4,10.51-4.4,3.69-1,7.46-1.5,11.28-1.5h.24c2.79,.07,5.54,.42,8.26,1.03l.81,.16c2.13-.77,4.31-1.17,6.57-1.2,1.5-.01,2.97,.15,4.43,.48s2.86,.83,4.2,1.49c1.34,.66,2.59,1.46,3.75,2.41s2.19,2.02,3.1,3.21c.91-.69,1.88-1.35,2.89-1.96C322.76,1.95,330.05,.06,338.22,.06c3.51,.08,6.97,.48,10.41,1.2,1.66,.37,3.33,.61,5.02,.73,3.27,.03,19.53,1.43,19.53,25.72,.06,3.61-.69,7.04-2.26,10.29,1.85,3.04,3.29,6.27,4.31,9.69s1.59,6.91,1.71,10.47c.06,3.43-.34,6.81-1.22,10.13-.88,3.32-2.19,6.46-3.93,9.41,1.2,.4,2.37,.89,3.49,1.47,2.05,1.08,3.87,2.46,5.47,4.14s2.89,3.56,3.86,5.67c.37,.78,.7,1.58,.99,2.4h.03c2.32,.05,4.57,.46,6.74,1.24,2.18,.78,4.18,1.9,6,3.33,2.4,1.95,4.4,4.26,5.97,6.92,1.47,2.35,2.64,4.84,3.51,7.47,2.13,6.71,1.73,13.62-1.14,19.48Z"/>
    </g>
    <path class="cls-1" d="M28.37,101.83c-1.03,.7-1.9,1.57-2.59,2.61s-1.18,2.16-1.44,3.39c-.43,2.43,.5,4.86,1.99,6.76,1.7,2.16,4.04,3.77,6.31,5.27,.34,.23,.68,.45,1.02,.66-1.1-.2-2.22-.39-3.33-.53-2.7-.35-5.52-.66-8.22-.15-2.39,.46-4.65,1.7-5.91,3.81-.6,1.1-.97,2.27-1.11,3.52-.15,1.24-.06,2.47,.27,3.68,.34,1.33,.83,2.61,1.47,3.82,.49,1.05,1.15,1.98,1.96,2.79,.92,.85,1.99,1.33,3.23,1.43,1.26,.09,2.51-.01,3.74-.3,2.53-.55,4.91-1.5,7.14-2.84,1.2-.71,2.35-1.5,3.45-2.36-.58,.77-1.15,1.55-1.69,2.34-1.54,2.24-3.1,4.62-3.88,7.26-.68,2.32-.6,4.92,.69,7.01,.7,1.03,1.57,1.9,2.6,2.59,1.03,.7,2.16,1.18,3.38,1.44,1.34,.31,2.7,.47,4.08,.45,1.15,.04,2.28-.12,3.38-.48,1.17-.43,2.08-1.17,2.75-2.23,.65-1.08,1.13-2.24,1.43-3.47,.67-2.51,.92-5.07,.74-7.66-.09-1.48-.3-2.94-.59-4.39,.72,.96,1.5,1.89,2.33,2.76,1.77,1.9,3.8,3.46,6.08,4.69,1.1,.63,2.27,1.07,3.51,1.34,1.22,.23,2.39,.07,3.5-.48,1.01-.56,1.9-1.28,2.66-2.15,.95-1,1.77-2.09,2.46-3.29,.65-1.07,1.08-2.22,1.29-3.45,.2-1.23,.18-2.46-.09-3.68-.63-2.4-2.48-4.2-4.63-5.3-2.45-1.24-5.25-1.72-7.94-2.13-1.19-.18-2.41-.33-3.66-.45,1.1-.48,2.2-1.01,3.28-1.55,2.43-1.24,4.93-2.58,6.86-4.54,1.69-1.71,2.88-4.03,2.71-6.49-.13-1.24-.48-2.42-1.06-3.52-.58-1.11-1.34-2.07-2.29-2.88-1.03-.92-2.15-1.7-3.37-2.34-.99-.59-2.06-.99-3.19-1.2-1.23-.18-2.4,.04-3.48,.65-1.09,.65-2.06,1.45-2.91,2.4-1.79,1.89-3.21,4.02-4.3,6.38-.4,.84-.76,1.71-1.07,2.6-.27-1.36-.63-2.7-1.07-4.02-.81-2.46-1.99-4.73-3.56-6.81-.74-1.03-1.61-1.93-2.63-2.69-1.01-.72-2.14-1.07-3.39-1.03-1.15,.08-2.25,.36-3.3,.83-1.29,.51-2.49,1.15-3.62,1.94Z"/>
    <path class="cls-6" d="M44.8,133.15c-4.46,.46-9.62-2.21-9.16-7.25,.44-4.71,3.47-10.35,8.97-8.74,3.68,1.07,6.79,4.35,6.95,8.3,.02,.47,0,.94-.08,1.41-.07,.47-.18,.93-.34,1.37-.16,.45-.36,.88-.6,1.28-.24,.41-.52,.79-.83,1.15-.31,.35-.65,.68-1.03,.97-.38,.29-.77,.54-1.19,.75-.42,.21-.86,.39-1.31,.52s-.92,.21-1.39,.26Z"/>
    <path class="cls-4" d="M107.56,128.4c.58,4.31,1.38,8.58,2.39,12.82,1.08,4.59,1.96,7.4,2.72,8.16,.68,.67,1.57,1.38,2.39,2.14,.77,.55,1.19,1.3,1.28,2.24,0,3.82-1.25,6.09-3.69,6.96-1.86,.67-6.88,1.02-15.01,1-6.5,0-10.85-.54-13.04-1.63s-3.29-3.18-3.29-6.3c0-.73,.56-1.52,1.67-2.4,1.34-1.03,2.11-1.72,2.29-2.06,.88-1.39,1.88-4.9,3.07-10.58,1.07-4.94,1.86-9.92,2.39-14.94,.1-1.2,.23-3.93,.34-8.35l-1.31-.54c-.76-.04-1.44,.56-2.02,1.8-.82,1.74-1.55,2.89-2.19,3.43-1.35,1.2-3.31,1.67-5.89,1.46-2.17-.18-3.59-.94-4.19-2.25-.41-.82-.59-2.35-.59-4.61,.09-2.63,.89-5.03,2.39-7.19,1.79-2.79,3.77-4.16,6.06-3.97,1.25,.16,2.48,.42,3.69,.79,1.2,.38,2.43,.62,3.69,.74,6.58,.36,13.15,.38,19.73,.06,.43-.1,.84-.26,1.23-.46,.44-.23,.91-.37,1.41-.4,2.45-.07,4.56,1.36,6.32,4.24,1.47,2.27,2.23,4.74,2.29,7.44,0,4.51-1.88,6.73-5.63,6.78-2.1,.02-3.83-1.2-5.18-3.66-1.34-2.46-2.69-3.71-4.04-3.72l-.9,.34c.18,1.72,.6,5.04,1.23,9.83,.15,1.15,.23,1.71,.41,2.83Z"/>
    <path class="cls-4" d="M176.66,138.98c.19,6.65-3.08,13.18-8.34,17.38-5.38,4.33-12.3,6.15-19.05,6.16-7.3,0-14.79-2.46-20.02-7.66-4.94-4.92-6.41-11.6-6.76-17.9-.42-7.46,2.39-15.64,6.84-22.11,4.89-7.1,12.6-12.74,21.34-13.7,8.57-.94,16.35,4.03,20.11,11.61,4.07,8.2,5.63,17.19,5.89,26.23Zm-19.23-8.64c0-3.51-.85-7.35-2.55-11.52-2.11-5.2-4.71-7.69-7.82-7.3-1.79,.22-3.21,1.72-4.21,4.32-.77,1.98-1.15,4.05-1.14,6.18-.06,3.45,.59,6.76,1.93,9.93,1.74,3.91,4.33,5.69,7.73,5.39,4.04-.39,6.06-2.68,6.06-7Z"/>
    <path class="cls-4" d="M213.71,113.94c0-6.07-.79-9.65-2.39-10.71-.76-.25-1.49-.58-2.19-.98-.68-.44-1.05-1.55-1.05-2.85,0-2.43,1.54-4.48,4.56-6.19,2.92-1.56,6.03-2.55,9.31-2.99,.76-.12,2.39-.3,4.83-.51,8.41-.72,18.71-.41,25.71,5.01,8.44,6.52,10.21,19.53,10.27,29.28,.06,8.99-2.04,18.68-7.03,26.3-4.67,7.15-12.82,10.91-21.16,10.98-11.96,.11-15.81,.1-11.42,.15-5.8-.04-9.94-.53-12.38-1.34-1.43-.4-2.8-.94-4.13-1.6-.52-.32-.9-.76-1.14-1.32-.24-.56-.3-1.14-.18-1.74,.32-2.82,1.05-5.02,2.29-6.47,1.41-1.54,2.49-3.29,3.25-5.23,2.83-9.49,2.88-19.96,2.84-29.78Zm20.64-16.05c-.29,.23-.68,.6-1.14,1.08-.66,.63-1.14,1.37-1.45,2.22-.4,.98-.68,2-.84,3.05-.6,6.13,0,13.76,.18,20.56,.15,5.22,1.49,7.79,4.13,7.57,3.04-.27,5.28-2.44,6.76-6.39,1.17-3.32,1.72-6.73,1.67-10.25,0-4.8-.59-8.7-1.67-11.71-1.59-4.41-4.13-6.46-7.64-6.14h0Z"/>
    <path class="cls-4" d="M320.14,132.91c.03,1.96-.13,3.9-.48,5.83-.35,1.93-.88,3.8-1.6,5.63-.71,1.83-1.6,3.56-2.65,5.21-1.06,1.65-2.26,3.18-3.61,4.6-1.23,1.29-2.59,2.44-4.05,3.47-1.46,1.02-3.01,1.9-4.65,2.61s-3.32,1.28-5.06,1.66c-1.74,.39-3.51,.6-5.29,.65-8.27,.15-15.64-5.28-20.02-12.04-4.89-7.54-6.76-16.99-6.77-25.77,0-9.52,1.91-19.7,6.85-28.02,4.43-7.46,12.14-14.15,21.34-13.76,10.01,.43,16.61,8.7,20.1,17.45,4.2,10.49,5.65,21.34,5.89,32.47Zm-19.23-14.18c-.09-5.02-.94-9.9-2.55-14.65-2.11-6.66-4.7-9.92-7.81-9.96-1.8,0-3.22,1.47-4.22,4.47-.78,2.39-1.16,4.83-1.14,7.34-.03,4.33,.61,8.56,1.93,12.68,1.74,5.32,4.33,8.07,7.72,8.15,4.04,.09,6.06-2.6,6.06-8.03Z"/>
    <path class="cls-8" d="M66.55,45.79c.55,5.71,1.39,11.51,2.39,17.12,1.09,6.26,1.94,10.19,2.72,11.33,.67,.98,1.57,2.06,2.4,3.18,.79,.94,1.21,2.03,1.27,3.25,0,5.32-1.26,8.39-3.69,9.32-1.86,.7-6.88,.6-15.02-1.05-6.49-1.32-10.84-3.2-13.04-5.15-2.2-1.95-3.3-4.86-3.3-8.72,0-.91,.56-1.76,1.67-2.58,1.35-1.01,2.1-1.74,2.29-2.14,.88-1.58,1.86-5.86,3.07-12.82,1.05-5.99,1.91-12.28,2.39-18.38,.11-1.44,.23-4.84,.35-10.23l-1.32-.64c-.78-.04-1.45,.69-2.02,2.19-.82,2.1-1.55,3.47-2.19,4.11-1.34,1.4-3.31,1.95-5.89,1.67-2.16-.23-3.58-1.1-4.18-2.58-.4-.92-.6-2.65-.6-5.17s.84-5.35,2.39-8.2c1.8-3.29,3.78-5.08,6.06-5.08,1.26,.06,2.48,.26,3.69,.6,1.21,.34,2.44,.55,3.69,.63,6.57,.03,13.15,.11,19.73-.21,.44-.12,.85-.3,1.23-.55,.43-.28,.9-.43,1.41-.46,2.46,0,4.56,1.9,6.32,5.68,1.46,3.07,2.2,6.31,2.22,9.71,0,5.8-1.88,8.59-5.62,8.39-2.11-.1-3.83-1.8-5.19-5.03-1.35-3.24-2.69-4.88-4.04-4.92l-.88,.36c.17,2.2,.58,6.42,1.23,12.66,.17,1.49,.27,2.23,.44,3.71Z"/>
    <path class="cls-8" d="M113.97,82.33c0,4.66-1.15,7.79-3.34,9.49-1.64,1.27-4.36,1.98-8.16,1.95-.71,0-1.86-.05-3.47-.14-1.61-.1-2.85-.17-3.73-.2-5.56-.19-9.28-.86-11.15-1.8-3.45-1.69-5.18-4.99-5.18-9.86,0-.97,.53-2.05,1.6-3.08,1.35-1.32,2.21-2.21,2.39-2.66,2.73-6.21,3.21-13.41,3.9-19.98,.98-9.34,1.42-14.31,1.6-14.3v-3.9c.05-3.65-.39-6.27-1.32-7.79-.81-.86-1.72-1.61-2.71-2.26-.99-.71-1.48-2-1.48-3.87,0-3,1.64-5.16,4.91-6.56,2.29-.98,5.12-1.39,8.26-1.47,4.87-.12,14.32,.76,14.4,7.54,0,1.48-.79,3.17-2.39,4.99-.74,.78-1.32,1.67-1.73,2.67-.41,.99-.63,2.03-.66,3.11,0,2.73,.85,4.49,2.55,5.27,.82,.36,2.63,.55,5.44,.56,2.7,0,4.33-.08,4.92-.3,1.7-.55,2.55-1.97,2.55-4.29,0-3.28-.81-5.5-2.39-6.59-.78-.51-1.38-1.18-1.81-2.01s-.62-1.71-.59-2.64c0-3.06,1.63-5.4,4.83-6.78,2.31-1.02,5.18-1.44,8.25-1.52,4.85-.13,14.31,.74,14.41,7.49,0,.91-.47,2.11-1.41,3.52-1.13,1.64-2.01,3.4-2.64,5.28-.94,2.94-1.43,6.76-1.41,11.3,.06,10.79,2.32,21.18,5.09,31.59,3.28,3.38,5.07,6.31,4.91,8.39-.52,6.82-11.72,8.1-17.47,8.52-5.5,.4-8.81,.43-9.92,.23-3.74-.76-5.63-3.09-5.63-6.93,0-1.34,.73-2.79,2.2-4.34,1.46-1.55,2.19-2.72,2.19-3.49,0-2.19-.23-5.51-.7-9.98-.47-4.48-.7-7.95-.7-10.31,0-1.61-.22-2.79-.66-3.49-.44-.71-1.36-1.07-2.77-1.07-2.93,0-4.72,1.05-5.38,3.14-.35,.94-.53,3.59-.53,7.79,0,6.1,.14,9.69,.43,10.87,.23,.92,1.08,2.3,2.55,4.03,1.27,1.48,1.94,2.77,1.94,3.87Z"/>
    <path class="cls-8" d="M159.54,40.81c.23-6.31-.85-10.67-2.39-12.02-.78-.41-1.51-.88-2.2-1.43-.7-.6-1.06-1.94-1.06-3.45,0-2.82,1.55-4.96,4.57-6.36,2.51-1.17,5.63-1.72,9.31-1.67,5.19,.07,8.88,.78,10.97,1.97,.86,.43,1.53,1.06,2.02,1.89,.49,.83,.73,1.72,.7,2.69,.09,1.03-.19,1.94-.83,2.75-.56,.6-1.13,1.15-1.71,1.67-.63,.6-1.07,1.31-1.31,2.15-1.06,2.83-1.58,7.11-1.58,12.74v.47c.53,5.33,1.39,10.88,2.46,16.49,1.19,6.34,2.19,10.15,3.07,11.1,.67,.72,1.56,1.5,2.39,2.32,.81,.7,1.24,1.59,1.27,2.66,0,4.88-1.25,8.07-3.68,9.59-1.87,1.2-6.88,2.51-15.02,3.77-6.58,1.02-10.92,.95-13.08-.1-2.17-1.05-3.24-3.52-3.24-7.44,0-.92,.55-2.01,1.67-3.26,.89-.91,1.65-1.9,2.28-2.99,.82-1.84,1.85-6.49,2.99-14.03,1-6.46,2.18-13.26,2.41-19.49Z"/>
    <path class="cls-8" d="M215.03,50.03c0,1.41,.54,3.92,1.62,7.54,1.08,3.61,1.93,5.78,2.55,6.48,.6,.7,1.28,1.41,1.98,2.09,.8,.69,1.33,1.55,1.58,2.58,.18,1.01,.27,2.02,.27,3.05,0,2.52-.94,4.48-2.81,5.8-1.5,1.06-4.43,1.89-8.17,2.84-1.76,.45-5.77,1.33-11.85,2.4-2.4,.39-4.8,.33-7.18-.17-2.14-.42-3.58-1.37-4.3-2.54-.65-1.04-.97-2.17-.97-3.39v-1.71c.08-.99,.46-1.86,1.14-2.58,.6-.76,1.32-1.55,2.02-2.4,1.49-6.41,2.93-12.86,3.78-19.37,.59-4.73,1.07-9.05,1.31-12.91,.35-5.64-.44-9.18-2.39-10.69-.77-.33-1.5-.73-2.19-1.19-.69-.54-1.05-1.7-1.05-3.04,0-2.47,1.56-4.34,4.57-5.58,2.44-1,5.56-1.51,9.3-1.46,6.38,.08,10.52,1.2,12.29,2.47,2.39,1.7,5.22,5.55,7.47,11.61,2.39,6.55,4.85,10.76,7.17,12.59,.28,.21,.59,.33,.94,.36,.34,.04,.68-.02,.99-.17,.78-1.07,1.13-2.27,1.05-3.6-.03-.89-.11-1.78-.26-2.65v-.41l-.08-.15c-.18-1.24-.38-2.55-.6-3.94-.88-2.71-2.49-4.88-4.83-6.5-.77-.28-1.5-.64-2.19-1.08-.6-.44-.97-1.48-.97-2.63,0-2.15,1.55-3.74,4.57-4.8,3.03-.94,6.14-1.35,9.31-1.23,5.15,.04,8.81,.53,10.98,1.42,1.74,.72,2.63,1.83,2.63,3.35,.07,.81-.19,1.49-.79,2.05-.53,.44-1.08,.86-1.67,1.27-.61,.41-1.09,.95-1.43,1.61-.71,1.05-1.41,2.13-2.11,3.24-1.08,1.96-1.61,4.07-1.58,6.32,0-.1,0,.24,0,.99,.06,2.72,1.05,6.96,2.72,12.63,1.59,5.4,2.39,9.84,2.39,13.09,0,4.3-.38,7.41-1.14,9.22-1.23,2.82-3.78,4.5-7.64,5.04-4.28,.6-8.14-1.57-11.59-6.45-.88-1.29-3.28-5.92-7.2-13.83-2.46-4.98-4.68-7.35-6.67-7.12-.66,.08-.96,.59-.96,1.55Z"/>
    <path class="cls-8" d="M293.62,41.7c0-.44-.6-1.05-1.76-1.8-1.16-.75-1.76-1.51-1.76-2.24,0-2.05,3.28-3.04,9.83-2.86l1.58-.06c1.11-.04,2.14-.04,3.07,0,4.78,.16,7.28,1.09,7.38,2.72,.05,1.19-.36,2.19-1.23,3-1.22,1.28-1.93,2.05-2.1,2.29-.83,1.59-1.06,3.26-.7,5.01,1.29,6.08,1.93,10.37,1.93,12.7,0,1.04-.18,1.7-.54,1.99-1.07,.77-2.27,1.2-3.58,1.27-1.58,.17-2.52,.37-2.81,.56-5.03,3.32-8.22,5.43-9.57,6.05-2.93,1.3-7.09,1.94-12.38,2.15-1.89,.07-3.76-.08-5.61-.46-1.85-.38-3.64-.97-5.34-1.78-1.71-.81-3.3-1.8-4.78-2.99s-2.79-2.53-3.94-4.03c-2.2-2.86-3.89-5.99-5.06-9.41s-1.77-6.93-1.78-10.55c0-3.57,.63-7.02,1.9-10.35,1.27-3.33,3.09-6.32,5.47-8.98,1.31-1.43,2.76-2.7,4.33-3.82s3.26-2.07,5.04-2.83c1.78-.77,3.61-1.34,5.51-1.72,1.9-.38,3.81-.55,5.75-.53,1.79,.07,3.56,.31,5.31,.71,1.69,.4,3.4,.64,5.14,.72,.92-.08,1.8-.32,2.64-.72,.84-.39,1.71-.64,2.64-.72,.9-.03,1.73,.2,2.49,.67,.77,.48,1.34,1.13,1.72,1.94,.73,1.41,1.08,2.92,1.06,4.51,0,2.88-.27,4.94-.79,6.15-.93,2.02-2.86,3-5.78,2.94-2.33-.05-4.18-.72-5.07-1.95-.79-1.07-1.45-2.58-2.19-3.6-.89-1.2-2.86-1.85-5.25-1.86-2.69,0-5.03,1.14-7.01,3.42-1.84,2.12-2.8,4.32-2.8,6.59,0,3.34,1.7,5.96,5.07,7.71,2.7,1.4,6.2,2.09,10.4,2.15,2.39,.05,3.59-.62,3.59-2Z"/>
    <path class="cls-8" d="M327.14,53.11c4.04,.44,6.06-1.05,6.06-4.54,0-1.17-1.34-2.94-4.04-5.22-4.04-3.48-6.47-5.54-7.29-6.41-2.7-2.75-4.04-5.34-4.04-7.88,0-4.51,2.14-7.97,6.41-10.54,3.82-2.29,8.48-3.49,13.98-3.49,2.56,.08,5.09,.4,7.6,.93,2.54,.54,5.1,.88,7.68,1,3.15,.03,4.72,3.61,4.72,10.74,0,4.09-1.64,5.96-4.92,5.66-2.29-.21-4.46-2.01-6.54-5.27-2.08-3.26-4.08-4.85-6-4.92-4.27-.15-6.41,1.15-6.41,3.9,0,1.61,2.39,3.54,7.17,5.99,6.53,3.28,10.94,6.26,13.29,8.55,4.64,4.47,6.97,10.91,7.18,17.09,.19,5.14-2.46,12.53-6.9,15.58-4.44,3.05-12.2,3.88-17.43,2.5-6.21-1.64-12.56-3.64-17.56-7.49-4.09-3.15-7.61-9.89-7.46-15.17,.08-3,1.79-4.52,5.44-4.2,1.35,.16,2.57,.65,3.65,1.47,1.28,.88,3.08,1.44,5.4,1.7Z"/>
    <path class="cls-1" d="M359.91,91.27c-2.79,.3-5.57,1.44-7.4,3.64s-2.27,5.1-1.86,7.83c.46,3.11,1.87,6.04,3.27,8.82,.21,.41,.42,.82,.64,1.23-.98-.84-1.98-1.64-2.99-2.4-2.48-1.89-5.1-3.8-8.07-4.79-2.6-.9-5.56-.97-8.02,.41s-4.11,3.94-4.9,6.64c-.43,1.52-.68,3.06-.74,4.64-.1,1.32,.02,2.61,.36,3.89,.43,1.36,1.23,2.45,2.39,3.27,1.2,.8,2.5,1.4,3.89,1.8,2.82,.9,5.71,1.32,8.68,1.26,1.6-.02,3.2-.14,4.79-.37-1.02,.43-2.01,.89-2.99,1.35-2.81,1.35-5.7,2.81-7.96,4.99-1.98,1.91-3.4,4.53-3.29,7.34,.11,2.82,1.62,5.46,3.65,7.41,1.15,1.07,2.41,1.99,3.78,2.77,1.11,.7,2.31,1.18,3.59,1.45,1.4,.24,2.73,.03,3.99-.64,1.26-.7,2.39-1.58,3.39-2.64,2.09-2.11,3.78-4.51,5.08-7.19,.75-1.52,1.4-3.07,1.93-4.68,.17,1.37,.41,2.72,.73,4.06,.68,2.9,1.8,5.6,3.37,8.12,.73,1.25,1.64,2.35,2.72,3.32,1.08,.93,2.33,1.44,3.75,1.52,1.32,.03,2.6-.17,3.85-.6,1.51-.45,2.94-1.07,4.3-1.86,2.4-1.44,4.46-3.65,5.2-6.41,.74-2.77-.07-5.58-1.58-7.89-1.72-2.64-4.22-4.7-6.66-6.64-1.1-.88-2.22-1.72-3.37-2.53,1.38,.15,2.75,.26,4.13,.33,3.11,.15,6.35,.25,9.38-.6,2.65-.73,5.14-2.35,6.37-4.89,1.24-2.53,1.2-5.57,.31-8.25-.51-1.49-1.18-2.91-2.02-4.24-.65-1.15-1.48-2.15-2.48-2.99-1.13-.88-2.4-1.33-3.82-1.34-1.44,.02-2.85,.24-4.22,.7-2.84,.84-5.48,2.12-7.9,3.84-.87,.6-1.72,1.28-2.53,1.97,.49-1.51,.9-3.04,1.19-4.6,.6-2.91,.71-5.84,.34-8.79-.15-1.44-.52-2.82-1.09-4.15-.59-1.3-1.51-2.29-2.77-2.96-1.19-.57-2.44-.93-3.75-1.06-1.55-.21-3.1-.24-4.66-.09Z"/>
    <path class="cls-6" d="M358.44,131.67c-4.69-2.09-8.29-7.67-4.96-12.41,3.11-4.42,9.31-8.27,13.86-3.55,3.05,3.17,4.26,8.19,2.18,12.19-.25,.48-.54,.93-.88,1.35-.33,.43-.71,.81-1.12,1.17-.41,.35-.85,.66-1.32,.93-.47,.27-.96,.48-1.47,.66-.51,.17-1.03,.3-1.57,.37s-1.07,.09-1.61,.06c-.54-.03-1.07-.11-1.6-.24-.52-.14-1.03-.31-1.52-.54Z"/>
  </g>
</svg>