<svg xmlns="http://www.w3.org/2000/svg" xmlns:xlink="http://www.w3.org/1999/xlink" width="1366" zoomAndPan="magnify" viewBox="0 0 1024.5 576" height="768" preserveAspectRatio="xMidYMid meet" version="1.0"><defs><clipPath id="b63e7be3d7"><path d="M 360 224 L 668 224 L 668 357.3125 L 360 357.3125 Z M 360 224 " clip-rule="nonzero"/></clipPath><clipPath id="ef390384b2"><path d="M 357 219.3125 L 664 219.3125 L 664 353 L 357 353 Z M 357 219.3125 " clip-rule="nonzero"/></clipPath></defs><g clip-path="url(#b63e7be3d7)"><path fill="#c6af9b" d="M 665.625 321.5 C 664.371094 324.023438 662.617188 326.128906 660.359375 327.816406 C 660.96875 330.601562 660.90625 333.375 660.175781 336.136719 C 658.902344 340.859375 655.71875 344.953125 651.207031 347.652344 C 649.417969 348.710938 647.53125 349.539062 645.542969 350.136719 C 643.621094 350.761719 641.652344 351.085938 639.632812 351.105469 C 639.347656 351.105469 639.058594 351.105469 638.773438 351.105469 C 637.082031 351.011719 635.449219 350.660156 633.871094 350.046875 C 632.292969 349.429688 630.851562 348.585938 629.542969 347.507812 C 629.273438 347.660156 629 347.8125 628.714844 347.957031 C 627.175781 348.757812 625.546875 349.292969 623.835938 349.558594 C 622.121094 349.824219 620.410156 349.804688 618.699219 349.503906 C 616.421875 349.082031 614.285156 348.273438 612.296875 347.078125 C 610.496094 346.046875 608.839844 344.820312 607.328125 343.394531 C 607.03125 343.113281 606.75 342.820312 606.476562 342.523438 C 605.320312 344.324219 604.003906 346 602.527344 347.546875 C 601.085938 349.046875 599.511719 350.390625 597.808594 351.582031 C 596.105469 352.769531 594.300781 353.78125 592.398438 354.617188 C 590.496094 355.449219 588.53125 356.089844 586.503906 356.539062 C 584.476562 356.988281 582.425781 357.230469 580.347656 357.277344 L 579.898438 357.277344 C 571.976562 357.277344 564.308594 353.511719 558.65625 347.015625 C 553.128906 352.855469 545.207031 356.277344 536.683594 356.355469 L 529.769531 356.414062 L 529.066406 356.414062 C 528.722656 356.445312 528.371094 356.460938 528.023438 356.460938 L 526.324219 356.460938 C 521.613281 356.339844 517.972656 355.832031 515.199219 354.90625 C 512.929688 354.152344 511.160156 353.527344 509.585938 352.503906 C 509.015625 352.136719 508.476562 351.726562 507.96875 351.28125 C 506.785156 351.789062 505.558594 352.167969 504.292969 352.410156 C 503.023438 352.652344 501.746094 352.753906 500.457031 352.714844 C 499.167969 352.679688 497.898438 352.503906 496.648438 352.191406 C 495.398438 351.875 494.195312 351.429688 493.042969 350.851562 C 487.476562 355.007812 480.261719 357.289062 472.585938 357.296875 L 472.558594 357.296875 C 469.304688 357.320312 466.113281 356.875 462.988281 355.96875 C 459.863281 355.058594 456.929688 353.722656 454.191406 351.960938 C 452.632812 353.449219 450.839844 354.550781 448.808594 355.261719 C 446.445312 356.101562 443.039062 356.664062 434.082031 356.664062 L 433.78125 356.664062 C 426.820312 356.664062 422.414062 355.945312 419.058594 354.285156 C 418.019531 353.78125 417.054688 353.167969 416.15625 352.441406 C 415.261719 351.71875 414.457031 350.902344 413.742188 349.996094 C 413.03125 349.085938 412.425781 348.113281 411.9375 347.066406 C 411.445312 346.023438 411.074219 344.9375 410.828125 343.808594 C 409.648438 344.09375 408.453125 344.234375 407.242188 344.230469 C 406.714844 344.230469 406.191406 344.203125 405.667969 344.148438 C 404.765625 345.542969 403.667969 346.757812 402.375 347.792969 C 401.078125 348.828125 399.652344 349.632812 398.097656 350.199219 C 396.054688 350.921875 393.949219 351.265625 391.785156 351.234375 L 391.699219 351.234375 C 389.773438 351.242188 387.871094 351.019531 386 350.570312 C 383.671875 350.03125 381.53125 349.074219 379.574219 347.695312 C 377.617188 346.320312 375.992188 344.625 374.695312 342.613281 C 373.964844 341.441406 373.390625 340.199219 372.972656 338.886719 C 370.734375 338.203125 368.757812 337.0625 367.039062 335.464844 C 365.449219 333.949219 364.167969 332.203125 363.203125 330.230469 C 362.316406 328.511719 361.648438 326.714844 361.191406 324.835938 C 360.609375 322.511719 360.484375 320.164062 360.8125 317.792969 C 361.144531 315.421875 361.90625 313.199219 363.101562 311.125 C 364.257812 309.1875 365.742188 307.554688 367.554688 306.226562 C 367.535156 305.15625 367.613281 304.09375 367.796875 303.039062 C 368.246094 300.6875 369.117188 298.507812 370.410156 296.496094 C 371.707031 294.484375 373.328125 292.789062 375.28125 291.414062 C 376.851562 290.285156 378.53125 289.363281 380.324219 288.644531 C 380.550781 288.550781 380.769531 288.464844 381.003906 288.378906 C 380.039062 285.820312 379.570312 283.167969 379.601562 280.433594 C 379.609375 278.554688 380 276.757812 380.765625 275.046875 C 381.535156 273.332031 382.621094 271.851562 384.019531 270.601562 C 384.253906 269.558594 384.585938 267.902344 385.035156 265.351562 C 385.222656 264.207031 385.40625 263.082031 385.585938 261.980469 C 384.550781 261.710938 383.554688 261.332031 382.605469 260.839844 C 381.652344 260.347656 380.769531 259.753906 379.953125 259.058594 C 379.136719 258.367188 378.40625 257.589844 377.765625 256.730469 C 377.125 255.871094 376.585938 254.949219 376.152344 253.96875 C 375.164062 251.722656 374.726562 249.136719 374.726562 245.527344 C 374.726562 241.75 375.777344 237.886719 377.867188 234.039062 C 382.398438 225.578125 388.828125 224.300781 392.253906 224.300781 C 394.117188 224.335938 395.949219 224.601562 397.75 225.097656 L 398.34375 225.238281 L 399.554688 225.238281 C 400.902344 225.238281 402.246094 225.238281 403.625 225.238281 C 405.421875 225.238281 407.664062 225.238281 410.003906 225.152344 C 411.476562 224.585938 413.003906 224.300781 414.582031 224.296875 C 417.460938 224.300781 420.113281 225.082031 422.535156 226.640625 C 425.332031 225.519531 428.550781 224.921875 432.363281 224.839844 L 433.285156 224.839844 C 438.527344 224.839844 442.652344 225.855469 445.8125 227.503906 C 446.195312 227.304688 446.585938 227.117188 446.980469 226.941406 C 449.921875 225.648438 453.320312 224.972656 457.378906 224.863281 C 457.675781 224.863281 457.992188 224.863281 458.320312 224.863281 C 464.464844 224.863281 469.058594 226.261719 472.390625 228.429688 C 473.148438 227.933594 473.9375 227.496094 474.757812 227.117188 C 478.039062 225.585938 481.871094 224.8125 486.140625 224.8125 L 486.589844 224.8125 C 492.417969 224.886719 496.875 225.847656 500.230469 227.761719 L 500.257812 227.761719 C 501 227.339844 501.765625 226.964844 502.554688 226.644531 C 506.042969 225.289062 509.660156 224.644531 513.398438 224.710938 L 513.929688 224.710938 C 519.242188 224.78125 523.601562 225.609375 526.933594 227.160156 C 527.683594 226.789062 528.453125 226.46875 529.242188 226.195312 C 532.617188 225.078125 536.078125 224.558594 539.632812 224.628906 L 540.011719 224.628906 C 545.433594 224.675781 549.378906 225.28125 552.425781 226.539062 C 553.707031 227.066406 554.890625 227.753906 555.984375 228.601562 C 558.460938 227.15625 561.085938 226.054688 563.855469 225.304688 C 566.621094 224.554688 569.441406 224.179688 572.308594 224.179688 L 572.488281 224.179688 C 574.574219 224.234375 576.636719 224.488281 578.675781 224.949219 L 579.285156 225.070312 C 580.878906 224.488281 582.523438 224.191406 584.21875 224.171875 C 585.339844 224.164062 586.445312 224.285156 587.539062 224.535156 C 588.632812 224.785156 589.683594 225.15625 590.691406 225.652344 C 591.699219 226.144531 592.636719 226.746094 593.507812 227.460938 C 594.375 228.171875 595.148438 228.972656 595.832031 229.867188 C 596.519531 229.351562 597.238281 228.855469 598.003906 228.390625 C 602.652344 225.589844 608.117188 224.171875 614.25 224.171875 C 616.875 224.230469 619.476562 224.527344 622.050781 225.070312 C 623.292969 225.351562 624.546875 225.535156 625.816406 225.625 C 628.269531 225.648438 640.46875 226.703125 640.46875 244.921875 C 640.511719 247.621094 639.949219 250.1875 638.78125 252.621094 C 640.171875 254.902344 641.25 257.328125 642.015625 259.890625 C 642.78125 262.453125 643.210938 265.070312 643.300781 267.742188 C 643.347656 270.316406 643.039062 272.851562 642.382812 275.339844 C 641.726562 277.832031 640.742188 280.183594 639.429688 282.402344 C 640.335938 282.695312 641.207031 283.066406 642.050781 283.507812 C 643.585938 284.316406 644.953125 285.347656 646.152344 286.605469 C 647.351562 287.863281 648.316406 289.28125 649.050781 290.855469 C 649.328125 291.441406 649.574219 292.042969 649.789062 292.65625 L 649.8125 292.65625 C 651.546875 292.6875 653.230469 292.996094 654.863281 293.582031 C 656.5 294.167969 657.996094 294.996094 659.359375 296.074219 C 661.164062 297.535156 662.65625 299.265625 663.84375 301.261719 C 664.949219 303.035156 665.828125 304.917969 666.476562 306.902344 C 668.066406 311.925781 667.769531 317.101562 665.625 321.5 Z M 665.625 321.5 " fill-opacity="1" fill-rule="nonzero"/></g><g clip-path="url(#ef390384b2)"><path fill="#ffeed9" d="M 662.035156 316.675781 C 660.785156 319.203125 659.027344 321.308594 656.773438 322.992188 C 657.378906 325.78125 657.316406 328.554688 656.585938 331.3125 C 655.3125 336.035156 652.128906 340.132812 647.621094 342.828125 C 645.832031 343.886719 643.945312 344.714844 641.957031 345.316406 C 640.035156 345.941406 638.066406 346.261719 636.046875 346.28125 C 635.757812 346.28125 635.472656 346.28125 635.183594 346.257812 C 633.496094 346.171875 631.863281 345.820312 630.285156 345.210938 C 628.707031 344.601562 627.265625 343.757812 625.957031 342.683594 C 625.6875 342.835938 625.414062 342.992188 625.125 343.132812 C 623.589844 343.9375 621.960938 344.46875 620.246094 344.734375 C 618.53125 345 616.820312 344.980469 615.113281 344.679688 C 612.832031 344.257812 610.699219 343.449219 608.710938 342.253906 C 606.90625 341.226562 605.25 339.996094 603.742188 338.570312 C 603.445312 338.289062 603.164062 337.996094 602.890625 337.699219 C 601.730469 339.5 600.414062 341.175781 598.9375 342.726562 C 597.5 344.222656 595.925781 345.566406 594.222656 346.757812 C 592.515625 347.945312 590.714844 348.957031 588.8125 349.792969 C 586.910156 350.625 584.945312 351.269531 582.917969 351.714844 C 580.886719 352.164062 578.835938 352.410156 576.761719 352.453125 L 576.3125 352.453125 C 568.386719 352.453125 560.71875 348.691406 555.070312 342.191406 C 549.542969 348.035156 541.617188 351.453125 533.097656 351.53125 L 526.183594 351.589844 L 525.480469 351.589844 C 525.132812 351.621094 524.785156 351.640625 524.433594 351.640625 L 522.734375 351.640625 C 518.027344 351.519531 514.386719 351.011719 511.609375 350.082031 C 509.339844 349.328125 507.574219 348.703125 506 347.679688 C 505.429688 347.3125 504.890625 346.90625 504.382812 346.457031 C 503.195312 346.964844 501.972656 347.34375 500.703125 347.585938 C 499.4375 347.828125 498.160156 347.929688 496.871094 347.894531 C 495.582031 347.855469 494.3125 347.679688 493.0625 347.367188 C 491.808594 347.050781 490.609375 346.605469 489.453125 346.027344 C 483.890625 350.183594 476.675781 352.464844 468.996094 352.476562 L 468.96875 352.476562 C 465.722656 352.492188 462.539062 352.050781 459.421875 351.144531 C 456.304688 350.238281 453.378906 348.910156 450.644531 347.152344 C 449.085938 348.640625 447.292969 349.742188 445.261719 350.453125 C 442.898438 351.292969 439.492188 351.855469 430.535156 351.855469 L 430.234375 351.855469 C 423.273438 351.855469 418.867188 351.136719 415.511719 349.476562 C 414.472656 348.972656 413.507812 348.359375 412.609375 347.632812 C 411.714844 346.910156 410.90625 346.09375 410.195312 345.183594 C 409.484375 344.277344 408.878906 343.300781 408.390625 342.257812 C 407.898438 341.214844 407.527344 340.128906 407.28125 339 C 406.101562 339.28125 404.90625 339.421875 403.695312 339.421875 C 403.167969 339.421875 402.644531 339.394531 402.121094 339.339844 C 401.214844 340.734375 400.109375 341.949219 398.808594 342.980469 C 397.503906 344.015625 396.074219 344.8125 394.511719 345.378906 C 392.46875 346.097656 390.363281 346.441406 388.195312 346.410156 L 388.113281 346.410156 C 386.183594 346.417969 384.285156 346.195312 382.414062 345.746094 C 380.082031 345.207031 377.941406 344.25 375.984375 342.871094 C 374.03125 341.496094 372.40625 339.800781 371.109375 337.789062 C 370.378906 336.621094 369.804688 335.378906 369.386719 334.0625 C 367.144531 333.378906 365.167969 332.238281 363.453125 330.640625 C 361.863281 329.125 360.582031 327.382812 359.613281 325.40625 C 358.730469 323.6875 358.0625 321.890625 357.605469 320.011719 C 357.023438 317.6875 356.894531 315.339844 357.226562 312.96875 C 357.554688 310.597656 358.320312 308.375 359.515625 306.300781 C 360.667969 304.367188 362.152344 302.734375 363.96875 301.402344 C 363.945312 300.332031 364.027344 299.269531 364.210938 298.214844 C 364.65625 295.863281 365.527344 293.679688 366.824219 291.667969 C 368.117188 289.65625 369.742188 287.964844 371.695312 286.585938 C 373.265625 285.460938 374.945312 284.535156 376.734375 283.816406 C 376.964844 283.722656 377.183594 283.636719 377.417969 283.550781 C 376.449219 280.992188 375.980469 278.34375 376.011719 275.605469 C 376.019531 273.726562 376.410156 271.929688 377.179688 270.214844 C 377.949219 268.503906 379.03125 267.019531 380.429688 265.769531 C 380.667969 264.726562 381 263.070312 381.449219 260.519531 C 381.644531 259.378906 381.828125 258.253906 382 257.152344 C 380.964844 256.882812 379.972656 256.5 379.023438 256.007812 C 378.074219 255.511719 377.191406 254.917969 376.375 254.222656 C 375.558594 253.53125 374.832031 252.753906 374.191406 251.894531 C 373.550781 251.035156 373.015625 250.113281 372.582031 249.132812 C 371.597656 246.886719 371.15625 244.300781 371.15625 240.691406 C 371.15625 236.914062 372.207031 233.050781 374.296875 229.203125 C 378.8125 220.753906 385.242188 219.496094 388.667969 219.496094 C 390.53125 219.53125 392.363281 219.796875 394.160156 220.292969 L 394.757812 220.429688 L 395.96875 220.429688 C 397.3125 220.429688 398.660156 220.429688 400.039062 220.429688 C 401.832031 220.429688 404.074219 220.429688 406.414062 220.347656 C 407.890625 219.785156 409.417969 219.507812 410.996094 219.511719 C 413.871094 219.503906 416.519531 220.273438 418.949219 221.816406 C 421.742188 220.695312 424.960938 220.097656 428.773438 220.019531 L 429.699219 220.019531 C 434.941406 220.019531 439.066406 221.035156 442.226562 222.679688 C 442.609375 222.480469 442.996094 222.292969 443.390625 222.117188 C 446.300781 220.800781 449.710938 220.121094 453.769531 220.011719 C 454.066406 220.011719 454.382812 220.011719 454.710938 220.011719 C 460.855469 220.011719 465.449219 221.410156 468.78125 223.578125 C 469.539062 223.082031 470.328125 222.644531 471.148438 222.265625 C 474.425781 220.738281 478.261719 219.964844 482.53125 219.964844 L 482.980469 219.964844 C 488.808594 220.035156 493.265625 220.996094 496.621094 222.914062 L 496.644531 222.914062 C 497.390625 222.488281 498.15625 222.117188 498.945312 221.792969 C 502.433594 220.4375 506.050781 219.792969 509.789062 219.859375 L 510.320312 219.859375 C 515.632812 219.933594 519.992188 220.757812 523.324219 222.308594 C 524.074219 221.941406 524.84375 221.617188 525.632812 221.34375 C 529.007812 220.238281 532.472656 219.726562 536.027344 219.804688 L 536.40625 219.804688 C 541.828125 219.851562 545.773438 220.457031 548.820312 221.71875 C 550.101562 222.242188 551.285156 222.929688 552.378906 223.78125 C 554.859375 222.332031 557.484375 221.230469 560.257812 220.480469 C 563.027344 219.730469 565.851562 219.355469 568.71875 219.355469 L 568.898438 219.355469 C 570.988281 219.410156 573.050781 219.667969 575.089844 220.125 L 575.699219 220.246094 C 577.292969 219.667969 578.933594 219.367188 580.628906 219.347656 C 581.753906 219.339844 582.859375 219.460938 583.953125 219.710938 C 585.046875 219.960938 586.097656 220.332031 587.105469 220.828125 C 588.113281 221.320312 589.050781 221.925781 589.917969 222.636719 C 590.785156 223.347656 591.5625 224.152344 592.246094 225.042969 C 592.929688 224.527344 593.652344 224.03125 594.414062 223.570312 C 599.070312 220.777344 604.535156 219.355469 610.664062 219.355469 C 613.292969 219.414062 615.894531 219.714844 618.46875 220.257812 C 619.710938 220.535156 620.964844 220.71875 622.234375 220.808594 C 624.683594 220.832031 636.878906 221.878906 636.878906 240.097656 C 636.925781 242.804688 636.359375 245.375 635.183594 247.8125 C 636.574219 250.09375 637.652344 252.515625 638.417969 255.078125 C 639.183594 257.640625 639.613281 260.257812 639.703125 262.933594 C 639.75 265.507812 639.445312 268.042969 638.785156 270.53125 C 638.128906 273.023438 637.144531 275.375 635.835938 277.589844 C 636.738281 277.886719 637.613281 278.253906 638.453125 278.695312 C 639.988281 279.503906 641.355469 280.539062 642.554688 281.796875 C 643.753906 283.054688 644.71875 284.46875 645.453125 286.046875 C 645.730469 286.632812 645.980469 287.230469 646.195312 287.84375 L 646.214844 287.84375 C 647.953125 287.878906 649.640625 288.1875 651.273438 288.777344 C 652.910156 289.363281 654.410156 290.199219 655.773438 291.277344 C 657.574219 292.738281 659.070312 294.46875 660.253906 296.464844 C 661.359375 298.226562 662.234375 300.09375 662.886719 302.066406 C 664.480469 307.101562 664.183594 312.28125 662.035156 316.675781 Z M 662.035156 316.675781 " fill-opacity="1" fill-rule="nonzero"/></g><path fill="#ff6464" d="M 378.277344 295.6875 C 377.503906 296.214844 376.855469 296.867188 376.332031 297.644531 C 375.808594 298.421875 375.449219 299.265625 375.25 300.183594 C 374.929688 302.007812 375.625 303.828125 376.746094 305.25 C 378.023438 306.867188 379.777344 308.078125 381.480469 309.199219 C 381.734375 309.371094 381.992188 309.535156 382.246094 309.695312 C 381.417969 309.542969 380.582031 309.40625 379.746094 309.300781 C 377.71875 309.039062 375.605469 308.804688 373.582031 309.191406 C 371.789062 309.535156 370.09375 310.464844 369.152344 312.050781 C 368.703125 312.875 368.425781 313.753906 368.316406 314.6875 C 368.207031 315.617188 368.273438 316.539062 368.519531 317.445312 C 368.773438 318.445312 369.140625 319.402344 369.625 320.3125 C 369.992188 321.097656 370.484375 321.796875 371.097656 322.40625 C 371.785156 323.042969 372.59375 323.402344 373.523438 323.480469 C 374.46875 323.550781 375.40625 323.472656 376.328125 323.253906 C 378.226562 322.839844 380.011719 322.128906 381.679688 321.125 C 382.582031 320.59375 383.445312 320 384.269531 319.355469 C 383.832031 319.929688 383.410156 320.515625 383.003906 321.109375 C 381.847656 322.792969 380.675781 324.574219 380.097656 326.554688 C 379.589844 328.296875 379.648438 330.246094 380.617188 331.8125 C 381.144531 332.585938 381.792969 333.234375 382.570312 333.753906 C 383.34375 334.277344 384.1875 334.636719 385.101562 334.832031 C 386.109375 335.066406 387.128906 335.183594 388.160156 335.171875 C 389.023438 335.203125 389.867188 335.082031 390.691406 334.8125 C 391.566406 334.492188 392.253906 333.933594 392.753906 333.140625 C 393.242188 332.328125 393.601562 331.457031 393.824219 330.535156 C 394.328125 328.652344 394.511719 326.734375 394.378906 324.789062 C 394.308594 323.679688 394.15625 322.582031 393.933594 321.496094 C 394.476562 322.21875 395.058594 322.910156 395.679688 323.566406 C 397.007812 324.992188 398.527344 326.164062 400.242188 327.085938 C 401.066406 327.554688 401.945312 327.890625 402.875 328.089844 C 403.789062 328.265625 404.667969 328.144531 405.5 327.726562 C 406.257812 327.304688 406.921875 326.769531 407.492188 326.117188 C 408.207031 325.367188 408.820312 324.546875 409.335938 323.648438 C 409.824219 322.847656 410.144531 321.984375 410.300781 321.058594 C 410.453125 320.136719 410.433594 319.214844 410.230469 318.300781 C 409.761719 316.5 408.371094 315.152344 406.761719 314.324219 C 404.921875 313.394531 402.824219 313.035156 400.804688 312.726562 C 399.910156 312.589844 398.996094 312.480469 398.0625 312.390625 C 398.890625 312.027344 399.710938 311.636719 400.519531 311.226562 C 402.339844 310.296875 404.214844 309.289062 405.667969 307.820312 C 406.9375 306.535156 407.824219 304.800781 407.703125 302.953125 C 407.609375 302.019531 407.34375 301.140625 406.910156 300.3125 C 406.476562 299.480469 405.902344 298.761719 405.191406 298.15625 C 404.417969 297.46875 403.578125 296.882812 402.664062 296.398438 C 401.917969 295.957031 401.121094 295.65625 400.269531 295.5 C 399.34375 295.367188 398.472656 295.527344 397.660156 295.984375 C 396.839844 296.472656 396.113281 297.074219 395.480469 297.785156 C 394.140625 299.199219 393.070312 300.796875 392.257812 302.570312 C 391.960938 303.203125 391.691406 303.851562 391.457031 304.519531 C 391.253906 303.5 390.988281 302.492188 390.652344 301.503906 C 390.042969 299.65625 389.15625 297.953125 387.984375 296.394531 C 387.429688 295.621094 386.773438 294.949219 386.011719 294.378906 C 385.253906 293.835938 384.40625 293.578125 383.46875 293.605469 C 382.605469 293.667969 381.78125 293.878906 380.992188 294.230469 C 380.027344 294.609375 379.125 295.09375 378.277344 295.6875 Z M 378.277344 295.6875 " fill-opacity="1" fill-rule="nonzero"/><path fill="#ffeed9" d="M 390.601562 319.175781 C 387.253906 319.523438 383.386719 317.519531 383.734375 313.738281 C 384.066406 310.207031 386.339844 305.976562 390.460938 307.179688 C 393.222656 307.984375 395.550781 310.445312 395.671875 313.402344 C 395.6875 313.757812 395.667969 314.109375 395.613281 314.460938 C 395.5625 314.8125 395.476562 315.15625 395.359375 315.488281 C 395.238281 315.824219 395.089844 316.144531 394.910156 316.449219 C 394.730469 316.757812 394.523438 317.042969 394.289062 317.308594 C 394.058594 317.574219 393.800781 317.816406 393.519531 318.035156 C 393.238281 318.25 392.941406 318.441406 392.625 318.597656 C 392.308594 318.757812 391.980469 318.886719 391.640625 318.984375 C 391.300781 319.082031 390.953125 319.144531 390.601562 319.175781 Z M 390.601562 319.175781 " fill-opacity="1" fill-rule="nonzero"/><path fill="#ffbc64" d="M 437.667969 315.609375 C 438.105469 318.84375 438.703125 322.046875 439.460938 325.222656 C 440.269531 328.664062 440.929688 330.769531 441.5 331.339844 C 442.007812 331.84375 442.675781 332.375 443.292969 332.941406 C 443.867188 333.355469 444.183594 333.917969 444.25 334.625 C 444.25 337.488281 443.3125 339.191406 441.480469 339.84375 C 440.082031 340.34375 436.324219 340.605469 430.222656 340.59375 C 425.347656 340.59375 422.085938 340.1875 420.441406 339.375 C 418.796875 338.5625 417.976562 336.988281 417.972656 334.652344 C 417.972656 334.105469 418.394531 333.511719 419.222656 332.855469 C 420.230469 332.082031 420.804688 331.5625 420.9375 331.3125 C 421.59375 330.273438 422.347656 327.636719 423.242188 323.375 C 424.042969 319.671875 424.640625 315.9375 425.035156 312.171875 C 425.113281 311.273438 425.210938 309.226562 425.292969 305.910156 L 424.308594 305.503906 C 423.738281 305.476562 423.230469 305.925781 422.792969 306.855469 C 422.175781 308.164062 421.628906 309.019531 421.148438 309.425781 C 420.136719 310.324219 418.667969 310.679688 416.734375 310.523438 C 415.109375 310.386719 414.042969 309.820312 413.59375 308.835938 C 413.289062 308.222656 413.148438 307.074219 413.148438 305.378906 C 413.21875 303.40625 413.816406 301.609375 414.941406 299.984375 C 416.285156 297.894531 417.769531 296.867188 419.484375 297.003906 C 420.421875 297.125 421.34375 297.320312 422.25 297.59375 C 423.152344 297.875 424.074219 298.058594 425.015625 298.148438 C 429.949219 298.417969 434.878906 298.433594 439.8125 298.195312 C 440.136719 298.117188 440.445312 298.003906 440.738281 297.847656 C 441.066406 297.671875 441.417969 297.570312 441.792969 297.546875 C 443.632812 297.496094 445.214844 298.566406 446.53125 300.726562 C 447.632812 302.425781 448.203125 304.285156 448.246094 306.308594 C 448.246094 309.6875 446.839844 311.359375 444.027344 311.390625 C 442.449219 311.40625 441.15625 310.492188 440.144531 308.648438 C 439.136719 306.800781 438.125 305.867188 437.113281 305.859375 L 436.4375 306.113281 C 436.570312 307.40625 436.886719 309.894531 437.359375 313.488281 C 437.46875 314.347656 437.535156 314.769531 437.667969 315.609375 Z M 437.667969 315.609375 " fill-opacity="1" fill-rule="nonzero"/><path fill="#ffbc64" d="M 489.496094 323.550781 C 489.636719 328.539062 487.183594 333.4375 483.238281 336.585938 C 479.203125 339.832031 474.015625 341.195312 468.949219 341.203125 C 463.476562 341.203125 457.859375 339.359375 453.933594 335.457031 C 450.230469 331.769531 449.128906 326.753906 448.863281 322.035156 C 448.550781 316.4375 450.65625 310.304688 453.996094 305.449219 C 457.660156 300.121094 463.445312 295.890625 470 295.171875 C 476.425781 294.464844 482.261719 298.195312 485.082031 303.878906 C 488.132812 310.03125 489.300781 316.773438 489.496094 323.550781 Z M 475.074219 317.070312 C 475.074219 314.4375 474.4375 311.558594 473.164062 308.433594 C 471.578125 304.53125 469.628906 302.667969 467.300781 302.960938 C 465.957031 303.128906 464.890625 304.25 464.140625 306.199219 C 463.566406 307.6875 463.28125 309.234375 463.285156 310.832031 C 463.242188 313.417969 463.726562 315.898438 464.734375 318.277344 C 466.039062 321.210938 467.984375 322.542969 470.53125 322.320312 C 473.558594 322.03125 475.074219 320.308594 475.074219 317.070312 Z M 475.074219 317.070312 " fill-opacity="1" fill-rule="nonzero"/><path fill="#ffbc64" d="M 517.285156 304.765625 C 517.285156 300.210938 516.695312 297.53125 515.492188 296.734375 C 514.921875 296.546875 514.371094 296.300781 513.847656 296 C 513.339844 295.671875 513.058594 294.835938 513.058594 293.859375 C 513.058594 292.039062 514.210938 290.496094 516.480469 289.21875 C 518.671875 288.050781 521 287.304688 523.460938 286.972656 C 524.027344 286.882812 525.253906 286.746094 527.085938 286.589844 C 533.390625 286.050781 541.121094 286.285156 546.367188 290.347656 C 552.695312 295.238281 554.027344 304.992188 554.070312 312.308594 C 554.117188 319.050781 552.542969 326.316406 548.800781 332.03125 C 545.296875 337.390625 539.183594 340.210938 532.933594 340.269531 C 523.964844 340.355469 521.074219 340.347656 524.371094 340.382812 C 520.023438 340.351562 516.917969 339.988281 515.085938 339.375 C 514.015625 339.074219 512.984375 338.671875 511.992188 338.175781 C 511.601562 337.9375 511.316406 337.605469 511.136719 337.183594 C 510.953125 336.761719 510.910156 336.328125 511 335.878906 C 511.242188 333.765625 511.789062 332.117188 512.714844 331.027344 C 513.769531 329.871094 514.582031 328.5625 515.152344 327.101562 C 517.277344 319.980469 517.308594 312.128906 517.285156 304.765625 Z M 532.761719 292.726562 C 532.542969 292.898438 532.253906 293.175781 531.90625 293.535156 C 531.414062 294.007812 531.050781 294.5625 530.820312 295.203125 C 530.523438 295.941406 530.3125 296.703125 530.191406 297.492188 C 529.742188 302.085938 530.191406 307.808594 530.324219 312.914062 C 530.433594 316.828125 531.445312 318.757812 533.421875 318.59375 C 535.703125 318.394531 537.378906 316.765625 538.492188 313.804688 C 539.371094 311.316406 539.785156 308.753906 539.742188 306.117188 C 539.742188 302.519531 539.296875 299.59375 538.492188 297.332031 C 537.296875 294.023438 535.394531 292.488281 532.761719 292.730469 Z M 532.761719 292.726562 " fill-opacity="1" fill-rule="nonzero"/><path fill="#ffbc64" d="M 597.101562 318.996094 C 597.125 320.464844 597.003906 321.921875 596.742188 323.371094 C 596.480469 324.816406 596.082031 326.222656 595.542969 327.589844 C 595.007812 328.960938 594.34375 330.261719 593.554688 331.5 C 592.761719 332.738281 591.859375 333.886719 590.84375 334.949219 C 589.917969 335.914062 588.902344 336.78125 587.804688 337.550781 C 586.707031 338.316406 585.546875 338.972656 584.320312 339.511719 C 583.09375 340.050781 581.828125 340.46875 580.523438 340.757812 C 579.214844 341.050781 577.894531 341.210938 576.554688 341.242188 C 570.351562 341.355469 564.824219 337.285156 561.542969 332.210938 C 557.878906 326.554688 556.472656 319.46875 556.46875 312.882812 C 556.46875 305.742188 557.898438 298.105469 561.605469 291.871094 C 564.929688 286.277344 570.707031 281.257812 577.609375 281.554688 C 585.113281 281.875 590.070312 288.082031 592.6875 294.644531 C 595.835938 302.515625 596.925781 310.652344 597.101562 318.996094 Z M 582.679688 308.359375 C 582.609375 304.597656 581.972656 300.933594 580.769531 297.371094 C 579.1875 292.378906 577.242188 289.929688 574.910156 289.902344 C 573.5625 289.902344 572.496094 291.007812 571.746094 293.253906 C 571.160156 295.042969 570.875 296.878906 570.890625 298.761719 C 570.867188 302.011719 571.347656 305.183594 572.339844 308.273438 C 573.644531 312.261719 575.585938 314.324219 578.132812 314.382812 C 581.164062 314.449219 582.679688 312.433594 582.679688 308.359375 Z M 582.679688 308.359375 " fill-opacity="1" fill-rule="nonzero"/><path fill="#2ec69b" d="M 406.914062 253.65625 C 407.328125 257.941406 407.953125 262.285156 408.707031 266.496094 C 409.523438 271.1875 410.160156 274.140625 410.746094 274.992188 C 411.25 275.726562 411.921875 276.535156 412.542969 277.378906 C 413.132812 278.085938 413.449219 278.898438 413.496094 279.816406 C 413.496094 283.804688 412.554688 286.109375 410.730469 286.804688 C 409.332031 287.328125 405.570312 287.253906 399.46875 286.015625 C 394.597656 285.027344 391.335938 283.617188 389.691406 282.152344 C 388.042969 280.6875 387.21875 278.503906 387.21875 275.609375 C 387.21875 274.929688 387.640625 274.292969 388.46875 273.671875 C 389.480469 272.917969 390.046875 272.367188 390.183594 272.070312 C 390.84375 270.882812 391.578125 267.675781 392.488281 262.457031 C 393.273438 257.960938 393.917969 253.246094 394.28125 248.675781 C 394.367188 247.597656 394.457031 245.042969 394.546875 241.003906 L 393.558594 240.523438 C 392.976562 240.496094 392.472656 241.042969 392.042969 242.164062 C 391.425781 243.742188 390.882812 244.769531 390.398438 245.25 C 389.390625 246.296875 387.917969 246.710938 385.984375 246.503906 C 384.363281 246.332031 383.296875 245.679688 382.847656 244.570312 C 382.546875 243.878906 382.398438 242.585938 382.398438 240.695312 C 382.398438 238.714844 383.027344 236.679688 384.191406 234.542969 C 385.539062 232.074219 387.023438 230.730469 388.734375 230.734375 C 389.675781 230.777344 390.597656 230.929688 391.5 231.183594 C 392.40625 231.441406 393.328125 231.597656 394.269531 231.65625 C 399.199219 231.679688 404.132812 231.738281 409.066406 231.5 C 409.394531 231.410156 409.703125 231.273438 409.988281 231.085938 C 410.3125 230.875 410.660156 230.761719 411.042969 230.738281 C 412.886719 230.738281 414.460938 232.164062 415.785156 234.996094 C 416.882812 237.300781 417.4375 239.726562 417.453125 242.28125 C 417.453125 246.632812 416.042969 248.722656 413.238281 248.574219 C 411.65625 248.496094 410.363281 247.226562 409.347656 244.800781 C 408.335938 242.371094 407.332031 241.144531 406.320312 241.109375 L 405.664062 241.378906 C 405.792969 243.03125 406.097656 246.195312 406.585938 250.875 C 406.714844 251.992188 406.785156 252.550781 406.914062 253.65625 Z M 406.914062 253.65625 " fill-opacity="1" fill-rule="nonzero"/><path fill="#2ec69b" d="M 442.476562 281.058594 C 442.476562 284.550781 441.613281 286.902344 439.972656 288.175781 C 438.746094 289.128906 436.703125 289.664062 433.851562 289.640625 C 433.320312 289.640625 432.457031 289.605469 431.246094 289.535156 C 430.035156 289.460938 429.105469 289.410156 428.445312 289.386719 C 424.277344 289.246094 421.488281 288.742188 420.082031 288.039062 C 417.492188 286.773438 416.199219 284.296875 416.199219 280.640625 C 416.199219 279.910156 416.597656 279.105469 417.398438 278.328125 C 418.410156 277.339844 419.058594 276.667969 419.191406 276.335938 C 421.242188 271.675781 421.597656 266.28125 422.113281 261.347656 C 422.847656 254.34375 423.179688 250.613281 423.3125 250.621094 L 423.3125 247.699219 C 423.351562 244.964844 423.023438 243 422.324219 241.855469 C 421.714844 241.210938 421.035156 240.648438 420.292969 240.160156 C 419.550781 239.625 419.179688 238.660156 419.179688 237.257812 C 419.179688 235.007812 420.40625 233.386719 422.863281 232.339844 C 424.578125 231.605469 426.703125 231.296875 429.054688 231.234375 C 432.707031 231.144531 439.792969 231.800781 439.855469 236.886719 C 439.855469 238 439.261719 239.261719 438.0625 240.632812 C 437.503906 241.21875 437.070312 241.882812 436.761719 242.632812 C 436.453125 243.378906 436.289062 244.15625 436.265625 244.964844 C 436.265625 247.015625 436.902344 248.332031 438.175781 248.914062 C 438.792969 249.183594 440.148438 249.324219 442.257812 249.335938 C 444.28125 249.335938 445.507812 249.273438 445.949219 249.113281 C 447.222656 248.699219 447.859375 247.632812 447.859375 245.894531 C 447.859375 243.433594 447.253906 241.769531 446.066406 240.953125 C 445.480469 240.570312 445.03125 240.066406 444.710938 239.445312 C 444.390625 238.824219 444.246094 238.164062 444.269531 237.46875 C 444.269531 235.171875 445.488281 233.421875 447.894531 232.386719 C 449.628906 231.625 451.777344 231.308594 454.082031 231.25 C 457.722656 231.152344 464.816406 231.808594 464.886719 236.871094 C 464.886719 237.554688 464.53125 238.453125 463.832031 239.511719 C 462.984375 240.738281 462.324219 242.058594 461.855469 243.472656 C 461.152344 245.675781 460.78125 248.539062 460.800781 251.945312 C 460.847656 260.039062 462.539062 267.832031 464.621094 275.640625 C 467.078125 278.175781 468.425781 280.375 468.304688 281.933594 C 467.917969 287.050781 459.515625 288.007812 455.203125 288.320312 C 451.078125 288.621094 448.59375 288.644531 447.761719 288.496094 C 444.953125 287.925781 443.542969 286.179688 443.542969 283.300781 C 443.542969 282.292969 444.09375 281.207031 445.195312 280.046875 C 446.289062 278.886719 446.839844 278.007812 446.839844 277.425781 C 446.839844 275.78125 446.664062 273.296875 446.3125 269.9375 C 445.957031 266.574219 445.785156 263.976562 445.785156 262.207031 C 445.785156 260.996094 445.621094 260.117188 445.292969 259.589844 C 444.964844 259.058594 444.269531 258.789062 443.21875 258.785156 C 441.019531 258.785156 439.675781 259.570312 439.183594 261.140625 C 438.917969 261.847656 438.789062 263.835938 438.789062 266.984375 C 438.789062 271.5625 438.894531 274.25 439.113281 275.136719 C 439.289062 275.828125 439.925781 276.863281 441.023438 278.15625 C 441.976562 279.269531 442.476562 280.234375 442.476562 281.058594 Z M 442.476562 281.058594 " fill-opacity="1" fill-rule="nonzero"/><path fill="#2ec69b" d="M 476.652344 249.921875 C 476.828125 245.191406 476.015625 241.917969 474.859375 240.90625 C 474.273438 240.601562 473.726562 240.246094 473.210938 239.832031 C 472.6875 239.382812 472.417969 238.375 472.417969 237.242188 C 472.417969 235.128906 473.578125 233.519531 475.84375 232.46875 C 477.726562 231.59375 480.0625 231.179688 482.828125 231.214844 C 486.722656 231.265625 489.488281 231.796875 491.058594 232.695312 C 491.703125 233.019531 492.207031 233.492188 492.574219 234.113281 C 492.945312 234.734375 493.121094 235.40625 493.097656 236.128906 C 493.164062 236.898438 492.957031 237.585938 492.472656 238.191406 C 492.054688 238.640625 491.628906 239.050781 491.1875 239.445312 C 490.71875 239.894531 490.386719 240.429688 490.203125 241.054688 C 489.410156 243.175781 489.015625 246.390625 489.015625 250.613281 L 489.015625 250.964844 C 489.410156 254.960938 490.058594 259.121094 490.863281 263.335938 C 491.757812 268.089844 492.503906 270.949219 493.167969 271.664062 C 493.667969 272.207031 494.339844 272.789062 494.960938 273.40625 C 495.570312 273.929688 495.890625 274.597656 495.914062 275.402344 C 495.914062 279.0625 494.976562 281.453125 493.152344 282.59375 C 491.75 283.492188 487.992188 284.472656 481.890625 285.417969 C 476.957031 286.179688 473.699219 286.132812 472.078125 285.339844 C 470.453125 284.550781 469.644531 282.703125 469.644531 279.757812 C 469.644531 279.070312 470.058594 278.253906 470.894531 277.3125 C 471.558594 276.632812 472.128906 275.886719 472.605469 275.066406 C 473.222656 273.683594 473.996094 270.195312 474.847656 264.542969 C 475.597656 259.699219 476.480469 254.597656 476.652344 249.921875 Z M 476.652344 249.921875 " fill-opacity="1" fill-rule="nonzero"/><path fill="#2ec69b" d="M 518.273438 256.832031 C 518.273438 257.886719 518.679688 259.769531 519.488281 262.484375 C 520.300781 265.195312 520.9375 266.816406 521.398438 267.34375 C 521.847656 267.871094 522.355469 268.402344 522.882812 268.910156 C 523.484375 269.429688 523.878906 270.074219 524.066406 270.84375 C 524.199219 271.597656 524.265625 272.359375 524.265625 273.128906 C 524.265625 275.019531 523.558594 276.488281 522.15625 277.480469 C 521.03125 278.273438 518.835938 278.894531 516.03125 279.609375 C 514.714844 279.945312 511.707031 280.605469 507.144531 281.40625 C 505.34375 281.699219 503.546875 281.65625 501.761719 281.28125 C 500.160156 280.96875 499.074219 280.253906 498.535156 279.375 C 498.046875 278.597656 497.804688 277.75 497.808594 276.832031 L 497.808594 275.546875 C 497.867188 274.800781 498.152344 274.152344 498.664062 273.609375 C 499.113281 273.042969 499.65625 272.449219 500.179688 271.808594 C 501.300781 267 502.378906 262.164062 503.015625 257.28125 C 503.460938 253.734375 503.820312 250.496094 504 247.601562 C 504.261719 243.375 503.667969 240.71875 502.207031 239.582031 C 501.628906 239.335938 501.082031 239.035156 500.5625 238.6875 C 500.046875 238.285156 499.773438 237.410156 499.773438 236.40625 C 499.773438 234.550781 500.941406 233.148438 503.199219 232.222656 C 505.03125 231.472656 507.371094 231.09375 510.175781 231.128906 C 514.957031 231.191406 518.066406 232.027344 519.394531 232.980469 C 521.1875 234.257812 523.3125 237.140625 524.996094 241.6875 C 526.789062 246.597656 528.636719 249.757812 530.375 251.128906 C 530.585938 251.285156 530.820312 251.375 531.082031 251.402344 C 531.339844 251.429688 531.589844 251.386719 531.824219 251.277344 C 532.410156 250.472656 532.671875 249.574219 532.613281 248.578125 C 532.59375 247.910156 532.527344 247.246094 532.417969 246.589844 L 532.417969 246.28125 L 532.355469 246.171875 C 532.21875 245.242188 532.070312 244.257812 531.90625 243.21875 C 531.246094 241.183594 530.039062 239.558594 528.28125 238.34375 C 527.707031 238.132812 527.15625 237.863281 526.636719 237.535156 C 526.1875 237.207031 525.910156 236.425781 525.910156 235.5625 C 525.910156 233.953125 527.074219 232.753906 529.335938 231.964844 C 531.609375 231.261719 533.9375 230.953125 536.316406 231.042969 C 540.175781 231.074219 542.925781 231.441406 544.550781 232.109375 C 545.859375 232.652344 546.523438 233.480469 546.523438 234.625 C 546.574219 235.234375 546.378906 235.746094 545.933594 236.164062 C 545.539062 236.492188 545.121094 236.8125 544.679688 237.113281 C 544.21875 237.421875 543.863281 237.828125 543.609375 238.320312 C 543.078125 239.105469 542.554688 239.914062 542.027344 240.753906 C 541.214844 242.226562 540.820312 243.808594 540.84375 245.492188 C 540.84375 245.414062 540.84375 245.675781 540.84375 246.234375 C 540.886719 248.277344 541.632812 251.457031 542.882812 255.707031 C 544.078125 259.753906 544.675781 263.085938 544.675781 265.527344 C 544.675781 268.753906 544.390625 271.085938 543.820312 272.441406 C 542.894531 274.554688 540.984375 275.816406 538.089844 276.21875 C 534.882812 276.667969 531.984375 275.039062 529.398438 271.378906 C 528.738281 270.414062 526.9375 266.941406 523.996094 261.007812 C 522.152344 257.273438 520.484375 255.492188 518.992188 255.667969 C 518.496094 255.726562 518.273438 256.113281 518.273438 256.832031 Z M 518.273438 256.832031 " fill-opacity="1" fill-rule="nonzero"/><path fill="#2ec69b" d="M 577.214844 250.589844 C 577.214844 250.257812 576.765625 249.800781 575.894531 249.242188 C 575.023438 248.679688 574.578125 248.113281 574.578125 247.5625 C 574.578125 246.027344 577.035156 245.285156 581.953125 245.414062 L 583.136719 245.367188 C 583.972656 245.339844 584.742188 245.335938 585.441406 245.367188 C 589.027344 245.484375 590.898438 246.1875 590.976562 247.410156 C 591.011719 248.300781 590.703125 249.050781 590.050781 249.660156 C 589.132812 250.621094 588.601562 251.195312 588.472656 251.375 C 587.851562 252.566406 587.675781 253.820312 587.949219 255.132812 C 588.914062 259.691406 589.398438 262.910156 589.398438 264.660156 C 589.398438 265.4375 589.261719 265.933594 588.996094 266.152344 C 588.195312 266.730469 587.296875 267.050781 586.308594 267.105469 C 585.125 267.234375 584.417969 267.382812 584.199219 267.527344 C 580.425781 270.019531 578.035156 271.597656 577.023438 272.066406 C 574.828125 273.042969 571.703125 273.523438 567.738281 273.679688 C 566.320312 273.730469 564.917969 273.617188 563.53125 273.332031 C 562.140625 273.046875 560.804688 272.601562 559.523438 272 C 558.238281 271.394531 557.046875 270.648438 555.941406 269.757812 C 554.835938 268.867188 553.851562 267.859375 552.984375 266.734375 C 551.332031 264.589844 550.066406 262.238281 549.1875 259.675781 C 548.308594 257.113281 547.863281 254.476562 547.851562 251.765625 C 547.847656 249.089844 548.324219 246.503906 549.277344 244.003906 C 550.230469 241.507812 551.597656 239.261719 553.378906 237.269531 C 554.363281 236.199219 555.445312 235.242188 556.628906 234.402344 C 557.8125 233.5625 559.070312 232.851562 560.40625 232.277344 C 561.738281 231.703125 563.117188 231.273438 564.539062 230.988281 C 565.960938 230.707031 567.398438 230.574219 568.851562 230.59375 C 570.195312 230.648438 571.523438 230.828125 572.832031 231.128906 C 574.101562 231.429688 575.382812 231.609375 576.683594 231.671875 C 577.375 231.609375 578.035156 231.429688 578.660156 231.132812 C 579.289062 230.839844 579.945312 230.65625 580.636719 230.59375 C 581.308594 230.574219 581.933594 230.742188 582.507812 231.097656 C 583.082031 231.457031 583.511719 231.941406 583.796875 232.554688 C 584.34375 233.613281 584.609375 234.742188 584.589844 235.933594 C 584.589844 238.09375 584.386719 239.640625 583.996094 240.542969 C 583.296875 242.058594 581.851562 242.792969 579.660156 242.75 C 577.914062 242.714844 576.523438 242.210938 575.855469 241.285156 C 575.265625 240.480469 574.765625 239.351562 574.214844 238.585938 C 573.550781 237.6875 572.070312 237.199219 570.277344 237.1875 C 568.257812 237.1875 566.507812 238.042969 565.019531 239.75 C 563.640625 241.339844 562.921875 242.992188 562.921875 244.695312 C 562.921875 247.199219 564.199219 249.167969 566.726562 250.476562 C 568.75 251.523438 571.378906 252.046875 574.523438 252.089844 C 576.316406 252.125 577.214844 251.625 577.214844 250.589844 Z M 577.214844 250.589844 " fill-opacity="1" fill-rule="nonzero"/><path fill="#2ec69b" d="M 602.351562 259.144531 C 605.378906 259.472656 606.894531 258.359375 606.894531 255.742188 C 606.894531 254.867188 605.886719 253.539062 603.867188 251.828125 C 600.835938 249.214844 599.015625 247.671875 598.402344 247.023438 C 596.378906 244.960938 595.371094 243.015625 595.371094 241.117188 C 595.371094 237.734375 596.976562 235.140625 600.175781 233.210938 C 603.042969 231.492188 606.539062 230.59375 610.664062 230.59375 C 612.585938 230.65625 614.484375 230.890625 616.363281 231.292969 C 618.265625 231.699219 620.1875 231.949219 622.125 232.042969 C 624.488281 232.066406 625.667969 234.75 625.667969 240.097656 C 625.667969 243.164062 624.4375 244.566406 621.980469 244.339844 C 620.265625 244.183594 618.632812 242.832031 617.074219 240.390625 C 615.511719 237.949219 614.011719 236.753906 612.574219 236.699219 C 609.371094 236.589844 607.769531 237.5625 607.769531 239.625 C 607.769531 240.835938 609.5625 242.28125 613.148438 244.121094 C 618.046875 246.578125 621.355469 248.8125 623.113281 250.535156 C 626.589844 253.886719 628.34375 258.71875 628.496094 263.351562 C 628.636719 267.203125 626.652344 272.75 623.324219 275.039062 C 619.996094 277.324219 614.175781 277.949219 610.253906 276.914062 C 605.597656 275.683594 600.835938 274.1875 597.082031 271.292969 C 594.011719 268.933594 591.371094 263.875 591.488281 259.917969 C 591.550781 257.667969 592.832031 256.53125 595.566406 256.769531 C 596.578125 256.886719 597.492188 257.253906 598.300781 257.871094 C 599.261719 258.53125 600.613281 258.953125 602.351562 259.144531 Z M 602.351562 259.144531 " fill-opacity="1" fill-rule="nonzero"/><path fill="#ff6464" d="M 626.933594 287.761719 C 624.839844 287.988281 622.757812 288.84375 621.386719 290.488281 C 620.015625 292.132812 619.683594 294.3125 619.992188 296.359375 C 620.335938 298.691406 621.394531 300.890625 622.445312 302.976562 C 622.601562 303.285156 622.757812 303.59375 622.925781 303.902344 C 622.191406 303.273438 621.441406 302.675781 620.683594 302.101562 C 618.820312 300.6875 616.859375 299.25 614.632812 298.507812 C 612.683594 297.832031 610.460938 297.777344 608.621094 298.816406 C 606.78125 299.855469 605.539062 301.769531 604.945312 303.792969 C 604.621094 304.929688 604.4375 306.085938 604.390625 307.269531 C 604.3125 308.257812 604.402344 309.230469 604.660156 310.183594 C 604.984375 311.203125 605.582031 312.019531 606.453125 312.636719 C 607.355469 313.234375 608.328125 313.683594 609.371094 313.984375 C 611.488281 314.660156 613.65625 314.972656 615.878906 314.925781 C 617.082031 314.914062 618.277344 314.820312 619.46875 314.648438 C 618.707031 314.972656 617.960938 315.3125 617.226562 315.664062 C 615.121094 316.675781 612.949219 317.773438 611.253906 319.410156 C 609.765625 320.84375 608.703125 322.804688 608.785156 324.914062 C 608.871094 327.027344 610 329.011719 611.523438 330.46875 C 612.386719 331.273438 613.332031 331.964844 614.359375 332.542969 C 615.191406 333.066406 616.089844 333.429688 617.050781 333.632812 C 618.101562 333.8125 619.097656 333.652344 620.042969 333.152344 C 620.988281 332.625 621.835938 331.964844 622.585938 331.175781 C 624.152344 329.589844 625.421875 327.792969 626.394531 325.785156 C 626.957031 324.648438 627.441406 323.480469 627.84375 322.277344 C 627.96875 323.304688 628.152344 324.320312 628.394531 325.324219 C 628.902344 327.496094 629.742188 329.523438 630.921875 331.414062 C 631.472656 332.351562 632.152344 333.179688 632.960938 333.90625 C 633.769531 334.605469 634.707031 334.984375 635.773438 335.042969 C 636.761719 335.0625 637.722656 334.914062 638.660156 334.59375 C 639.789062 334.257812 640.867188 333.792969 641.882812 333.195312 C 643.679688 332.117188 645.226562 330.460938 645.78125 328.390625 C 646.335938 326.316406 645.730469 324.207031 644.597656 322.476562 C 643.304688 320.5 641.429688 318.949219 639.601562 317.5 C 638.777344 316.84375 637.933594 316.210938 637.074219 315.601562 C 638.105469 315.714844 639.136719 315.796875 640.171875 315.847656 C 642.503906 315.960938 644.933594 316.035156 647.203125 315.398438 C 649.1875 314.851562 651.054688 313.632812 651.980469 311.734375 C 652.910156 309.839844 652.878906 307.554688 652.214844 305.546875 C 651.835938 304.425781 651.332031 303.363281 650.703125 302.363281 C 650.214844 301.503906 649.59375 300.753906 648.839844 300.117188 C 647.996094 299.457031 647.042969 299.121094 645.972656 299.113281 C 644.890625 299.125 643.832031 299.296875 642.804688 299.636719 C 640.671875 300.265625 638.695312 301.226562 636.878906 302.515625 C 636.226562 302.964844 635.589844 303.472656 634.980469 303.996094 C 635.351562 302.867188 635.652344 301.714844 635.875 300.546875 C 636.324219 298.367188 636.410156 296.167969 636.132812 293.957031 C 636.019531 292.878906 635.746094 291.839844 635.316406 290.84375 C 634.875 289.867188 634.183594 289.128906 633.238281 288.625 C 632.347656 288.195312 631.410156 287.929688 630.425781 287.832031 C 629.265625 287.671875 628.101562 287.648438 626.933594 287.761719 Z M 626.933594 287.761719 " fill-opacity="1" fill-rule="nonzero"/><path fill="#ffeed9" d="M 625.828125 318.066406 C 622.3125 316.5 619.609375 312.3125 622.105469 308.761719 C 624.4375 305.449219 629.085938 302.558594 632.503906 306.097656 C 634.789062 308.472656 635.695312 312.238281 634.140625 315.242188 C 633.953125 315.601562 633.734375 315.941406 633.480469 316.257812 C 633.230469 316.578125 632.949219 316.867188 632.640625 317.132812 C 632.335938 317.398438 632.003906 317.628906 631.652344 317.832031 C 631.300781 318.03125 630.933594 318.195312 630.546875 318.328125 C 630.164062 318.457031 629.773438 318.550781 629.371094 318.605469 C 628.96875 318.660156 628.566406 318.675781 628.164062 318.652344 C 627.757812 318.632812 627.359375 318.570312 626.964844 318.472656 C 626.574219 318.371094 626.191406 318.238281 625.828125 318.066406 Z M 625.828125 318.066406 " fill-opacity="1" fill-rule="nonzero"/></svg>